<?xml version="1.0" encoding="UTF-8" standalone="no"?>
<!-- Generator: Adobe Illustrator 22.1.0, SVG Export Plug-In . SVG Version: 6.00 Build 0)  -->

<svg
   xmlns:dc="http://purl.org/dc/elements/1.1/"
   xmlns:cc="http://creativecommons.org/ns#"
   xmlns:rdf="http://www.w3.org/1999/02/22-rdf-syntax-ns#"
   xmlns:svg="http://www.w3.org/2000/svg"
   xmlns="http://www.w3.org/2000/svg"
   xmlns:sodipodi="http://sodipodi.sourceforge.net/DTD/sodipodi-0.dtd"
   xmlns:inkscape="http://www.inkscape.org/namespaces/inkscape"
   version="1.1"
   id="Layer_1"
   x="0px"
   y="0px"
   viewBox="0 0 556.08301 400.99234"
   xml:space="preserve"
   sodipodi:docname="403.svg"
   width="556.08301"
   height="400.99234"
   inkscape:version="0.92.4 (5da689c313, 2019-01-14)"><metadata
   id="metadata139"><rdf:RDF><cc:Work
       rdf:about=""><dc:format>image/svg+xml</dc:format><dc:type
         rdf:resource="http://purl.org/dc/dcmitype/StillImage" /><dc:title></dc:title></cc:Work></rdf:RDF></metadata><defs
   id="defs137" /><sodipodi:namedview
   pagecolor="#ffffff"
   bordercolor="#666666"
   borderopacity="1"
   objecttolerance="10"
   gridtolerance="10"
   guidetolerance="10"
   inkscape:pageopacity="0"
   inkscape:pageshadow="2"
   inkscape:window-width="1920"
   inkscape:window-height="1017"
   id="namedview135"
   showgrid="false"
   fit-margin-top="0"
   fit-margin-left="0"
   fit-margin-right="0"
   fit-margin-bottom="0"
   inkscape:zoom="0.55625733"
   inkscape:cx="369.18607"
   inkscape:cy="-32.035991"
   inkscape:window-x="-8"
   inkscape:window-y="-8"
   inkscape:window-maximized="1"
   inkscape:current-layer="Layer_1" />

<rect
   width="800"
   height="600"
   style="fill:#ffffff"
   id="rect2"
   x="-137"
   y="-101.00764" />
<g
   id="g13"
   transform="translate(-137,-101.00765)">
	
		<radialGradient
   id="SVGID_1_"
   cx="-2744.8171"
   cy="370.35721"
   r="297.95959"
   gradientTransform="matrix(0.4431,0,0,-0.4692,1774.2285,403.7716)"
   gradientUnits="userSpaceOnUse">
		<stop
   offset="0"
   style="stop-color:#EEEEEE"
   id="stop4" />
		<stop
   offset="1"
   style="stop-color:#EEEEEE;stop-opacity:0"
   id="stop6" />
	</radialGradient>
	<circle
   cx="558"
   cy="230"
   style="fill:url(#SVGID_1_)"
   id="ellipse9"
   r="168" />
	<circle
   cx="557.79999"
   cy="229.8"
   r="58"
   style="fill:#ffffff"
   id="circle11" />
</g>
<g
   id="g51"
   transform="translate(-137,-101.00765)">
	<path
   d="M 698.7,272.7 V 418.8 H 90.5 V 273 c 17.2,0 31.3,-6.1 33.5,-13.9 2.2,7.8 16.3,13.9 33.5,13.9 16.2,0 29.7,-5.4 33,-12.6 3.3,7.2 16.8,12.6 33,12.6 17.2,0 31.3,-6.1 33.5,-13.9 2.2,7.8 16.3,13.9 33.5,13.9 17.2,0 31.3,-6.1 33.5,-13.9 2.2,7.8 16.3,13.9 33.5,13.9 17.2,0 31.3,-6.1 33.5,-13.9 2.2,7.8 16.3,13.9 33.5,13.9 17.2,0 31.3,-6.1 33.5,-13.9 2.2,7.8 16.3,13.9 33.5,13.9 17.2,0 31.3,-6.1 33.5,-13.9 2.2,7.8 16.3,13.9 33.5,13.9 17.2,0 31.3,-6.1 33.5,-13.9 2.2,7.8 16.3,13.9 33.5,13.9 17.2,0 31.3,-6.1 33.5,-13.9 2.2,7.8 16.3,13.9 33.5,13.9 2.1,0 4.2,-0.1 6.2,-0.3 z"
   style="fill:#ffffff"
   id="path15"
   inkscape:connector-curvature="0" />
	
		<linearGradient
   id="SVGID_2_"
   gradientUnits="userSpaceOnUse"
   x1="394.60001"
   y1="181.2"
   x2="394.60001"
   y2="340.89999"
   gradientTransform="matrix(1,0,0,-1,0,600)">
		<stop
   offset="0"
   style="stop-color:#FFFFFF;stop-opacity:0"
   id="stop17" />
		<stop
   offset="1"
   style="stop-color:#F5F5F5"
   id="stop19" />
	</linearGradient>
	<path
   d="M 698.7,272.7 V 418.8 H 90.5 V 273 c 17.2,0 31.3,-6.1 33.5,-13.9 2.2,7.8 16.3,13.9 33.5,13.9 16.2,0 29.7,-5.4 33,-12.6 3.3,7.2 16.8,12.6 33,12.6 17.2,0 31.3,-6.1 33.5,-13.9 2.2,7.8 16.3,13.9 33.5,13.9 17.2,0 31.3,-6.1 33.5,-13.9 2.2,7.8 16.3,13.9 33.5,13.9 17.2,0 31.3,-6.1 33.5,-13.9 2.2,7.8 16.3,13.9 33.5,13.9 17.2,0 31.3,-6.1 33.5,-13.9 2.2,7.8 16.3,13.9 33.5,13.9 17.2,0 31.3,-6.1 33.5,-13.9 2.2,7.8 16.3,13.9 33.5,13.9 17.2,0 31.3,-6.1 33.5,-13.9 2.2,7.8 16.3,13.9 33.5,13.9 17.2,0 31.3,-6.1 33.5,-13.9 2.2,7.8 16.3,13.9 33.5,13.9 2.1,0 4.2,-0.1 6.2,-0.3 z"
   style="fill:url(#SVGID_2_)"
   id="path22"
   inkscape:connector-curvature="0" />
	
		<linearGradient
   id="SVGID_3_"
   gradientUnits="userSpaceOnUse"
   x1="394.60001"
   y1="141.2"
   x2="394.60001"
   y2="300.89999"
   gradientTransform="matrix(1,0,0,-1,0,600)">
		<stop
   offset="0"
   style="stop-color:#FFFFFF;stop-opacity:0"
   id="stop24" />
		<stop
   offset="0.6802"
   style="stop-color:#F5F5F5;stop-opacity:0.6802"
   id="stop26" />
		<stop
   offset="1"
   style="stop-color:#EEEEEE"
   id="stop28" />
	</linearGradient>
	<path
   d="M 698.7,312.7 V 458.8 H 90.5 V 313 c 17.2,0 31.3,-6.1 33.5,-13.9 2.2,7.8 16.3,13.9 33.5,13.9 16.2,0 29.7,-5.4 33,-12.6 3.3,7.2 16.8,12.6 33,12.6 17.2,0 31.3,-6.1 33.5,-13.9 2.2,7.8 16.3,13.9 33.5,13.9 17.2,0 31.3,-6.1 33.5,-13.9 2.2,7.8 16.3,13.9 33.5,13.9 17.2,0 31.3,-6.1 33.5,-13.9 2.2,7.8 16.3,13.9 33.5,13.9 17.2,0 31.3,-6.1 33.5,-13.9 2.2,7.8 16.3,13.9 33.5,13.9 17.2,0 31.3,-6.1 33.5,-13.9 2.2,7.8 16.3,13.9 33.5,13.9 17.2,0 31.3,-6.1 33.5,-13.9 2.2,7.8 16.3,13.9 33.5,13.9 17.2,0 31.3,-6.1 33.5,-13.9 2.2,7.8 16.3,13.9 33.5,13.9 2.1,0 4.2,-0.1 6.2,-0.3 z"
   style="fill:url(#SVGID_3_)"
   id="path31"
   inkscape:connector-curvature="0" />
	
		<linearGradient
   id="SVGID_4_"
   gradientUnits="userSpaceOnUse"
   x1="394.60001"
   y1="101.2"
   x2="394.60001"
   y2="260.89999"
   gradientTransform="matrix(1,0,0,-1,0,600)">
		<stop
   offset="0"
   style="stop-color:#FFFFFF;stop-opacity:0"
   id="stop33" />
		<stop
   offset="0.4295"
   style="stop-color:#F5F5F5;stop-opacity:0.4295"
   id="stop35" />
		<stop
   offset="1"
   style="stop-color:#E0E0E0"
   id="stop37" />
	</linearGradient>
	<path
   d="M 698.7,352.7 V 498.8 H 90.5 V 353 c 17.2,0 31.3,-6.1 33.5,-13.9 2.2,7.8 16.3,13.9 33.5,13.9 16.2,0 29.7,-5.4 33,-12.6 3.3,7.2 16.8,12.6 33,12.6 17.2,0 31.3,-6.1 33.5,-13.9 2.2,7.8 16.3,13.9 33.5,13.9 17.2,0 31.3,-6.1 33.5,-13.9 2.2,7.8 16.3,13.9 33.5,13.9 17.2,0 31.3,-6.1 33.5,-13.9 2.2,7.8 16.3,13.9 33.5,13.9 17.2,0 31.3,-6.1 33.5,-13.9 2.2,7.8 16.3,13.9 33.5,13.9 17.2,0 31.3,-6.1 33.5,-13.9 2.2,7.8 16.3,13.9 33.5,13.9 17.2,0 31.3,-6.1 33.5,-13.9 2.2,7.8 16.3,13.9 33.5,13.9 17.2,0 31.3,-6.1 33.5,-13.9 2.2,7.8 16.3,13.9 33.5,13.9 2.1,0 4.2,-0.1 6.2,-0.3 z"
   style="fill:url(#SVGID_4_)"
   id="path40"
   inkscape:connector-curvature="0" />
	
		<radialGradient
   id="SVGID_5_"
   cx="389.47711"
   cy="460.78"
   r="328.28961"
   gradientTransform="matrix(1,-0.00288551,-0.00368226,-1.2761,1.6984,728.3434)"
   gradientUnits="userSpaceOnUse">
		<stop
   offset="8.940305e-02"
   style="stop-color:#FFFFFF;stop-opacity:0"
   id="stop42" />
		<stop
   offset="0.8713"
   style="stop-color:#FFFFFF;stop-opacity:0.8587"
   id="stop44" />
		<stop
   offset="1"
   style="stop-color:#FFFFFF"
   id="stop46" />
	</radialGradient>
	<path
   d="m 692.5,273 c -17.2,0 -31.3,-6.1 -33.5,-13.9 -2.2,7.8 -16.3,13.9 -33.5,13.9 -17.2,0 -31.3,-6.1 -33.5,-13.9 -2.2,7.8 -16.3,13.9 -33.5,13.9 -17.2,0 -31.3,-6.1 -33.5,-13.9 -2.2,7.8 -16.3,13.9 -33.5,13.9 -17.2,0 -31.3,-6.1 -33.5,-13.9 -2.2,7.8 -16.3,13.9 -33.5,13.9 -17.2,0 -31.3,-6.1 -33.5,-13.9 -2.2,7.8 -16.3,13.9 -33.5,13.9 -17.2,0 -31.3,-6.1 -33.5,-13.9 -2.2,7.8 -16.3,13.9 -33.5,13.9 -17.2,0 -31.3,-6.1 -33.5,-13.9 -2.2,7.8 -16.3,13.9 -33.5,13.9 -16.2,0 -29.7,-5.4 -33,-12.6 -3.3,7.2 -16.8,12.6 -33,12.6 -17.2,0 -31.3,-6.1 -33.5,-13.9 C 121.8,267 17.2,273 0,273 V 498.9 H 800 V 272.7 c 0,0 -105.4,0.3 -107.5,0.3 z"
   style="fill:url(#SVGID_5_)"
   id="path49"
   inkscape:connector-curvature="0" />
</g>
<g
   id="g57"
   transform="translate(-137,-101.00765)">
	<path
   d="m 173.3,175 c 0,0 -6,-47.7 39.9,-42.6 0,0 7,-37.6 51.9,-30.5 0,0 -37.9,6.1 -39.9,33.5 0,0 -6,12.2 -17.9,19.3 l 2,-12.2 c -0.1,0 -26.1,0 -36,32.5 z"
   style="fill:#f5f5f5"
   id="path53"
   inkscape:connector-curvature="0" />
	<path
   d="m 653,105.1 c 0,0 25.4,-3.1 24.5,22.4 0,0 19.7,1 14.8,29.5 0,0 -5.3,-22.2 -18.7,-23.4 0,0 -5,-2.3 -8.9,-9.2 l 5.9,1 c 0,0.1 0.2,-14.5 -17.6,-20.3 z"
   style="fill:#f5f5f5"
   id="path55"
   inkscape:connector-curvature="0" />
</g>
<g
   id="g69"
   transform="translate(-137,-101.00765)">
	<path
   d="m 538,262.3 c 2.4,-0.6 4.6,-1.7 6.5,-3.3 1,2.3 8.3,7.7 25.5,8 l -1.7,5 c -6.3,1.8 -12.4,1.5 -18.9,1.3 -3.2,-0.2 -6.4,-1 -9,-2.9 -1.3,-2.5 -2.1,-5.4 -2.4,-8.1 z"
   style="fill:#e9e9e9"
   id="path59"
   inkscape:connector-curvature="0" />
	<path
   d="m 560,206.3 0.8,-4.3 c 0.5,1.3 1.3,2 2.8,2 1.9,0 3,-1 4.4,-1 1.6,0 2.1,0.3 3,1 -1.8,-0.1 -2.4,0.2 -4.3,1.8 -0.6,0.5 -1.9,1.3 -3.4,1.3 -1.8,-0.1 -3.3,-0.8 -3.3,-0.8 z"
   style="fill:#ff808b"
   id="path61"
   inkscape:connector-curvature="0" />
	<path
   d="m 552.6,208 c -3.3,0.5 -5.8,3.5 -5.6,6.8 0,1.4 0.4,2.9 1,4.2 l 22,4 c -1.6,-1.4 -3,-2.6 -3,-6 0,-3 1.5,-4.4 3,-5.9 z"
   style="fill:#ff808b"
   id="path63"
   inkscape:connector-curvature="0" />
	<path
   d="m 543,234.9 c -1,-1.3 -2,-3.7 -2,-5.8 0,-2.6 1.3,-6.3 5.1,-7.3 l 23.9,4.3 c -1.9,1.5 -3,3.4 -3,6.9 0,2.9 1.6,5.4 4,6.9 z"
   style="fill:#ff808b"
   id="path65"
   inkscape:connector-curvature="0" />
	<path
   d="m 544,238 c -3.4,1.4 -6,4.5 -6,8.1 0,5.6 3,7.9 3,7.9 l 31,5.7 c 0,0 -5,-1.8 -5,-8.7 0,-4.4 2.1,-6.4 4,-8 z"
   style="fill:#ff808b"
   id="path67"
   inkscape:connector-curvature="0" />
</g>
<g
   id="g87"
   transform="translate(-137,-101.00765)">
	<polygon
   points="323,488 323,488 308,492 308,492 289,499 266,501 234,502 234,502 137,502 137,454 241,442 268,423 295,422 313,404 332,408 349,375 338,476 "
   style="fill:#a1887f"
   id="polygon71" />
	<polygon
   points="211,373 285,363 311,373 349,375 332,408 313,404 295,422 268,423 241,442 137,454 166,382 192,379 "
   style="fill:#d7ccc8"
   id="polygon73" />
	<polygon
   points="323,488 332,408 349,375 338,476 "
   style="fill:#a1887f"
   id="polygon75" />
	<polygon
   points="308,492 313,404 332,408 323,488 "
   style="fill:#8d6e63"
   id="polygon77" />
	<polygon
   points="137,454 241,442 234,502 137,502 "
   style="fill:#8d6e63"
   id="polygon79" />
	<polygon
   points="289,499 295,422 313,404 308,492 "
   style="fill:#a1887f"
   id="polygon81" />
	<polygon
   points="266,501 268,423 295,422 289,499 "
   style="fill:#8d6e63"
   id="polygon83" />
	<polygon
   points="234,502 241,442 268,423 266,501 "
   style="fill:#a1887f"
   id="polygon85" />
</g>
<g
   id="g132"
   transform="translate(-137,-101.00765)">
	<path
   d="m 246.6,273 5.3,-0.1 c -0.4,-7.9 -0.4,-15.8 0,-23.6 l 3,-18.6 -3.4,-16.6 -9,12.3 c -2.5,18.4 -2.8,21.1 -2.6,23 0.8,6.4 5,18.6 6.7,23.6 z"
   style="fill:#1565c0"
   id="path89"
   inkscape:connector-curvature="0" />
	<path
   d="m 194,309.4 c 0,1.5 0.6,5.6 8.8,11.8 14.1,10.6 30.4,14.8 50.3,14.8 h 26 c -0.4,-7.2 -15,-14 -32.1,-23.4 -45.5,-24.9 -53,-5.1 -53,-3.2 z"
   style="fill:#1565c0"
   id="path91"
   inkscape:connector-curvature="0" />
	<path
   d="m 252,325 -13.9,-6.8 c 0,0 -2.4,10.7 -3.3,17.9 -0.9,5.3 -1.4,10.6 -1.6,16 -0.2,7.2 -1.4,14.4 -3.3,21.4 -0.3,1.2 7.5,2.8 7.7,1.4 0.8,-3.9 3.6,-14.6 7.1,-25.8 5.8,-18 7.3,-24.1 7.3,-24.1 z"
   style="fill:#fad6b7"
   id="path93"
   inkscape:connector-curvature="0" />
	<path
   d="m 246,228.2 c 0.7,4.6 1.1,9.3 1,14 -0.1,5.6 3,8 3,8 v 5 c 8.4,7.1 26,2.1 26,2.1 v -6.1 c 1.2,-1.6 2.2,-3.3 2.9,-5.1 1,-3 1.7,-10.4 2.1,-18.5 0.1,-2.6 -2.9,-1 -3.7,-6.3 -0.8,-5.3 0.7,-8.1 0.7,-8.1 l -6.6,-2.4 -11.3,-4.9 z"
   style="fill:#1e88e5"
   id="path95"
   inkscape:connector-curvature="0" />
	<path
   d="m 269.1,357.6 c -4.6,-24.7 -4.1,-27 -4.1,-27 11.4,-5 14,5.4 14,5.4 v 5 c 0,0 0,8 -0.1,11.3 -0.4,9.7 -0.9,26.7 -0.9,27.7 0,1 1.7,2.6 2.5,3 2.2,1.1 4.1,-1 1.7,4.7 -3.6,-0.6 -7.3,0 -10.5,1.7 -0.3,-1.3 -0.4,-2.6 -0.4,-3.9 0,-0.8 0,-1.6 0.3,-2.4 1.4,-6.4 -1.4,-19.8 -2.5,-25.5 z"
   style="fill:#fad6b7"
   id="path97"
   inkscape:connector-curvature="0" />
	<path
   d="m 250,254.9 c -5.7,8.6 -9,8.6 -22.5,15.9 -25,13.6 -31.2,29 -32.7,35.1 -0.4,1.5 -0.8,3.7 -0.8,3.7 0.3,-1.6 1.6,-3.7 6,-3.7 8.3,0 16.5,2.4 27.5,9.6 9.5,6.3 17.5,14.5 25.5,14.5 23.8,-0.1 26,6 26,6 0,0 3,-28 3,-43 0,-12 0.4,-24.2 -6,-36 -2.1,-3.9 -7.7,0 -12.6,-0.2 -5.2,-0.3 -11.4,-4.7 -13.4,-1.9 z"
   style="fill:#1e88e5"
   id="path99"
   inkscape:connector-curvature="0" />
	<path
   d="m 250,250 v 5 c 0,0 2,5 13,5 8.7,0 13,-3 13,-3 v -6 c 0,0 -2.5,3 -14.4,3 -7.6,0 -11.6,-4 -11.6,-4 z"
   style="fill:#1976d2"
   id="path101"
   inkscape:connector-curvature="0" />
	<path
   d="m 303.8,207.5 c -4,-8 -13.6,-18.6 -14.8,-19.5 l -3.6,2.4 c 2.1,5.9 9.6,18.9 9.6,20.2 0,1.3 -0.9,1.2 -1.2,1.4 l -16.2,1 c 0,0 -4.2,2.2 -2,11 1,4 3.3,5 5,5 3.7,0 18.5,-6 21.9,-9.9 2.8,-3.2 3.3,-7.8 1.3,-11.6 z"
   style="fill:#42a5f5"
   id="path103"
   inkscape:connector-curvature="0" />
	<path
   d="m 277.6,186.4 -17.2,-2.7 c -6.9,0.2 -12.9,4.8 -14.9,11.4 -2.8,8.4 -2.5,9.9 -8.1,12.5 -5.6,2.6 -10.4,4.1 -12.4,10.4 -2.5,7.8 0.1,13.9 2,19 0.6,1.6 0.9,3.3 1,5 0,3.5 -2,6.8 -2,8.6 0,1 0.6,1.4 2,1.4 14,0 14.6,-12.1 21.5,-14.5 18.5,-6.5 20.3,-14.8 23.5,-20.5 1.7,-3.1 5,-9 5,-21 0.1,-3.2 -0.1,-6.4 -0.4,-9.6 z"
   style="fill:#6d4c41"
   id="path105"
   inkscape:connector-curvature="0" />
	<path
   d="m 284.5,188.1 c 0,0 2.2,3 -2.8,7.2 -2.9,2.5 -8.3,3.7 -13.4,3.7 -17.2,0 -24.4,-8 -24.4,-13.9 0,-5.9 6.5,-8.9 15.3,-7.9 l 23.1,8.4 z"
   style="fill:#ea244a"
   id="path107"
   inkscape:connector-curvature="0" />
	<path
   d="m 276,177.3 c -1.9,-2.5 -4.8,-5.3 -11.6,-5.3 -6.3,0 -10.8,4.9 -12.6,8 -0.5,0.9 -4.1,7.5 8.9,10.3 10,2.2 17.5,-1.8 18.3,-3.2 0.8,-1.4 -0.3,-6.1 -3,-9.8 z"
   style="fill:#ef2e4a"
   id="path109"
   inkscape:connector-curvature="0" />
	<path
   d="m 229.1,378 c 0,0 -0.1,-8 4.9,-8 4.3,0 4,4.5 4,4.6 -0.1,1.9 -0.5,3.7 -1.2,5.5 z"
   style="fill:#ef2e4a"
   id="path111"
   inkscape:connector-curvature="0" />
	<path
   d="m 276.9,183.5 c -0.5,0.7 -0.7,1.3 -0.6,2.1 -1.2,0.8 -4.7,2.4 -9.6,2.4 -1.7,0 -3.5,-0.2 -5.3,-0.6 -3,-0.7 -4.8,-1.5 -5.8,-2.2 -0.2,-0.1 -3.2,-1.8 -3.5,-5.5 -0.1,0.1 -0.1,0.2 -0.2,0.3 -0.5,0.9 -4.1,7.5 8.9,10.3 2.1,0.5 4.1,0.7 5.9,0.7 6.9,0 11.7,-2.7 12.4,-3.8 0.2,-0.4 0.3,-0.9 0.3,-1.6 0,-0.4 0.8,-1.1 2,-1.9 -1.6,0.1 -3.1,0 -4.5,-0.2 z"
   style="fill:#bbdefb"
   id="path113"
   inkscape:connector-curvature="0" />
	<path
   d="m 285.4,184 c -1.3,-1.3 -1.5,-4 -6.9,-4 -5.1,0 -5.5,1.9 -5.5,4 0,2.1 3.1,3 6,3 3.2,0 4.3,0.5 5.2,1.4 0.4,0.6 0.8,1.3 1.2,1.9 1.2,-0.8 3.6,-2.4 3.6,-2.4 0,0 -2.9,-3.2 -3.6,-3.9 z"
   style="fill:#fad6b7"
   id="path115"
   inkscape:connector-curvature="0" />
	<path
   d="m 257,188 c 0,0 -6.5,-0.5 -17.7,8.1 -3.9,2.9 -7,3.9 -9.8,3.9 -6.2,0 -10.1,-5 -17,-5 -9.8,0 -12.5,5 -12.5,5 l 2,10 c 2.7,-3.1 6.7,-4.9 10.8,-5 3.9,0 11,5.3 18.6,4.6 3.9,-0.4 5.9,-5.3 11.2,-10.3 4.5,-4.1 9.3,-7.9 14.4,-11.3 z"
   style="fill:#90caf9"
   id="path117"
   inkscape:connector-curvature="0" />
	<path
   d="m 257,188 c 0,0 -7.8,0 -18.1,14.6 -2.7,3.9 -5.9,5.4 -8.9,5.4 -5.4,0.1 -12,-4 -12,-4 l -5,10 c 0,0 7.8,5 15.6,5 8.8,0 13.7,-4 16.6,-12 5,-13.4 11.8,-19 11.8,-19 z"
   style="fill:#c9e5fc"
   id="path119"
   inkscape:connector-curvature="0" />
	
		<linearGradient
   id="SVGID_6_"
   gradientUnits="userSpaceOnUse"
   x1="108.3221"
   y1="1386.7474"
   x2="253.38969"
   y2="1290.1119"
   gradientTransform="translate(0,-912)">
		<stop
   offset="0"
   style="stop-color:#FFFFFF;stop-opacity:0"
   id="stop121" />
		<stop
   offset="1"
   style="stop-color:#1D1D1B;stop-opacity:0.1"
   id="stop123" />
	</linearGradient>
	<path
   d="m 227.3,387 8.9,2.4 -27,16.7 c 3,1.1 9.9,5.4 9.9,5.4 l 52.2,-22.8 15.5,-0.5 -56.8,30.2 c 0,0 11.1,5.7 12,8.6 l -35.7,19 -69.3,8 21.7,-54 c 3.3,-2.3 6.6,-4.6 8.6,-5.7 9.2,-5.3 31.5,5.5 31.5,5.5 0,0 12.8,-5 28.5,-12.8 z"
   style="fill:url(#SVGID_6_)"
   id="path126"
   inkscape:connector-curvature="0" />
	<path
   d="m 229.1,377.9 c 0.1,-2.2 1.9,-3.9 4.1,-3.9 2,-0.1 3.7,1.6 3.8,3.6 0,0.1 0,0.3 0,0.4 -0.1,1.5 -0.3,3 -0.6,4.4 -0.4,2.1 0.3,3.2 0.6,4.3 0.2,0.9 -0.1,1.8 -0.6,2.6 -0.6,0.6 -3.2,0.7 -7.3,0.5 -1.1,-0.2 -1.9,-1.2 -2,-2.3 0,-0.4 0.1,-0.8 0.2,-1.1 0.8,-2.7 1.5,-5.6 1.8,-8.5 z"
   style="fill:#af1738"
   id="path128"
   inkscape:connector-curvature="0" />
	<path
   d="m 285.9,383.5 -5.3,-0.5 c 0,0 3,0.8 1.3,3.1 -0.8,0.7 -1.8,1 -2.9,1 -2.9,-0.1 -3.3,-3 -7.6,-3 -0.3,0 -0.8,3.3 -0.1,6.3 0.2,1 1.1,1.7 2.8,1.7 1.5,-0.2 2.9,-0.6 4.3,-1.1 2.8,-0.7 5.5,-1.6 8.2,-2.6 2.7,-1.3 3.9,-4.4 -0.7,-4.9 z"
   style="fill:#ef2e4a"
   id="path130"
   inkscape:connector-curvature="0" />
</g>
</svg>