<?xml version="1.0" encoding="UTF-8" standalone="no"?>
<!-- Generator: Adobe Illustrator 22.1.0, SVG Export Plug-In . SVG Version: 6.00 Build 0)  -->

<svg
   xmlns:dc="http://purl.org/dc/elements/1.1/"
   xmlns:cc="http://creativecommons.org/ns#"
   xmlns:rdf="http://www.w3.org/1999/02/22-rdf-syntax-ns#"
   xmlns:svg="http://www.w3.org/2000/svg"
   xmlns="http://www.w3.org/2000/svg"
   xmlns:sodipodi="http://sodipodi.sourceforge.net/DTD/sodipodi-0.dtd"
   xmlns:inkscape="http://www.inkscape.org/namespaces/inkscape"
   version="1.1"
   id="Layer_14"
   x="0px"
   y="0px"
   viewBox="0 0 800 600"
   style="enable-background:new 0 0 800 600;"
   xml:space="preserve"
   sodipodi:docname="403_1.svg"
   inkscape:version="0.92.4 (5da689c313, 2019-01-14)"><metadata
   id="metadata380"><rdf:RDF><cc:Work
       rdf:about=""><dc:format>image/svg+xml</dc:format><dc:type
         rdf:resource="http://purl.org/dc/dcmitype/StillImage" /></cc:Work></rdf:RDF></metadata><defs
   id="defs378" /><sodipodi:namedview
   pagecolor="#ffffff"
   bordercolor="#666666"
   borderopacity="1"
   objecttolerance="10"
   gridtolerance="10"
   guidetolerance="10"
   inkscape:pageopacity="0"
   inkscape:pageshadow="2"
   inkscape:window-width="1920"
   inkscape:window-height="1017"
   id="namedview376"
   showgrid="false"
   inkscape:zoom="1.1125147"
   inkscape:cx="462.72415"
   inkscape:cy="-204.22385"
   inkscape:window-x="-8"
   inkscape:window-y="-8"
   inkscape:window-maximized="1"
   inkscape:current-layer="Layer_14" />
<rect
   style="fill:#FFFFFF;"
   width="800"
   height="600"
   id="rect2" />
<g
   id="g373"
   transform="matrix(1,0,0,0.70868644,-58.890463,240.56268)">
	
		<radialGradient
   id="SVGID_1_"
   cx="6205.7129"
   cy="1423.3481"
   r="264.28659"
   gradientTransform="matrix(-1.339,0,0,0.9485,8709.4492,-1040.6017)"
   gradientUnits="userSpaceOnUse">
		<stop
   offset="0"
   style="stop-color:#E0E0E0"
   id="stop4" />
		<stop
   offset="1"
   style="stop-color:#FFFFFF"
   id="stop6" />
	</radialGradient>
	<polygon
   style="fill:url(#SVGID_1_)"
   points="0,563 0,102.5 800,102.5 800,563 "
   id="polygon9" />
	<rect
   y="91"
   style="fill:#ffffff"
   width="800"
   height="309"
   id="rect11"
   x="0" />
	<rect
   style="fill:#ffffff"
   width="800"
   height="600"
   id="rect13"
   x="0"
   y="0" />
	<g
   id="g121">
		<g
   id="g24">
			
				<linearGradient
   id="SVGID_2_"
   gradientUnits="userSpaceOnUse"
   x1="438.88351"
   y1="300.883"
   x2="525.73212"
   y2="451.30939"
   gradientTransform="matrix(1,0,0,-1,0,600)">
				<stop
   offset="0"
   style="stop-color:#FFFFFF"
   id="stop15" />
				<stop
   offset="0.5312"
   style="stop-color:#F9F9F9"
   id="stop17" />
				<stop
   offset="1"
   style="stop-color:#EEEEEE"
   id="stop19" />
			</linearGradient>
			<path
   style="fill:url(#SVGID_2_)"
   d="m 545.412,216.836 c -5.956,13.155 -11.735,26.51 -16.871,39.299 -7.376,-12.722 -21.108,-21.319 -36.847,-21.319 -23.537,0 -42.604,19.244 -42.604,42.792 0,0.932 0,2.052 0.188,2.995 -11.258,3.849 -20.875,11.214 -27.563,20.775 -10.238,-9.251 -16.904,-22.372 -17.647,-36.925 -1.287,-25.023 14.586,-46.53 36.902,-53.818 6.422,-2.097 10.837,-8.142 10.615,-14.885 -0.067,-2.163 0.022,-4.359 0.277,-6.589 2.418,-20.941 19.732,-37.402 40.773,-38.777 25.655,-1.686 46.986,18.634 46.986,43.935 0,2.451 -0.2,4.858 -0.588,7.21 -0.986,5.99 1.554,11.868 6.379,15.307 z"
   id="path22"
   inkscape:connector-curvature="0" />
		</g>
		<g
   id="g37">
			
				<linearGradient
   id="SVGID_3_"
   gradientUnits="userSpaceOnUse"
   x1="245.0233"
   y1="284.05701"
   x2="338.84061"
   y2="446.55341"
   gradientTransform="matrix(1,0,0,-1,0,600)">
				<stop
   offset="0"
   style="stop-color:#FFFFFF"
   id="stop26" />
				<stop
   offset="0.4129"
   style="stop-color:#F9F9F9"
   id="stop28" />
				<stop
   offset="0.9894"
   style="stop-color:#E6E6E6"
   id="stop30" />
				<stop
   offset="1"
   style="stop-color:#E6E6E6"
   id="stop32" />
			</linearGradient>
			<path
   style="fill:url(#SVGID_3_)"
   d="m 344.694,217.313 c -0.155,0.998 -0.277,2.019 -0.344,3.05 -0.067,0.987 -0.089,1.963 -0.077,2.928 0.133,8.175 -4.892,15.595 -12.423,18.79 -19.755,8.363 -33.331,28.44 -32.033,51.522 1.12,19.832 13.432,36.903 30.725,44.844 -5.369,1.431 -11.004,2.196 -16.793,2.196 h -25.944 c 1.187,-5.324 1.808,-10.859 1.808,-16.538 0,-29.061 -36.481,-106.36 -58.864,-151.049 7.498,-24.679 30.946,-42.504 58.332,-41.118 30.47,1.542 54.639,27.098 54.849,57.611 0.033,4.37 -0.433,8.585 -1.32,12.645 -1.166,5.247 -0.367,10.604 2.084,15.119 z"
   id="path35"
   inkscape:connector-curvature="0" />
		</g>
		<g
   id="g50">
			
				<linearGradient
   id="SVGID_4_"
   gradientUnits="userSpaceOnUse"
   x1="377.24261"
   y1="226.67799"
   x2="377.24261"
   y2="423.6362"
   gradientTransform="matrix(1,0,0,-1,0,600)">
				<stop
   offset="0"
   style="stop-color:#FFFFFF"
   id="stop39" />
				<stop
   offset="0.4129"
   style="stop-color:#F9F9F9"
   id="stop41" />
				<stop
   offset="0.9894"
   style="stop-color:#E6E6E6"
   id="stop43" />
				<stop
   offset="1"
   style="stop-color:#E6E6E6"
   id="stop45" />
			</linearGradient>
			<path
   style="fill:url(#SVGID_4_)"
   d="m 449.091,277.608 c 0,0.932 0,2.052 0.188,2.995 -21.862,7.476 -37.557,28.218 -37.557,52.509 0,9.628 2.44,18.701 6.743,26.598 -4.204,1.764 -8.796,2.729 -13.588,2.707 -9.361,-0.033 -17.857,-3.705 -24.169,-9.661 v 32.52 h -13.155 v -42.381 c -2.362,-0.555 -4.869,-0.666 -7.342,-0.299 -4.038,0.61 -8.231,0.754 -12.523,0.388 -25.844,-2.263 -46.409,-23.47 -47.873,-49.381 -1.298,-23.082 12.279,-43.159 32.033,-51.522 7.531,-3.194 12.556,-10.615 12.423,-18.79 -0.011,-0.965 0.011,-1.941 0.077,-2.928 1.187,-17.57 15.817,-31.579 33.42,-32.033 19.422,-0.51 35.328,15.096 35.328,34.407 0,1.386 -0.089,2.762 -0.244,4.115 -0.133,1.043 0.687,1.952 1.741,1.952 h 0.022 c 18.291,0 33.908,11.414 40.141,27.508 -3.602,6.278 -5.665,13.554 -5.665,21.296 z"
   id="path48"
   inkscape:connector-curvature="0" />
		</g>
		<g
   id="g63">
			
				<linearGradient
   id="SVGID_5_"
   gradientUnits="userSpaceOnUse"
   x1="221.03101"
   y1="199.98199"
   x2="221.03101"
   y2="460.11899"
   gradientTransform="matrix(1,0,0,-1,0,600)">
				<stop
   offset="0"
   style="stop-color:#FFFFFF"
   id="stop52" />
				<stop
   offset="0.4129"
   style="stop-color:#F9F9F9"
   id="stop54" />
				<stop
   offset="0.9894"
   style="stop-color:#E6E6E6"
   id="stop56" />
				<stop
   offset="1"
   style="stop-color:#E6E6E6"
   id="stop58" />
			</linearGradient>
			<path
   style="fill:url(#SVGID_5_)"
   d="m 289.612,324.105 c 0,41.927 -33.985,75.913 -75.913,75.913 -25.145,0 -47.44,-12.234 -61.249,-31.068 h 5.834 c 25.822,0 47.363,-20.553 47.651,-46.375 0.155,-14.741 -6.455,-27.929 -16.893,-36.681 -6.522,-5.457 -10.094,-13.743 -8.918,-22.173 0.266,-1.974 0.411,-4.004 0.388,-6.078 -0.077,-10.704 -4.159,-20.586 -10.837,-28.129 20.764,-46.042 44.024,-89.633 44.024,-89.633 0,0 75.913,142.297 75.913,184.224 z"
   id="path61"
   inkscape:connector-curvature="0" />
		</g>
		<g
   id="g76">
			
				<linearGradient
   id="SVGID_6_"
   gradientUnits="userSpaceOnUse"
   x1="131.9301"
   y1="218.864"
   x2="131.9301"
   y2="395.57129"
   gradientTransform="matrix(1,0,0,-1,0,600)">
				<stop
   offset="0"
   style="stop-color:#FFFFFF"
   id="stop65" />
				<stop
   offset="0.2987"
   style="stop-color:#F9F9F9"
   id="stop67" />
				<stop
   offset="0.7155"
   style="stop-color:#E6E6E6"
   id="stop69" />
				<stop
   offset="1"
   style="stop-color:#D6D6D6"
   id="stop71" />
			</linearGradient>
			<path
   style="fill:url(#SVGID_6_)"
   d="m 180.12,263.721 c 0.275,-1.979 0.411,-4.007 0.396,-6.081 -0.161,-22.476 -17.96,-41.295 -40.408,-42.432 -24.546,-1.243 -44.804,18.463 -44.804,42.738 0,0.01 0,0.02 0,0.03 0,1.788 -1.089,3.383 -2.746,4.057 -20.405,8.299 -34.746,28.386 -34.628,51.7 0.156,30.694 25.742,55.214 56.436,55.214 h 11.958 v 20.502 c 0,3 11.212,3.336 11.212,0.236 v -20.738 h 20.744 c 25.819,0 47.36,-20.55 47.648,-46.368 0.164,-14.744 -6.454,-27.935 -16.89,-36.683 -6.52,-5.464 -10.088,-13.748 -8.918,-22.175 z"
   id="path74"
   inkscape:connector-curvature="0" />
		</g>
		<g
   id="g89">
			
				<linearGradient
   id="SVGID_7_"
   gradientUnits="userSpaceOnUse"
   x1="590.14502"
   y1="205.81281"
   x2="590.14502"
   y2="482.104"
   gradientTransform="matrix(1,0,0,-1,0,600)">
				<stop
   offset="0"
   style="stop-color:#FFFFFF"
   id="stop78" />
				<stop
   offset="0.4129"
   style="stop-color:#F9F9F9"
   id="stop80" />
				<stop
   offset="0.9894"
   style="stop-color:#E6E6E6"
   id="stop82" />
				<stop
   offset="1"
   style="stop-color:#E6E6E6"
   id="stop84" />
			</linearGradient>
			<path
   style="fill:url(#SVGID_7_)"
   d="m 625.662,339.601 c 0,21.496 7.398,40.53 18.767,52.187 -24.43,1.896 -95.002,7.11 -110.342,-8.241 15.207,-7.764 25.633,-23.637 25.633,-41.839 0,-20.187 -12.711,-37.38 -30.458,-44.101 3.172,-5.978 5.047,-12.711 5.047,-19.999 0,-7.809 -2.097,-15.151 -5.768,-21.474 25.012,-62.347 65.497,-138.238 65.497,-138.238 0,0 32.909,61.682 57.711,119.515 -12.289,36.858 -26.087,82.546 -26.087,102.19 z"
   id="path87"
   inkscape:connector-curvature="0" />
		</g>
		<g
   id="g102">
			
				<linearGradient
   id="SVGID_8_"
   gradientUnits="userSpaceOnUse"
   x1="670.61603"
   y1="206.185"
   x2="670.61603"
   y2="416.229"
   gradientTransform="matrix(1,0,0,-1,0,600)">
				<stop
   offset="0"
   style="stop-color:#FFFFFF"
   id="stop91" />
				<stop
   offset="0.2987"
   style="stop-color:#F9F9F9"
   id="stop93" />
				<stop
   offset="0.7155"
   style="stop-color:#E6E6E6"
   id="stop95" />
				<stop
   offset="1"
   style="stop-color:#D6D6D6"
   id="stop97" />
			</linearGradient>
			<path
   style="fill:url(#SVGID_8_)"
   d="m 715.567,339.6 c 0,35.465 -20.125,54.215 -44.951,54.215 -24.826,0 -44.951,-18.75 -44.951,-54.215 0,-35.465 44.951,-155.829 44.951,-155.829 0,0 44.951,120.364 44.951,155.829 z"
   id="path100"
   inkscape:connector-curvature="0" />
		</g>
		<g
   id="g115">
			
				<linearGradient
   id="SVGID_9_"
   gradientUnits="userSpaceOnUse"
   x1="485.72"
   y1="202.229"
   x2="485.72"
   y2="365.18399"
   gradientTransform="matrix(1,0,0,-1,0,600)">
				<stop
   offset="0"
   style="stop-color:#FFFFFF"
   id="stop104" />
				<stop
   offset="0.2987"
   style="stop-color:#F9F9F9"
   id="stop106" />
				<stop
   offset="0.7155"
   style="stop-color:#E6E6E6"
   id="stop108" />
				<stop
   offset="1"
   style="stop-color:#D6D6D6"
   id="stop110" />
			</linearGradient>
			<path
   style="fill:url(#SVGID_9_)"
   d="m 529.261,297.604 c 3.177,-5.98 5.045,-12.707 5.045,-19.995 0,-23.546 -19.061,-42.793 -42.607,-42.793 -23.546,0 -42.606,19.248 -42.606,42.793 0,0.934 0,2.056 0.187,2.99 -21.864,7.475 -37.561,28.217 -37.561,52.511 0,30.647 24.667,55.501 55.314,55.501 h 13.081 v 3.554 c 0,3.177 2.429,5.606 5.606,5.606 3.177,0 5.606,-2.616 5.606,-5.606 v -3.554 h 21.677 c 25.788,0 46.718,-21.116 46.718,-46.905 0,-20.183 -12.708,-37.375 -30.46,-44.102 z"
   id="path113"
   inkscape:connector-curvature="0" />
		</g>
		<g
   id="g119">
			<path
   style="fill:#ffffff"
   d="m 67.684,400 c 0,0 22.525,-37.958 54.54,-31.289 2.747,-12.778 14.104,-22.358 27.703,-22.358 13.112,0 24.139,8.906 27.375,20.997 3.258,-2.373 7.256,-3.789 11.595,-3.789 3.499,0 6.78,0.919 9.629,2.516 0.279,-19.884 16.476,-35.919 36.426,-35.919 6.13,0 11.902,1.521 16.972,4.195 5.495,-13.162 18.485,-22.414 33.639,-22.414 20.125,0 36.44,16.315 36.44,36.44 0,3.072 -0.385,6.054 -1.1,8.904 6.627,-9.076 17.343,-14.978 29.442,-14.978 2.814,0 5.55,0.33 8.182,0.934 5.025,-14.111 18.496,-24.214 34.331,-24.214 18.23,0 33.333,13.387 36.015,30.866 5.226,-2.895 11.234,-4.549 17.632,-4.549 7.741,0 14.913,2.421 20.816,6.538 6.232,-11.145 18.143,-18.684 31.819,-18.684 13.449,0 25.188,7.291 31.501,18.131 2.573,-1.228 5.441,-1.936 8.481,-1.936 7.798,0 14.52,4.534 17.726,11.099 1.28,-0.621 2.633,-1.109 4.05,-1.443 3.306,-11.985 14.28,-20.79 27.316,-20.79 13.028,0 23.995,8.793 27.31,20.766 0.244,-0.273 0.48,-0.554 0.739,-0.813 -1.764,-4.279 -2.744,-8.964 -2.744,-13.88 0,-20.125 16.314,-36.44 36.44,-36.44 20.125,0 36.44,16.315 36.44,36.44 0,2.088 -0.185,4.132 -0.522,6.124 10.435,0.522 18.742,9.123 18.742,19.688 0,3.853 37.453,9.11 37.452,29.86 H 67.684 Z"
   id="path117"
   inkscape:connector-curvature="0" />
		</g>
	</g>
	<g
   id="g225">
		
			<line
   style="fill:none;stroke:#999999;stroke-width:2;stroke-linecap:round;stroke-miterlimit:10"
   x1="309.452"
   y1="227.869"
   x2="261.37"
   y2="125.507"
   id="line123" />
		
			<line
   style="fill:none;stroke:#999999;stroke-width:2;stroke-linecap:round;stroke-miterlimit:10"
   x1="308.548"
   y1="226.731"
   x2="259.14801"
   y2="148.183"
   id="line125" />
		
			<line
   style="fill:none;stroke:#bdbdbd;stroke-width:2;stroke-linecap:round;stroke-miterlimit:10"
   x1="297.04599"
   y1="239.774"
   x2="238.786"
   y2="159.084"
   id="line127" />
		
			<line
   style="fill:none;stroke:#999999;stroke-width:2;stroke-linecap:round;stroke-miterlimit:10"
   x1="349.70999"
   y1="207.39999"
   x2="356.29599"
   y2="131.5"
   id="line129" />
		<path
   style="fill:#bf360c"
   d="m 283.756,144.206 c -9.518,2.808 -43.612,16.675 -43.612,16.675 L 222.867,157.308 215,150 c -5.817,-9.682 -4,-15 -9.439,-21.223 0.003,-0.063 0.006,-0.125 0.007,-0.196 0.074,-1.734 0.218,-3.245 0.401,-4.474 26.481,-40.055 77.787,20.099 77.787,20.099 z"
   id="path131"
   inkscape:connector-curvature="0" />
		<path
   style="fill:#99220e"
   d="m 317.052,123.651 c 0,0 27.269,5.855 39.243,11.858 l 12.167,-13.751 c 0,0 -12.38,-15.258 -51.41,1.893 z"
   id="path133"
   inkscape:connector-curvature="0" />
		
			<line
   style="fill:none;stroke:#bdbdbd;stroke-width:2;stroke-linecap:round;stroke-miterlimit:10"
   x1="331.43799"
   y1="211.75"
   x2="290.922"
   y2="153.32201"
   id="line135" />
		
			<line
   style="fill:none;stroke:#bdbdbd;stroke-width:2;stroke-linecap:round;stroke-miterlimit:10"
   x1="331.43799"
   y1="211.75"
   x2="296.14001"
   y2="122.825"
   id="line137" />
		
			<line
   style="fill:none;stroke:#bdbdbd;stroke-width:2;stroke-linecap:round;stroke-miterlimit:10"
   x1="331.43799"
   y1="211.75"
   x2="324.10901"
   y2="126.77"
   id="line139" />
		
			<line
   style="fill:none;stroke:#999999;stroke-width:2;stroke-linecap:round;stroke-miterlimit:10"
   x1="349.70999"
   y1="207.39999"
   x2="367.448"
   y2="119.543"
   id="line141" />
		
			<line
   style="fill:none;stroke:#999999;stroke-width:2;stroke-linecap:round;stroke-miterlimit:10"
   x1="349.70999"
   y1="207.39999"
   x2="342.75699"
   y2="122.82"
   id="line143" />
		
			<line
   style="fill:none;stroke:#bdbdbd;stroke-width:2;stroke-linecap:round;stroke-miterlimit:10"
   x1="297.04599"
   y1="239.774"
   x2="213.44299"
   y2="168.79201"
   id="line145" />
		
			<line
   style="fill:none;stroke:#bdbdbd;stroke-width:2;stroke-linecap:round;stroke-miterlimit:10"
   x1="297.04599"
   y1="239.774"
   x2="221.25"
   y2="157.308"
   id="line147" />
		
			<line
   style="fill:none;stroke:#999999;stroke-width:2;stroke-linecap:round;stroke-miterlimit:10"
   x1="309.452"
   y1="227.869"
   x2="280.69299"
   y2="137.30299"
   id="line149" />
		<path
   style="fill:#d84315"
   d="m 216.725,116.276 c -1.775,27.152 6.142,41.032 6.142,41.032 l -9.425,13.246 c -6.965,-9.673 -8.319,-31.268 -7.881,-41.778 0.003,-0.063 0.006,-0.125 0.007,-0.196 0.074,-1.734 3.248,-8.352 3.431,-9.58 26.482,-40.054 7.726,-2.724 7.726,-2.724 z"
   id="path151"
   inkscape:connector-curvature="0" />
		<path
   style="fill:#d84315"
   d="M 368.462,121.758 C 366,113 362.183,100.818 356,102 c -22.103,4.224 -54.344,35.303 -54.344,35.303 0,0 -58.656,-41.303 -75.259,-44.535 18.757,-14.382 57.709,-28.12 75.328,-31.733 17.618,-3.613 37.375,3.412 57.943,22.928 20.566,19.507 8.794,37.795 8.794,37.795 z"
   id="path153"
   inkscape:connector-curvature="0" />
		<path
   style="fill:#bf360c"
   d="m 368.462,121.758 c -20.314,0.355 -66.807,15.545 -66.807,15.545 0,0 27.438,-36.825 58.069,-41.465 5.6,-0.848 10.869,2.989 11.753,8.586 1.605,10.157 -3.015,17.334 -3.015,17.334 z"
   id="path155"
   inkscape:connector-curvature="0" />
		<path
   style="fill:#e64a19"
   d="m 301.656,137.303 -5.79,23.579 c -1.289,-0.777 -42.254,-34.111 -67.823,-41.338 -4.438,-1.255 -14.267,-1.165 -18.227,2.854 -2.182,2.215 -4.077,4.566 -4.247,6.183 0.074,-1.734 0.218,-3.245 0.401,-4.474 1.321,-8.653 1.669,-16.964 20.428,-31.338 18.757,-14.382 29.187,-8.558 49.755,10.957 20.565,19.506 25.503,33.577 25.503,33.577 z"
   id="path157"
   inkscape:connector-curvature="0" />
		<path
   style="fill:#424242"
   d="m 370.704,389.122 -5.502,3.292 c 0,0 -2.965,1.775 -1.433,4.73 2.355,4.544 2.446,7.716 2.5,9.531 0.083,2.833 4.397,5.748 4.397,5.748 0,0 1.753,-2.082 1.48,-7.671 -0.23,-7.771 2.77,-10.002 2.77,-10.002 z"
   id="path159"
   inkscape:connector-curvature="0" />
		<path
   style="fill:#424242"
   d="m 413.609,358.26 0.988,5.855 c 0,0 0.593,3.511 3.599,2.829 1.813,-0.411 3.862,-2.278 7.6,-2.791 6.625,-0.908 8.202,-3.966 8.202,-3.966 0,0 -2.123,-2.313 -7.481,-1.521 -6.651,0.983 -6.144,-1.941 -6.144,-1.941 z"
   id="path161"
   inkscape:connector-curvature="0" />
		<path
   style="fill:#283593"
   d="m 420.953,357.887 c 0,0 -2.257,-39.916 -13.613,-42.525 -11.356,-2.609 -40.375,19.886 -40.375,19.886 l 14.415,24.244 c 6.739,-11.073 18.375,-28.526 21.487,-30.293 0,0 -1.506,5.915 10.562,30.212 z"
   id="path163"
   inkscape:connector-curvature="0" />
		<g
   id="g167">
			<path
   style="fill:#bdbdbd"
   d="m 351.138,245.539 c -0.243,0 -0.487,-0.103 -0.657,-0.303 l -17.043,-20.041 0.429,1.183 c 0.163,0.447 -0.068,0.942 -0.515,1.104 -0.451,0.163 -0.941,-0.068 -1.104,-0.516 l -2.064,-5.683 c -0.143,-0.392 0.016,-0.83 0.376,-1.04 0.361,-0.211 0.821,-0.13 1.09,0.187 l 20.144,23.688 c 0.308,0.363 0.264,0.907 -0.098,1.215 -0.161,0.138 -0.36,0.206 -0.558,0.206 z"
   id="path165"
   inkscape:connector-curvature="0" />
		</g>
		<g
   id="g171">
			<path
   style="fill:#bf360c"
   d="m 380.353,285.352 c -0.341,0 -0.664,-0.204 -0.8,-0.54 l -7.235,-17.924 c -0.178,-0.441 0.035,-0.944 0.477,-1.122 0.437,-0.176 0.944,0.035 1.122,0.476 l 7.235,17.924 c 0.178,0.441 -0.035,0.944 -0.477,1.122 -0.105,0.044 -0.214,0.064 -0.322,0.064 z"
   id="path169"
   inkscape:connector-curvature="0" />
		</g>
		<g
   id="g175">
			<path
   style="fill:#bf360c"
   d="m 342.831,293.552 c -0.411,0.05 -0.84,-0.099 -1.132,-0.435 l -46.188,-53.131 c -0.468,-0.539 -0.412,-1.355 0.128,-1.824 0.539,-0.468 1.354,-0.412 1.824,0.128 l 46.188,53.131 c 0.468,0.539 0.412,1.355 -0.128,1.824 -0.203,0.176 -0.444,0.277 -0.692,0.307 z"
   id="path173"
   inkscape:connector-curvature="0" />
		</g>
		<g
   id="g179">
			<path
   style="fill:#bf360c"
   d="m 339.038,292.356 c -0.481,-0.007 -0.94,-0.283 -1.156,-0.75 l -29.939,-64.631 c -0.3,-0.648 -0.018,-1.416 0.63,-1.716 0.645,-0.299 1.415,-0.018 1.717,0.63 l 29.939,64.631 c 0.3,0.648 0.018,1.416 -0.63,1.716 -0.182,0.084 -0.374,0.123 -0.561,0.12 z"
   id="path177"
   inkscape:connector-curvature="0" />
		</g>
		<path
   style="fill:#3949ab"
   d="m 374.358,395.631 c 0,0 35.687,-18.022 33.54,-29.474 -2.147,-11.452 -34.366,-29.061 -34.366,-29.061 0,0 -2.863,-30.061 -13.599,-44.376 -10.736,-14.315 -17.843,-17.996 -22.809,-13.878 -6.062,5.027 -0.936,11.63 2.053,31.056 1.431,9.305 3.579,14.315 3.579,26.483 0,4.354 -1.431,21.472 14.315,23.62 12.844,1.751 33.493,5.442 36.356,7.589 0,0 -6.024,0.983 -23.472,21.757 z"
   id="path181"
   inkscape:connector-curvature="0" />
		<path
   style="fill:#fad6b7"
   d="m 359.551,265.483 c 0,0 1.917,10.173 0.853,15.257 -1.064,5.084 -14.048,-5.91 -14.048,-5.91 l 0.488,-10.701 z"
   id="path183"
   inkscape:connector-curvature="0" />
		<path
   style="fill:#424242"
   d="m 361.433,266.221 c 0,0 -2.392,-12.285 -12.45,-13.962 -10.058,-1.677 -18.073,6.071 -17.028,14.65 1.045,8.579 5.169,11.932 5.169,11.932 0,0 8.048,0.969 11.044,3.507 2.997,2.537 10.104,9.411 10.104,9.411 0,0 5.296,-0.645 5.25,-8.379 l -6.992,-5.92 -0.278,-9.64 c 0,0 3.415,-1.384 5.181,-1.599 z"
   id="path185"
   inkscape:connector-curvature="0" />
		<path
   style="fill:#f9a825"
   d="m 343.056,279.821 -15.79,21.415 c 0,0 -3.181,-20.027 9.857,-22.395 z"
   id="path187"
   inkscape:connector-curvature="0" />
		<path
   style="fill:#f9a825"
   d="m 323.162,301.236 c 0,0 -3.055,2.88 -5.065,10.392 -0.998,3.731 -8.061,20.991 -7.557,23.846 0.504,2.855 1.343,4.534 1.343,4.534 l 8.223,-4.702 c 0.001,0 6.287,-30.524 3.056,-34.07 z"
   id="path189"
   inkscape:connector-curvature="0" />
		<path
   style="fill:#5c6bc0"
   d="m 321.12,311.628 c 0,0 -3.023,3.862 -3.023,10.915 0,7.053 0,13.938 0,13.938 0,0 2.687,1.176 5.878,0 3.191,-1.176 8.9,-12.166 8.9,-12.166 l -6.056,-13.541 z"
   id="path191"
   inkscape:connector-curvature="0" />
		<path
   style="fill:#fbc02d"
   d="m 330.856,295.045 c 0,0 4.37,-6.087 8.904,9.698 4.534,15.785 11.587,30.059 9.068,31.739 -2.519,1.68 -12.549,4.994 -26.264,6.654 0,0 -0.783,-4.806 -0.674,-6.178 0.305,-3.827 4.267,-14.75 4.267,-14.75 0,0 -1.06,-7.557 -0.782,-10.579 h -4.256 c 10e-4,-0.001 1.835,-11.934 9.737,-16.584 z"
   id="path193"
   inkscape:connector-curvature="0" />
		<path
   style="fill:#fdd835"
   d="m 331.428,291.143 c 5.234,0 0.481,-0.064 3.803,5.691 0,0 -6.543,1.733 -9.855,14.794 h -4.256 c 0,0 1.14,-20.485 10.308,-20.485 z"
   id="path195"
   inkscape:connector-curvature="0" />
		<path
   style="fill:#fbc02d"
   d="m 331.809,298.991 c 0,0 3.43,-22.734 15.24,-22.734 8.589,0 16.853,10.713 17.753,30.301 0.744,16.192 -2.804,22.634 -15.621,26.835 l -2.001,-6.795 c 0,0 12.889,-2.708 11.108,-19.492 -1.552,-14.624 -5.512,-23.534 -11.208,-23.534 -4.326,0 -9.947,8.675 -9.398,15.189 -3.381,2.475 -5.873,0.23 -5.873,0.23 z"
   id="path197"
   inkscape:connector-curvature="0" />
		<path
   style="fill:#424242"
   d="m 378.835,276.388 c 0,0 -1.431,7.873 0,10.02 1.432,2.147 0,6.442 0,6.442 l 8.111,1.455 c 0,0 3.341,-7.896 1.194,-10.759 -2.148,-2.864 -5.727,-8.59 -9.305,-7.158 z"
   id="path199"
   inkscape:connector-curvature="0" />
		<path
   style="fill:#5c6bc0"
   d="m 347.765,289.417 c -3.132,1.335 -6.442,5.01 -0.716,13.599 5.726,8.589 20.333,16.462 23.912,16.462 3.579,0 12.168,-10.882 17.178,-26.629 l -10.02,-2.863 c 0,0 -9.049,11.598 -9.535,14.461 0,10e-4 -13.754,-18.042 -20.819,-15.03 z"
   id="path201"
   inkscape:connector-curvature="0" />
		<path
   style="fill:#fbc02d"
   d="m 356.323,324.863 7.893,7.654 c 0,0 0.176,1.108 -1.016,1.436 l -8.371,-7.052 z"
   id="path203"
   inkscape:connector-curvature="0" />
		<path
   style="fill:#ffab00"
   d="m 376.395,338.527 c 0,0 -5.726,-7.157 -11.452,-7.157 -5.726,0 -3.042,8.151 -2.132,13.963 0.885,5.657 1.417,11.446 -1.446,13.236 -2.503,1.564 -4.294,1.432 -4.294,1.432 0,0 7.369,4.361 15.746,2.863 0,0 0,-7.157 -2.863,-19.325 -1.16,-4.929 2.146,-5.728 6.441,-5.012 z"
   id="path205"
   inkscape:connector-curvature="0" />
		<path
   style="fill:#fbc02d"
   d="m 361.781,321.07 3.115,11.482 c 0,0 -0.452,1.127 -1.748,0.772 l -3.896,-11.187 z"
   id="path207"
   inkscape:connector-curvature="0" />
		<g
   id="g211">
			<path
   style="fill:#bf360c"
   d="m 348.239,285.079 c -0.009,0 -0.018,0 -0.027,0 -0.714,-0.014 -1.281,-0.605 -1.267,-1.319 l 1.555,-76.717 c 0.014,-0.705 0.591,-1.267 1.292,-1.267 0.009,0 0.018,0 0.027,0 0.714,0.014 1.281,0.605 1.267,1.319 l -1.555,76.717 c -0.014,0.705 -0.59,1.267 -1.292,1.267 z"
   id="path209"
   inkscape:connector-curvature="0" />
		</g>
		<g
   id="g215">
			<path
   style="fill:#bf360c"
   d="m 348.238,285.079 c -0.588,0 -1.12,-0.403 -1.258,-1 l -16.758,-71.955 c -0.162,-0.696 0.27,-1.391 0.966,-1.553 0.694,-0.165 1.391,0.271 1.552,0.966 l 16.758,71.955 c 0.162,0.696 -0.27,1.391 -0.966,1.553 -0.099,0.024 -0.197,0.034 -0.294,0.034 z"
   id="path213"
   inkscape:connector-curvature="0" />
		</g>
		<g
   id="g219">
			<path
   style="fill:#cccccc"
   d="m 373.118,267.428 c -0.22,0 -0.44,-0.084 -0.609,-0.251 L 332.45,227.283 c -0.337,-0.336 -0.338,-0.882 -0.003,-1.219 0.336,-0.337 0.882,-0.338 1.22,-0.003 l 40.059,39.894 c 0.337,0.336 0.338,0.882 0.003,1.219 -0.168,0.169 -0.39,0.254 -0.611,0.254 z"
   id="path217"
   inkscape:connector-curvature="0" />
		</g>
		<g
   id="g223">
			<path
   style="fill:#bf360c"
   d="m 388.859,288.591 c -0.263,0 -0.524,-0.12 -0.693,-0.348 l -15.741,-21.164 c -0.284,-0.382 -0.205,-0.922 0.178,-1.206 0.381,-0.285 0.922,-0.205 1.206,0.177 l 15.741,21.164 c 0.284,0.382 0.205,0.922 -0.178,1.206 -0.153,0.116 -0.334,0.171 -0.513,0.171 z"
   id="path221"
   inkscape:connector-curvature="0" />
		</g>
	</g>
	<g
   id="g295">
		<path
   style="fill:#dec270"
   d="m 464.801,347.428 c 0,0 -3.712,2.809 -3.203,3.917 0.509,1.108 4.076,-2.152 5.098,-1.903 1.021,0.25 -1.895,-2.014 -1.895,-2.014 z"
   id="path227"
   inkscape:connector-curvature="0" />
		<path
   style="fill:#dec270"
   d="m 470.633,356.464 c 0,0 -2.315,2.752 -1.766,3.338 0.549,0.586 3.661,-2.728 3.661,-2.728 z"
   id="path229"
   inkscape:connector-curvature="0" />
		<path
   style="fill:#dec270"
   d="m 474.926,361.414 c 0,0 -1.973,0.705 -2.364,1.92 -0.391,1.215 0.808,-0.731 2.913,-0.403 2.106,0.328 -0.549,-1.517 -0.549,-1.517 z"
   id="path231"
   inkscape:connector-curvature="0" />
		<path
   style="fill:#dec270"
   d="m 475.614,365.562 c 0,0 -2.595,0.678 -3.424,2.24 0,0 3.638,-0.522 4.61,-0.537 0.971,-0.015 -1.186,-1.703 -1.186,-1.703 z"
   id="path233"
   inkscape:connector-curvature="0" />
		<path
   style="fill:#dec270"
   d="m 477.246,369.303 c 0,0 -2.606,0.788 -2.075,1.696 0.531,0.908 2.685,-0.318 2.685,-0.318 0,0 1.454,-1.522 -0.61,-1.378 z"
   id="path235"
   inkscape:connector-curvature="0" />
		<path
   style="fill:#dec270"
   d="m 478.547,372.253 c 0,0 -5.161,3.923 -4.65,4.692 0.51,0.768 3.346,-0.288 5.755,-2.16 2.408,-1.874 -1.105,-2.532 -1.105,-2.532 z"
   id="path237"
   inkscape:connector-curvature="0" />
		<path
   style="fill:#dec270"
   d="m 480.487,377.362 c 0,0 -3.66,4.076 -2.806,5.088 0.854,1.012 5.538,-3.296 5.538,-3.296 z"
   id="path239"
   inkscape:connector-curvature="0" />
		<path
   style="fill:#dec270"
   d="m 485.659,381.447 c 0,0 -1.796,2.464 -1.448,3.166 0.348,0.702 2.881,-2.198 4.316,-1.639 1.435,0.559 -1.223,-2.4 -2.868,-1.527 z"
   id="path241"
   inkscape:connector-curvature="0" />
		<path
   style="fill:#ffccbc"
   d="m 463.196,345.363 c 0,0 2.532,2.727 2.742,4.676 0,0 0.164,1.894 1.197,3.102 0,0 3.332,2.639 4.008,4.111 0.676,1.472 2.936,0.944 2.936,0.944 0,0 -0.206,1.292 0.876,2.476 0,0 -0.315,2.93 1.102,5.998 1.417,3.068 4.353,9.865 4.353,9.865 0,0 -0.115,1.008 0.619,1.976 0.734,0.968 1.8,0.579 2.946,1.888 1.146,1.309 3.937,3.356 5.372,5.071 1.434,1.715 4.697,6.404 6.586,9.747 7.271,12.869 7.117,28.695 7.271,32.441 l 8.5,5.75 5.757,-22.365 -48.363,-68.557 -5.302,1.012 z"
   id="path243"
   inkscape:connector-curvature="0" />
		<path
   style="fill:#558b2f"
   d="m 493.173,432.407 c 1.026,0.943 16.604,0.143 24.288,2 0,0 -6.483,-23.062 -10.731,-28.927 0,0 -1.572,-0.199 -2.038,-0.655 -0.466,-0.456 1.039,-0.688 0.348,-2.035 -0.691,-1.347 -3.191,-4.066 -2.904,-4.959 0.287,-0.893 -0.047,-1.888 -0.674,-1.946 0,0 -0.351,-0.472 -0.204,-0.928 0.146,-0.456 -0.228,-3.09 -1.541,-2.578 0,0 -1.267,-1.197 -1.1,-1.718 0.167,-0.521 0.305,-1.841 -0.781,-2.262 0,0 0.137,-1.321 0.068,-1.774 -0.07,-0.453 -1.539,-0.351 -2.023,-1.081 -0.483,-0.73 -0.035,-1.232 -1.537,-2.146 -1.502,-0.914 -1.641,-1.821 -1.641,-1.821 0,0 -0.581,-1.767 -2.246,-1.728 0,0 -1.055,-1.632 -2.329,-1.467 0,0 -0.453,-1.941 -2.315,-2.181 0,0 0.079,-0.693 0.356,-1.107 0,0 -0.663,-1.29 -1.141,-1.588 0,0 -0.428,-1.574 -1.62,-1.886 0,0 -1.097,-1.502 -0.867,-2.218 0.23,-0.716 -0.47,-1.444 -1.209,-1.825 -0.739,-0.381 -1.03,-1.265 -0.821,-1.916 0.209,-0.651 -0.102,-1.469 -0.732,-1.744 -0.63,-0.274 -0.667,-1.723 -0.667,-1.723 0,0 0.335,-1.042 -0.665,-1.507 -1,-0.465 -1.802,-2.662 -1.678,-3.269 0,0 -2.59,-1.551 -2.276,-2.527 0,0 -1.948,-0.195 -2.541,-1.032 0,0 -0.102,-1.469 -0.927,-1.807 0,0 -0.023,-2.162 -1.65,-2.685 0,0 -0.693,-2.09 -1.778,-2.511 l 0.158,-1.386 c 0,0 -1.885,-0.391 -2.218,-1.144 0,0 -1.827,-0.531 -2.337,1.036 0,0 -1.829,-4.749 1.838,-5.718 3.667,-0.969 10.949,3.52 10.949,3.52 0,0 2.016,-0.426 3.207,1.299 1.19,1.725 2.954,4.172 2.954,4.172 0,0 1.025,1.404 0.03,2.829 -0.995,1.425 5.557,5.679 5.244,10.411 0,0 2.568,2.034 2.789,3.85 0,0 2.98,2.838 2.911,3.889 0,0 4.193,-0.934 4.823,5.041 0,0 5.001,2.816 5.505,4.589 0.504,1.773 11.736,7.347 12.733,10.079 0,0 4.802,3.955 5.137,5.135 0,0 8.401,3.594 9.419,8.209 0,0 4.641,1.216 6.157,6.339 1.517,5.122 7.79,8.865 8.616,10.472 0.825,1.607 5.445,5.641 1.989,6.255 0,0 1.247,3.277 3.506,6.687 2.259,3.41 7.548,4.987 9.842,11.854 0.623,1.865 8.203,7.289 7.561,9.287 0,0 8.025,3.235 8.356,8.381 0,0 -16.8,1.806 -29.391,-1.453 -5.715,-1.479 -14.953,-0.191 -19.166,1.418 -7.98,3.048 -15.305,1.941 -24.762,-0.629 -6.112,-1.661 -24.403,1.59 -25.827,0.426 -18.73,-15.297 -37.046,-44.433 -37.046,-44.433 z"
   id="path245"
   inkscape:connector-curvature="0" />
		<path
   style="fill:#424242"
   d="m 523.876,398.988 c 0,0 2.175,-0.728 3.084,0.706 0.909,1.434 1.69,3.797 1.747,4.329 0,0 -1.277,-0.468 -2.04,-1.112 -0.763,-0.645 -1.713,-1.064 -2.32,-1.659 -0.607,-0.595 -0.748,-0.869 -0.471,-2.264 z"
   id="path247"
   inkscape:connector-curvature="0" />
		<path
   style="fill:#fff9c4"
   d="m 471.022,352.053 c 0,0 -3.41,3.351 -3.492,4.584 -0.082,1.233 4.419,-2.777 4.419,-2.777 l 0.464,-1.444 z"
   id="path249"
   inkscape:connector-curvature="0" />
		<path
   style="fill:#fff9c4"
   d="m 475.099,355.818 c 0,0 -2.831,2.583 -2.394,3.835 l 4.109,-3.075 z"
   id="path251"
   inkscape:connector-curvature="0" />
		<path
   style="fill:#fff9c4"
   d="m 478.445,360.688 c 0,0 -2.393,1.758 -2.151,2.229 0.242,0.471 1.846,-0.931 2.816,-0.723 0.969,0.209 0.467,-1.544 -0.665,-1.506 z"
   id="path253"
   inkscape:connector-curvature="0" />
		<path
   style="fill:#fff9c4"
   d="m 479.777,363.918 c 0,0 -2.953,2.003 -2.663,2.569 0.29,0.566 3.395,-0.825 3.395,-0.825 0,0 1.418,-1.251 -0.732,-1.744 z"
   id="path255"
   inkscape:connector-curvature="0" />
		<path
   style="fill:#fff9c4"
   d="m 481.329,367.577 c 0,0 -2.853,2.26 -2.657,2.874 0.196,0.614 3.866,-1.049 3.866,-1.049 0,0 0.956,-1.945 -1.209,-1.825 z"
   id="path257"
   inkscape:connector-curvature="0" />
		<path
   style="fill:#fff9c4"
   d="m 483.405,371.62 c 0,0 -3.684,3.321 -3.339,4.118 0.345,0.796 4.959,-2.232 4.959,-2.232 0,0 0.919,-1.972 -1.62,-1.886 z"
   id="path259"
   inkscape:connector-curvature="0" />
		<path
   style="fill:#fff9c4"
   d="m 485.811,376.201 c 0,0 -3.565,4.923 -2.75,5.814 0.815,0.891 1.833,-2.813 5.065,-3.633 3.233,-0.821 -2.315,-2.181 -2.315,-2.181 z"
   id="path261"
   inkscape:connector-curvature="0" />
		<path
   style="fill:#fff9c4"
   d="m 490.456,379.849 c 0,0 -1.405,2.439 -0.911,2.834 0.494,0.395 2.131,-1.905 3.157,-1.106 1.026,0.798 0.42,-2.896 -2.246,-1.728 z"
   id="path263"
   inkscape:connector-curvature="0" />
		<path
   style="fill:#fff9c4"
   d="m 494.343,383.397 c 0,0 -1.815,1.977 -1.453,2.565 0.362,0.589 2.99,-0.419 2.99,-0.419 0,0 0.746,-2.398 -1.537,-2.146 z"
   id="path265"
   inkscape:connector-curvature="0" />
		<path
   style="fill:#fff9c4"
   d="m 497.834,388.398 c 0,0 -2.031,1.964 -1.812,2.507 0.219,0.543 2.593,-0.244 2.593,-0.244 0,0 2.001,-2.647 -0.781,-2.263 z"
   id="path267"
   inkscape:connector-curvature="0" />
		<path
   style="fill:#fff9c4"
   d="m 499.715,392.378 c 0,0 -1.733,2.226 -1.423,2.483 0.31,0.257 2.964,0.096 2.964,0.096 0,0 1.611,-2.853 -1.541,-2.579 z"
   id="path269"
   inkscape:connector-curvature="0" />
		<path
   style="fill:#fff9c4"
   d="m 467.593,346.857 c 0,0 -2.288,1.135 -1.972,2.159 0.316,1.024 4.593,-0.816 4.593,-0.816 z"
   id="path271"
   inkscape:connector-curvature="0" />
		<path
   style="fill:#dec270"
   d="m 421.827,398.256 c 0,0 -0.965,3.382 0.08,3.619 1.045,0.237 1.86,-0.203 1.86,-0.203 0,0 -0.022,-2.363 -1.94,-3.416 z"
   id="path273"
   inkscape:connector-curvature="0" />
		<path
   style="fill:#dec270"
   d="m 428.588,401.303 c 0,0 -0.755,-0.45 -1.83,1.912 -1.075,2.362 1.801,0.594 1.801,0.594 0,0 0.419,-1.803 0.029,-2.506 z"
   id="path275"
   inkscape:connector-curvature="0" />
		<path
   style="fill:#dec270"
   d="m 434.041,402.422 c 0,0 -1.894,1.369 -2.292,3.09 -0.399,1.722 2.159,0.139 2.159,0.139 0,0 0.763,-2.485 0.133,-3.229 z"
   id="path277"
   inkscape:connector-curvature="0" />
		<path
   style="fill:#dec270"
   d="m 440.544,400.509 c 0,0 -2.237,0.155 -4.026,4.55 -1.79,4.395 2.648,0.785 2.648,0.785 0,0 1.62,-4.264 1.378,-5.335 z"
   id="path279"
   inkscape:connector-curvature="0" />
		<path
   style="fill:#dec270"
   d="m 442.905,406.555 c 0,0 -1.648,0.933 -1.883,2.37 -0.236,1.437 2.01,0.186 2.01,0.186 0,0 0.389,-1.641 -0.127,-2.556 z"
   id="path281"
   inkscape:connector-curvature="0" />
		<path
   style="fill:#dec270"
   d="m 446.525,407.619 c 0,0 -1.262,0.655 -1.694,2.443 -0.433,1.788 1.341,0.544 1.341,0.544 0,0 0.969,-1.643 0.353,-2.987 z"
   id="path283"
   inkscape:connector-curvature="0" />
		<path
   style="fill:#dec270"
   d="m 465.674,412.434 c 0,0 -1.336,1.322 -1.749,3.17 -0.413,1.848 2.505,-0.273 2.505,-0.273 0,0 0.242,-2.77 -0.756,-2.897 z"
   id="path285"
   inkscape:connector-curvature="0" />
		<path
   style="fill:#dec270"
   d="m 471.647,413.674 c 0,0 -0.86,-0.743 -2.274,2.138 -1.413,2.881 2.299,0.606 2.299,0.606 0,0 0.741,-2.191 -0.025,-2.744 z"
   id="path287"
   inkscape:connector-curvature="0" />
		<path
   style="fill:#dec270"
   d="m 455.035,412.338 c 0,0 -0.728,-0.319 -1.714,1.477 -0.986,1.796 1.943,0.625 1.943,0.625 0,0 0.518,-1.712 -0.229,-2.102 z"
   id="path289"
   inkscape:connector-curvature="0" />
		<path
   style="fill:#7cb342"
   d="m 510.276,417.662 c 0,0 0.702,-6.317 -3.547,-12.182 0,0 -1.572,-0.199 -2.038,-0.655 -0.466,-0.456 1.039,-0.688 0.348,-2.035 -0.691,-1.347 -3.191,-4.066 -2.904,-4.959 0.287,-0.893 -0.047,-1.888 -0.674,-1.946 0,0 -0.351,-0.472 -0.204,-0.928 0.146,-0.456 -0.228,-3.09 -1.541,-2.578 0,0 -1.267,-1.197 -1.1,-1.718 0.167,-0.521 0.305,-1.841 -0.781,-2.262 0,0 0.137,-1.321 0.068,-1.774 -0.07,-0.453 -1.539,-0.351 -2.023,-1.081 -0.483,-0.73 -0.035,-1.232 -1.537,-2.146 -1.502,-0.914 -1.641,-1.821 -1.641,-1.821 0,0 -0.581,-1.767 -2.246,-1.728 0,0 -1.055,-1.632 -2.329,-1.467 0,0 -0.453,-1.941 -2.315,-2.181 0,0 0.079,-0.693 0.356,-1.107 0,0 -0.663,-1.29 -1.141,-1.588 0,0 -0.428,-1.574 -1.62,-1.886 0,0 -1.097,-1.502 -0.867,-2.218 0.23,-0.716 -0.47,-1.444 -1.209,-1.825 -0.739,-0.381 -1.03,-1.265 -0.821,-1.916 0.209,-0.651 -0.102,-1.469 -0.732,-1.744 -0.63,-0.274 -0.667,-1.723 -0.667,-1.723 0,0 0.335,-1.042 -0.665,-1.507 -1,-0.465 -1.802,-2.662 -1.678,-3.269 0,0 -2.59,-1.551 -2.276,-2.527 0,0 -1.948,-0.195 -2.541,-1.032 0,0 -0.102,-1.469 -0.927,-1.807 0,0 -0.023,-2.162 -1.65,-2.685 0,0 -0.693,-2.09 -1.778,-2.511 l 0.158,-1.386 c 0,0 -1.885,-0.391 -2.218,-1.144 0,0 -1.827,-0.531 -2.337,1.036 0,0 -1.829,-4.749 1.838,-5.718 3.667,-0.969 5.944,3.445 5.944,3.445 0,0 2.309,2.284 3.499,4.009 1.19,1.725 2.439,4.752 2.439,4.752 0,0 3.718,2.87 2.723,4.295 -0.995,1.425 2.053,1.227 2.51,3.68 0,0 1.474,2.696 1.696,4.512 0,0 2.456,2.589 2.386,3.64 0,0 1.508,0.933 2.103,4.096 0,0 2.189,1.436 2.995,3.015 l 0.029,2.472 c 2.276,1.005 4.324,2.35 5.136,2.746 0.812,0.395 2.705,2.648 2.635,4.75 0,0 1.063,0.342 2.249,1.334 0,0 0.602,2.382 0.164,3.746 0,0 2.923,-0.155 3.197,2.396 0,0 3.192,3.291 5.097,5.422 0,0 6.256,0.964 7.438,7.5 0,0 10.798,7.433 13.069,13.373 4.343,11.36 -1.519,15.29 0.74,18.701 -6.129,1.526 -13.703,0.025 -20.036,0.128 -7.289,0.119 6.033,-2.253 2.797,-7.466 z"
   id="path291"
   inkscape:connector-curvature="0" />
		<path
   style="fill:#689f38"
   d="m 528.249,433.691 c 3.452,2.195 5.068,3.556 -0.674,6.23 -6.608,3.078 -9.682,5.216 -16.732,6.276 -7.05,1.06 -23.703,-7.602 -25.301,-8.511 -5.027,-2.859 -27.416,-11.163 -27.416,-11.163 0,0 -14.918,-4.664 -20.949,-7.197 0,0 -6.027,-4.316 -8.45,-5.076 -2.423,-0.76 -6.545,-2.358 -8.544,-5.943 -1.999,-3.585 -2.377,-7.053 1.51,-7.623 3.886,-0.569 6.646,3.984 10.056,4.827 0,0 1.893,-0.449 2.904,0.655 0,0 1.434,-1.694 3.449,-1.023 2.015,0.671 1.345,2.686 2.117,3.088 0,0 1.885,-0.529 3.586,1.714 0,0 2.088,-0.146 3.763,1.856 0,0 1.52,-0.165 2.132,0.253 0.612,0.418 1.071,1.664 2.075,1.959 1.003,0.295 1.556,-0.574 2.497,-0.11 0.941,0.464 1.819,1.097 2.902,1.383 1.083,0.287 2.116,-0.635 3.253,-0.597 1.137,0.038 1.207,0.678 2.344,0.716 1.137,0.038 1.307,-0.628 2.542,-0.439 1.235,0.189 1.456,0.732 2.459,1.027 1.003,0.295 2.019,-0.786 3.225,-0.108 1.206,0.678 1.055,1.613 1.882,2.012 0.827,0.399 2.57,-0.672 3.795,-0.217 1.224,0.454 0.716,2.076 2.037,2.52 1.321,0.444 14.671,5.256 22.445,3.822 0,0 4.444,0.171 5.828,0.657 1.661,0.583 4.488,2.832 6.133,3.459 1.778,0.678 5.782,1.263 7.392,1.811 2.033,0.695 7.74,3.742 7.74,3.742 z"
   id="path293"
   inkscape:connector-curvature="0" />
	</g>
	<g
   id="g371">
		<path
   style="fill:#457c28"
   d="m 271.135,464.876 c 0,0 -7.54,1.414 -15.296,1.414 -4.068,0 -12.975,-2.176 -16.177,-1.755 -3.724,0.489 -10.978,2.934 -14.734,2.934 -8.621,0 -15.859,-2.934 -15.859,-2.934 0.319,-2.516 -0.728,-4.84 0,-7.457 0.369,-1.325 2.378,-2.927 2.834,-4.254 0.626,-1.82 -0.41,-4.297 0.355,-6.085 0.809,-1.89 3.426,-3.088 4.356,-4.896 0.859,-1.669 -0.366,-4.539 0.567,-6.099 0.846,-1.413 3.845,-1.528 4.73,-2.822 0.76,-1.11 0.591,-4.762 1.367,-5.765 1.221,-1.58 3.393,-0.426 4.611,-1.683 12.067,-12.444 42.366,0 42.366,0 0,0 4.103,15.828 0.88,39.402 z"
   id="path297"
   inkscape:connector-curvature="0" />
		<path
   style="fill:#517f2d"
   d="m 229.5,439.95 c 0,0 -2.361,10.55 -6,14.8 -2.443,2.853 5.185,12.719 1.429,12.719 -8.621,0 -15.859,-2.934 -15.859,-2.934 0.319,-2.516 -0.728,-4.84 0,-7.457 0.369,-1.325 2.378,-2.927 2.834,-4.254 0.626,-1.82 -0.41,-4.297 0.355,-6.085 0.809,-1.89 3.426,-3.088 4.356,-4.896 0.859,-1.669 -0.366,-4.539 0.567,-6.099 0.846,-1.413 3.845,-1.528 4.73,-2.822 0.76,-1.11 0.591,-4.762 1.367,-5.765 1.221,-1.58 3.393,-0.426 4.611,-1.683 12.067,-12.444 42.366,0 42.366,0 0,0 -37.533,-9.098 -40.756,14.476 z"
   id="path299"
   inkscape:connector-curvature="0" />
		<g
   id="g369">
			<path
   style="fill:#dec270"
   d="m 266.143,331.738 c 0,0 3.969,0.958 3.947,2.027 -0.022,1.069 -4.031,-0.303 -4.765,0.256 -0.734,0.559 0.818,-2.283 0.818,-2.283 z"
   id="path301"
   inkscape:connector-curvature="0" />
			<path
   style="fill:#dec270"
   d="m 264.618,341.046 c 0,0 2.825,1.402 2.589,2.065 -0.236,0.663 -3.899,-0.911 -3.899,-0.911 z"
   id="path303"
   inkscape:connector-curvature="0" />
			<path
   style="fill:#dec270"
   d="m 262.901,346.529 c 0,0 1.833,-0.125 2.573,0.715 0.74,0.84 -0.906,-0.305 -2.483,0.696 -1.578,1.002 -0.09,-1.411 -0.09,-1.411 z"
   id="path305"
   inkscape:connector-curvature="0" />
			<path
   style="fill:#dec270"
   d="m 263.801,350.105 c 0,0 2.324,-0.364 3.538,0.602 0,0 -3.108,0.855 -3.894,1.183 -0.787,0.327 0.356,-1.785 0.356,-1.785 z"
   id="path307"
   inkscape:connector-curvature="0" />
			<path
   style="fill:#dec270"
   d="m 263.799,353.684 c 0,0 2.372,-0.279 2.263,0.636 -0.109,0.916 -2.27,0.685 -2.27,0.685 0,0 -1.702,-0.714 0.007,-1.321 z"
   id="path309"
   inkscape:connector-curvature="0" />
			<path
   style="fill:#dec270"
   d="m 263.787,356.511 c 0,0 5.523,1.346 5.382,2.143 -0.141,0.797 -2.791,0.941 -5.383,0.279 -2.592,-0.662 10e-4,-2.422 10e-4,-2.422 z"
   id="path311"
   inkscape:connector-curvature="0" />
			<path
   style="fill:#dec270"
   d="m 264.016,361.299 c 0,0 4.371,1.995 4.038,3.108 -0.333,1.113 -5.607,-0.71 -5.607,-0.71 z"
   id="path313"
   inkscape:connector-curvature="0" />
			<path
   style="fill:#dec270"
   d="m 261.29,366.395 c 0,0 2.307,1.352 2.273,2.038 -0.033,0.686 -3.086,-0.758 -4.045,0.194 -0.957,0.951 0.143,-2.358 1.772,-2.232 z"
   id="path315"
   inkscape:connector-curvature="0" />
			<path
   style="fill:#ffccbc"
   d="m 266.709,329.516 c 0,0 -1.08,3.08 -0.566,4.72 0,0 0.532,1.58 0.124,2.913 0,0 -1.754,3.289 -1.783,4.709 -0.028,1.42 -2.03,1.788 -2.03,1.788 0,0 0.619,0.967 0.163,2.298 0,0 1.279,2.245 1.215,5.208 -0.065,2.963 -0.044,9.456 -0.044,9.456 0,0 0.446,0.77 0.194,1.805 -0.252,1.035 -1.244,1.096 -1.707,2.55 -0.463,1.454 -1.99,4.077 -2.542,5.959 -0.552,1.882 -1.069,6.875 -1.881,10.143 -1.299,5.229 -1.858,19.928 -0.67,22.994 0,0 0.079,-2.846 1.979,-5.337 5.39,-7.064 10.883,-8.27 10.883,-8.27 l -5.975,32.732 -17.982,-21.854 14.868,-72.059 4.617,-1.043 z"
   id="path317"
   inkscape:connector-curvature="0" />
			<path
   style="fill:#558b2f"
   d="m 255.704,415.457 c 0,0 -4.298,-16.156 -2.936,-22.359 0,0 1.194,-0.71 1.409,-1.241 0.215,-0.531 -1.077,-0.189 -0.992,-1.514 0.084,-1.325 1.141,-4.387 0.598,-5.004 -0.543,-0.617 -0.624,-1.534 -0.14,-1.801 0,0 0.117,-0.502 -0.161,-0.817 -0.278,-0.315 -0.899,-2.564 0.336,-2.613 0,0 0.599,-1.406 0.282,-1.767 -0.317,-0.36 -0.89,-1.374 -0.165,-2.092 0,0 -0.573,-1.014 -0.676,-1.402 -0.103,-0.389 1.114,-0.821 1.247,-1.578 0.133,-0.756 -0.404,-1.003 0.484,-2.264 0.888,-1.261 0.682,-2.039 0.682,-2.039 0,0 -0.152,-1.624 1.2,-2.176 0,0 0.277,-1.682 1.359,-1.996 0,0 -0.316,-1.72 1.098,-2.565 0,0 -0.306,-0.529 -0.674,-0.765 0,0 0.081,-1.27 0.361,-1.677 0,0 -0.208,-1.415 0.642,-2.084 0,0 0.356,-1.592 -0.08,-2.087 -0.436,-0.495 -0.128,-1.325 0.333,-1.891 0.461,-0.566 0.385,-1.378 -0.011,-1.828 -0.396,-0.45 -0.433,-1.217 -0.022,-1.658 0.41,-0.441 -0.067,-1.619 -0.067,-1.619 0,0 -0.634,-0.72 0.007,-1.444 0.641,-0.724 0.516,-2.771 0.204,-3.216 0,0 1.539,-2.154 0.944,-2.829 0,0 1.498,-0.84 1.681,-1.72 0,0 -0.433,-1.217 0.113,-1.777 0,0 -0.739,-1.746 0.386,-2.737 0,0 -0.175,-1.923 0.55,-2.642 l -0.613,-1.059 c 0,0 1.379,-0.975 1.382,-1.697 0,0 1.282,-1.067 2.242,0.014 0,0 -0.193,-4.459 -3.481,-3.953 -3.288,0.506 -7.57,6.666 -7.57,6.666 0,0 -1.77,0.364 -2.123,2.168 -0.353,1.804 -0.914,4.389 -0.914,4.389 0,0 -0.333,1.488 0.967,2.285 1.299,0.797 -2.478,6.513 -0.569,10.207 0,0 -1.352,2.535 -0.894,4.072 0,0 -1.402,3.325 -0.978,4.146 0,0 -3.698,0.718 -2.112,5.742 0,0 -3.034,4.016 -2.818,5.618 0.216,1.602 -6.862,10.018 -6.707,12.564 0,0 -2.475,4.862 -2.331,5.928 0,0 -5.495,5.833 -4.697,9.899 0,0 -3.305,2.603 -2.73,7.253 0.575,4.649 -1.263,8.117 -1.504,9.684 -1.86,12.068 3.646,18.727 12.927,22.268 12.814,4.888 25.534,-3.439 29.083,-6.832 14.339,-13.709 7.505,-30.854 7.505,-30.854 0,0 2.925,-9.313 1.235,-12.582 l -9.096,11.443 z"
   id="path319"
   inkscape:connector-curvature="0" />
			<path
   style="fill:#424242"
   d="m 236.708,393.884 c 0,0 -2.003,0.177 -2.232,1.648 -0.228,1.471 -0.029,3.645 0.112,4.093 0,0 0.863,-0.823 1.25,-1.609 0.388,-0.786 1.004,-1.456 1.284,-2.147 0.28,-0.691 0.298,-0.96 -0.414,-1.985 z"
   id="path321"
   inkscape:connector-curvature="0" />
			<path
   style="fill:#fff9c4"
   d="m 262.761,337.635 c 0,0 3.915,1.499 4.413,2.462 0.498,0.963 -4.526,-0.685 -4.526,-0.685 l -0.879,-0.998 z"
   id="path323"
   inkscape:connector-curvature="0" />
			<path
   style="fill:#fff9c4"
   d="m 260.802,342.091 c 0,0 3.181,1.085 3.268,2.244 l -4.381,-1.033 z"
   id="path325"
   inkscape:connector-curvature="0" />
			<path
   style="fill:#fff9c4"
   d="m 259.818,347.178 c 0,0 2.54,0.575 2.51,1.039 -0.029,0.464 -1.81,-0.102 -2.517,0.405 -0.707,0.507 -0.916,-1.078 0.007,-1.444 z"
   id="path327"
   inkscape:connector-curvature="0" />
			<path
   style="fill:#fff9c4"
   d="m 259.878,350.241 c 0,0 3.076,0.576 3.041,1.133 -0.035,0.557 -3.019,0.526 -3.019,0.526 0,0 -1.578,-0.509 -0.022,-1.659 z"
   id="path329"
   inkscape:connector-curvature="0" />
			<path
   style="fill:#fff9c4"
   d="m 259.912,353.727 c 0,0 3.085,0.817 3.143,1.38 0.057,0.562 -3.475,0.511 -3.475,0.511 0,0 -1.451,-1.229 0.332,-1.891 z"
   id="path331"
   inkscape:connector-curvature="0" />
			<path
   style="fill:#fff9c4"
   d="m 259.659,357.705 c 0,0 4.125,1.38 4.127,2.141 0.002,0.761 -4.769,-0.058 -4.769,-0.058 0,0 -1.43,-1.263 0.642,-2.083 z"
   id="path333"
   inkscape:connector-curvature="0" />
			<path
   style="fill:#fff9c4"
   d="m 259.329,362.23 c 0,0 4.591,2.709 4.248,3.711 -0.343,1.002 -2.459,-1.62 -5.345,-1.147 -2.886,0.473 1.097,-2.564 1.097,-2.564 z"
   id="path335"
   inkscape:connector-curvature="0" />
			<path
   style="fill:#fff9c4"
   d="m 256.873,366.79 c 0,0 1.984,1.469 1.725,1.959 -0.259,0.491 -2.38,-0.785 -2.926,0.216 -0.545,1.002 -1.352,-2.18 1.201,-2.175 z"
   id="path337"
   inkscape:connector-curvature="0" />
			<path
   style="fill:#fff9c4"
   d="m 254.991,371.004 c 0,0 2.152,0.953 2.067,1.553 -0.085,0.6 -2.551,0.71 -2.551,0.71 0,0 -1.44,-1.665 0.484,-2.263 z"
   id="path339"
   inkscape:connector-curvature="0" />
			<path
   style="fill:#fff9c4"
   d="m 253.936,376.248 c 0,0 2.321,0.868 2.335,1.381 0.014,0.513 -2.17,0.712 -2.17,0.712 0,0 -2.537,-1.427 -0.165,-2.093 z"
   id="path341"
   inkscape:connector-curvature="0" />
			<path
   style="fill:#fff9c4"
   d="m 253.818,380.107 c 0,0 2.173,1.182 2.013,1.498 -0.16,0.316 -2.349,1.115 -2.349,1.115 0,0 -2.294,-1.729 0.336,-2.613 z"
   id="path343"
   inkscape:connector-curvature="0" />
			<path
   style="fill:#fff9c4"
   d="m 263.697,332.257 c 0,0 2.237,0.111 2.341,1.045 0.104,0.934 -3.978,0.953 -3.978,0.953 z"
   id="path345"
   inkscape:connector-curvature="0" />
			<path
   style="fill:#dec270"
   d="m 296.122,343.771 c 0,0 2.546,1.741 1.973,2.486 -0.572,0.745 -1.368,0.905 -1.368,0.905 0,0 -1.309,-1.606 -0.605,-3.391 z"
   id="path347"
   inkscape:connector-curvature="0" />
			<path
   style="fill:#dec270"
   d="m 293.268,349.615 c 0,0 0.257,-0.726 2.306,0.264 2.049,0.991 -0.882,1.41 -0.882,1.41 0,0 -1.293,-0.98 -1.424,-1.674 z"
   id="path349"
   inkscape:connector-curvature="0" />
			<path
   style="fill:#dec270"
   d="m 290.216,353.426 c 0,0 2.044,-0.138 3.278,0.8 1.234,0.938 -1.378,1.303 -1.378,1.303 0,0 -1.908,-1.248 -1.9,-2.103 z"
   id="path351"
   inkscape:connector-curvature="0" />
			<path
   style="fill:#dec270"
   d="m 284.757,355.78 c 0,0 1.595,-1.149 5.265,0.813 3.67,1.962 -1.347,2.013 -1.347,2.013 0,0 -3.481,-1.968 -3.918,-2.826 z"
   id="path353"
   inkscape:connector-curvature="0" />
			<path
   style="fill:#dec270"
   d="m 286.553,361.181 c 0,0 1.634,-0.294 2.598,0.543 0.964,0.837 -1.252,1.252 -1.252,1.252 0,0 -1.182,-0.888 -1.346,-1.795 z"
   id="path355"
   inkscape:connector-curvature="0" />
			<path
   style="fill:#dec270"
   d="m 284.707,363.928 c 0,0 1.218,-0.265 2.512,0.699 1.294,0.964 -0.6,1.118 -0.6,1.118 0,0 -1.575,-0.565 -1.912,-1.817 z"
   id="path357"
   inkscape:connector-curvature="0" />
			<path
   style="fill:#dec270"
   d="m 274.487,377.906 c 0,0 1.642,0.143 2.956,1.158 1.315,1.015 -1.843,1.22 -1.843,1.22 0,0 -1.716,-1.733 -1.113,-2.378 z"
   id="path359"
   inkscape:connector-curvature="0" />
			<path
   style="fill:#dec270"
   d="m 271.153,382.089 c 0,0 0.164,-0.983 2.732,0.168 2.568,1.151 -1.211,1.697 -1.211,1.697 0,0 -1.728,-1.063 -1.521,-1.865 z"
   id="path361"
   inkscape:connector-curvature="0" />
			<path
   style="fill:#dec270"
   d="m 281.61,371.88 c 0,0 0.313,-0.623 1.984,0.036 1.672,0.659 -0.961,1.51 -0.961,1.51 0,0 -1.308,-0.865 -1.023,-1.546 z"
   id="path363"
   inkscape:connector-curvature="0" />
			<path
   style="fill:#7cb342"
   d="m 254.184,404.134 c 0,0 -2.777,-4.833 -1.416,-11.036 0,0 1.194,-0.71 1.409,-1.241 0.215,-0.531 -1.077,-0.189 -0.992,-1.514 0.084,-1.325 1.141,-4.387 0.598,-5.004 -0.543,-0.617 -0.624,-1.534 -0.14,-1.801 0,0 0.117,-0.502 -0.161,-0.817 -0.278,-0.315 -0.899,-2.564 0.336,-2.613 0,0 0.599,-1.406 0.282,-1.767 -0.317,-0.36 -0.89,-1.374 -0.165,-2.092 0,0 -0.573,-1.014 -0.676,-1.402 -0.103,-0.389 1.114,-0.821 1.247,-1.578 0.133,-0.756 -0.404,-1.003 0.484,-2.264 0.888,-1.261 0.682,-2.039 0.682,-2.039 0,0 -0.152,-1.624 1.2,-2.176 0,0 0.277,-1.682 1.359,-1.996 0,0 -0.316,-1.72 1.098,-2.565 0,0 -0.306,-0.529 -0.674,-0.765 0,0 0.081,-1.27 0.361,-1.677 0,0 -0.208,-1.415 0.642,-2.084 0,0 0.356,-1.592 -0.08,-2.087 -0.436,-0.495 -0.128,-1.325 0.333,-1.891 0.461,-0.566 0.385,-1.378 -0.011,-1.828 -0.396,-0.45 -0.433,-1.217 -0.022,-1.658 0.41,-0.441 -0.067,-1.619 -0.067,-1.619 0,0 -0.634,-0.72 0.007,-1.444 0.641,-0.724 0.516,-2.771 0.204,-3.216 0,0 1.539,-2.154 0.944,-2.829 0,0 1.498,-0.84 1.681,-1.72 0,0 -0.433,-1.217 0.113,-1.777 0,0 -0.739,-1.746 0.386,-2.737 0,0 -0.175,-1.923 0.55,-2.642 l -0.613,-1.059 c 0,0 1.379,-0.975 1.382,-1.697 0,0 1.282,-1.067 2.242,0.014 0,0 -0.193,-4.459 -3.481,-3.953 -3.288,0.506 -3.572,4.852 -3.572,4.852 0,0 -1.056,2.645 -1.409,4.449 -0.353,1.804 -0.297,4.675 -0.297,4.675 0,0 -1.984,3.61 -0.685,4.407 1.299,0.797 -1.221,1.706 -0.729,3.838 0,0 -0.241,2.684 0.217,4.222 0,0 -1.068,2.941 -0.644,3.762 0,0 -0.886,1.278 -0.256,4.03 0,0 -1.257,1.921 -1.351,3.473 l 0.842,1.998 c -1.478,1.606 -2.653,3.404 -3.168,4.007 -0.515,0.603 -1.247,3.077 -0.454,4.742 0,0 -0.735,0.647 -1.341,1.861 0,0 0.351,2.126 1.181,3.069 0,0 -2.404,0.899 -1.731,3.046 0,0 -1.413,3.764 -2.198,6.145 0,0 -4.692,2.967 -3.353,8.635 0,0 -6.077,9.758 -5.822,15.329 0.488,10.654 6.577,11.761 5.956,15.294 -0.621,3.533 -0.695,5.385 4.432,3.25 5.902,-2.457 6.082,-9.863 6.857,-15.188 z"
   id="path365"
   inkscape:connector-curvature="0" />
			<path
   style="fill:#689f38"
   d="m 244.185,427.31 c -1.099,3.415 -1.426,5.239 3.946,3.826 6.182,-1.627 13.839,-1.907 19.189,-5.142 5.35,-3.235 11.73,-18.41 12.299,-19.919 1.79,-4.746 12.24,-22.893 12.24,-22.893 0,0 5.697,-11.506 8.346,-16.594 0,0 1.648,-6.289 2.856,-8.159 1.208,-1.87 0.463,-5.259 -0.197,-8.797 -0.66,-3.538 -2.349,-6.09 -5.29,-4.296 -2.941,1.794 -2.251,6.412 -4.079,8.891 0,0 -1.529,0.758 -1.592,2.069 0,0 -1.917,-0.339 -2.9,1.243 -0.984,1.582 0.598,2.565 0.302,3.269 0,0 -1.568,0.699 -1.459,3.165 0,0 -1.491,1.071 -1.498,3.361 0,0 -1.118,0.74 -1.296,1.366 -0.178,0.626 0.21,1.723 -0.302,2.484 -0.511,0.761 -1.371,0.485 -1.746,1.325 -0.375,0.84 -0.612,1.759 -1.183,2.56 -0.57,0.8 -1.783,0.757 -2.529,1.42 -0.746,0.663 -0.434,1.134 -1.18,1.796 -0.746,0.663 -1.234,0.309 -1.961,1.128 -0.727,0.819 -0.572,1.309 -1.083,2.071 -0.511,0.762 -1.802,0.601 -2.237,1.734 -0.435,1.133 0.192,1.679 -0.142,2.412 -0.334,0.733 -2.11,0.987 -2.682,1.98 -0.571,0.992 1.177,2.397 0.038,2.841 -1.153,0.449 -2.707,12.034 -16.563,18.864 -1.385,0.682 -1.441,4.425 -2.199,5.77 -0.82,1.454 -3.193,4.092 -3.972,5.364 -0.984,1.607 -3.126,6.861 -3.126,6.861 z"
   id="path367"
   inkscape:connector-curvature="0" />
		</g>
	</g>
</g>
</svg>