<?xml version="1.0" encoding="UTF-8" standalone="no"?>
<!-- Generator: Adobe Illustrator 22.1.0, SVG Export Plug-In . SVG Version: 6.00 Build 0)  -->

<svg
   xmlns:dc="http://purl.org/dc/elements/1.1/"
   xmlns:cc="http://creativecommons.org/ns#"
   xmlns:rdf="http://www.w3.org/1999/02/22-rdf-syntax-ns#"
   xmlns:svg="http://www.w3.org/2000/svg"
   xmlns="http://www.w3.org/2000/svg"
   xmlns:sodipodi="http://sodipodi.sourceforge.net/DTD/sodipodi-0.dtd"
   xmlns:inkscape="http://www.inkscape.org/namespaces/inkscape"
   version="1.1"
   id="Layer_14"
   x="0px"
   y="0px"
   viewBox="0 0 660.66943 454.38995"
   xml:space="preserve"
   sodipodi:docname="404_2.svg"
   width="660.66943"
   height="454.38995"
   inkscape:version="0.92.4 (5da689c313, 2019-01-14)"><metadata
   id="metadata142"><rdf:RDF><cc:Work
       rdf:about=""><dc:format>image/svg+xml</dc:format><dc:type
         rdf:resource="http://purl.org/dc/dcmitype/StillImage" /><dc:title></dc:title></cc:Work></rdf:RDF></metadata><defs
   id="defs140" /><sodipodi:namedview
   pagecolor="#ffffff"
   bordercolor="#666666"
   borderopacity="1"
   objecttolerance="10"
   gridtolerance="10"
   guidetolerance="10"
   inkscape:pageopacity="0"
   inkscape:pageshadow="2"
   inkscape:window-width="1920"
   inkscape:window-height="1017"
   id="namedview138"
   showgrid="false"
   fit-margin-top="0"
   fit-margin-left="0"
   fit-margin-right="0"
   fit-margin-bottom="0"
   inkscape:zoom="0.78666667"
   inkscape:cx="351.74497"
   inkscape:cy="7.922074"
   inkscape:window-x="-8"
   inkscape:window-y="-8"
   inkscape:window-maximized="1"
   inkscape:current-layer="Layer_14" />
<rect
   style="fill:#ffffff"
   width="800"
   height="600"
   id="rect2"
   x="845.34766"
   y="-35.292053" />
<path
   style="fill:#f5f5f5"
   d="m 142.54747,64.568 c 0,0 17.89,-23.02 35.377,-1.181 0,0 19.095,-13.111 35.283,9.17 0,0 -18.854,-13.631 -31.46,-2.736 0,0 -7.787,2.658 -15.963,0.575 l 6.077,-4.368 c 0.001,10e-4 -11.112,-11.112 -29.314,-1.46 z"
   id="path4"
   inkscape:connector-curvature="0" />
<path
   style="fill:#f5f5f5"
   d="m 464.61647,92.702 c 0,0 20.952,-14.748 32.144,8.112 0,0 17.804,-8.431 26.979,18.982 0,0 -15.251,-17.057 -27.549,-11.742 0,0 -5.435,0.367 -12.136,-3.865 l 5.679,-1.902 c 0,0 -6.72,-12.958 -25.117,-9.585 z"
   id="path6"
   inkscape:connector-curvature="0" />
<linearGradient
   id="SVGID_1_"
   gradientUnits="userSpaceOnUse"
   x1="399.99899"
   y1="116.61"
   x2="399.99899"
   y2="257.83401"
   gradientTransform="matrix(1,0,0,-1,-75.988532,571)">
	<stop
   offset="0"
   style="stop-color:#FFFFFF"
   id="stop8" />
	<stop
   offset="0.7521"
   style="stop-color:#F9F9F9"
   id="stop10" />
	<stop
   offset="1"
   style="stop-color:#F5F5F5"
   id="stop12" />
</linearGradient>
<path
   style="fill:url(#SVGID_1_)"
   d="m 587.57747,353.56 c -9.803,-1.605 -19.553,-0.643 -28.736,2.138 -2.019,0.611 -4.336,0.208 -5.709,-1.042 -9.988,-9.093 -22.404,-16.697 -36.947,-18.408 -35.131,-4.134 -51.548,15.64 -66.255,27.274 -6.283,4.97 -18.074,-3.584 -24.88,-9.156 -24.188,-19.804 -56.047,-41.2 -85.845,-41.2 -18.756,0 -35.744,10.412 -48.121,24.536 -4.841,5.524 -15.568,6.228 -21.6,1.381 -15.742,-12.649 -36.882,-21.382 -59.499,-19.886 -22.017,1.457 -41.367,12.336 -55.23,26.391 -6.903,6.999 -20.222,8.551 -29.841,3.582 -15.586,-8.052 -33.867002,-12.23 -52.415002,-9.219 -46.436,7.537 -76.9589995,57.27 -71.96599953,87.851 4.99300003,30.581 42.58499953,24.156 89.02099953,16.618 34.610002,-5.618 64.357002,-10.272 75.200002,-24.938 0.897,-1.213 2.706,-1.895 4.578,-1.798 13.417,0.698 29.613,-0.41 47.102,-1.567 11.977,-0.792 23.352,-1.526 33.577,-2.699 0.975,-0.112 1.972,-0.018 2.853,0.309 10.393,3.86 27.461,3.8 46.768,3.8 16.842,0 31.977,0.044 42.469,-2.505 0.504,-0.122 1.028,-0.19 1.558,-0.19 8.567,-0.005 16.706,-0.058 24.132,-0.527 0.813,-0.051 1.613,0.071 2.355,0.32 8.815,2.95 22.792,2.903 38.538,2.903 9.623,0 18.583,0.017 26.112,-0.641 0.35,-0.031 0.691,-0.031 1.041,0 7.529,0.658 16.49,0.641 26.112,0.641 5.836,0 11.426,0.005 16.604,-0.136 0.45,-0.012 0.889,0.022 1.325,0.105 6.994,1.329 14.495,2.55 22.297,3.827 0.294,0.048 0.588,0.096 0.881,0.144 1.708,0.28 3.044,1.222 3.58,2.448 6.954,15.922 33.686,20.121 65.193,25.279 39.261,6.427 71.04,11.927 75.65,-16.069 4.611,-27.995 -20.641,-73.139 -59.902,-79.566 z"
   id="path15"
   inkscape:connector-curvature="0" />
<g
   id="g26"
   transform="translate(-75.988532,-29)">
	
		<radialGradient
   id="SVGID_2_"
   cx="437.16629"
   cy="197.70171"
   r="95.0606"
   gradientTransform="matrix(0.9981,0,0,0.9981,4.6863,-73.4461)"
   gradientUnits="userSpaceOnUse">
		<stop
   offset="0"
   style="stop-color:#E0E0E0"
   id="stop17" />
		<stop
   offset="1"
   style="stop-color:#FFFFFF;stop-opacity:0"
   id="stop19" />
	</radialGradient>
	<circle
   style="fill:url(#SVGID_2_)"
   cx="441.022"
   cy="123.88"
   r="94.879997"
   id="circle22" />
	<circle
   style="fill:#ffffff"
   cx="441.022"
   cy="123.88"
   r="22.927999"
   id="circle24" />
</g>
<linearGradient
   id="SVGID_3_"
   gradientUnits="userSpaceOnUse"
   x1="400"
   y1="202.088"
   x2="400"
   y2="77.75"
   gradientTransform="matrix(1,0,0,-1,-75.988532,571)">
	<stop
   offset="0"
   style="stop-color:#E0E0E0"
   id="stop28" />
	<stop
   offset="0.4908"
   style="stop-color:#E2E2E2;stop-opacity:0.5092"
   id="stop30" />
	<stop
   offset="0.7339"
   style="stop-color:#EAEAEA;stop-opacity:0.2661"
   id="stop32" />
	<stop
   offset="0.922"
   style="stop-color:#F7F7F7;stop-opacity:0.078"
   id="stop34" />
	<stop
   offset="1"
   style="stop-color:#FFFFFF;stop-opacity:0"
   id="stop36" />
</linearGradient>
<path
   style="fill:url(#SVGID_3_)"
   d="m -54.609532,493.25 c 0,-68.67 169.514002,-124.338 378.621002,-124.338 209.107,0 378.621,55.668 378.621,124.338 z"
   id="path39"
   inkscape:connector-curvature="0" />
<path
   style="fill:#ffffff"
   d="m 674.57392,1394.4373 c -17.333,0 -21.202,-5.018 -27.778,-13.9 -2.202,7.84 -16.505,13.9 -33.838,13.9 -17.333,0 -31.636,-6.06 -33.838,-13.9 -2.202,7.84 -16.505,13.9 -33.838,13.9 -17.333,0 -31.636,-6.06 -33.838,-13.9 -2.181,7.764 -16.229,13.778 -33.333,13.895 -17.104,-0.117 -31.153,-6.131 -33.333,-13.895 -2.204,7.84 -16.507,13.9 -33.84,13.9 -17.333,0 -31.636,-6.06 -33.838,-13.9 -2.202,7.84 -16.505,13.9 -33.838,13.9 -17.333,0 -31.636,-6.06 -33.838,-13.9 -2.202,7.84 -16.505,13.9 -33.838,13.9 -17.333,0 -31.636,-6.06 -33.838,-13.9 -2.202,7.84 -16.505,13.9 -33.838,13.9 -17.333,0 -31.636,-6.06 -33.838,-13.9 -2.202,7.84 -16.505,13.9 -33.838,13.9 -17.333,0 -31.636,-6.06 -33.838,-13.9 -2.202,7.84 -16.505002,13.9 -33.838002,13.9 -17.333,0 -31.636,-6.06 -33.838,-13.9 -2.202,7.84 -16.505,13.9 -33.8379995,13.9 -16.3230005,0 -29.9600005,-5.37 -33.3330005,-12.55 -3.379,7.18 -17.015,12.55 -33.339,12.55 -17.333,0 -31.636,-6.06 -33.838,-13.9 -6.536998,8.338 -12.464998,13.9 -29.797998,13.9 v 76.88 l 800,0.12 z"
   id="path41"
   inkscape:connector-curvature="0" />
<g
   id="g47"
   transform="translate(-75.988532,-29)">
	<path
   style="fill:#e0e0e0"
   d="m 366.507,278.717 c 16.493,63.485 5.826,108.616 -1.411,129.677 3.028,3.569 11.633,5.313 15.237,1.454 10.667,-42.515 9.774,-97.001 -6.062,-135.407 z"
   id="path43"
   inkscape:connector-curvature="0" />
	<path
   style="fill:#e0e0e0"
   d="m 296.63,277.214 c 4.054,-8.108 11.409,-15.373 20.566,-19.063 9.116,-3.795 20.192,-4.749 28.697,-2.241 8.569,2.575 13.894,6.459 19.5,13.279 1.8,-7.034 4.094,-12.187 10.152,-16.702 6.023,-4.523 16.095,-5.592 24.004,-5.039 7.918,0.453 15.216,3.614 20.917,8.075 5.656,4.553 10.168,10.316 12.183,17.373 -5.388,-1.825 -10.141,-3.548 -14.669,-5.012 1.51,-1.523 3.049,-2.806 3.049,-2.806 -3.079,0.213 -5.189,0.911 -6.624,1.692 -0.018,-0.005 -0.036,-0.011 -0.054,-0.017 -4.278,-1.284 -19.347,-4.421 -30.992,-1.411 -0.437,0.113 -0.892,0.266 -1.333,0.389 3.507,-0.304 7.098,-0.127 10.665,0.523 9.64,1.757 18.763,7.099 25.306,14.227 6.635,7.107 10.93,15.765 12.995,24.608 1.941,8.872 2.096,18.155 -1.51,27.075 -2.686,-2.955 -6.739,-8.201 -11.466,-14.094 2.101,-1.517 4.187,-2.743 4.187,-2.743 -2.555,-0.243 -4.606,-0.121 -6.247,0.189 -4.96,-6.111 -10.509,-12.647 -15.937,-17.912 -1.901,-1.844 -3.72,-3.533 -5.46,-5.081 2.481,-2.275 6.736,-4.761 6.736,-4.761 -5.41,-0.526 -8.578,0.581 -10.33,1.673 -0.852,-0.705 -15.044,-10.074 -18.088,-10.558 0,0 3.312,17.217 -5.057,48.959 -1.755,6.655 -4.705,17.356 -8.927,24.735 -4.774,-4.994 -7.755,-10.432 -9.873,-16.015 2.397,-2.365 7.087,-5.12 7.087,-5.12 -3.926,-0.374 -6.67,0.111 -8.55,0.823 -0.513,-1.751 -3.033,-12.588 -2.542,-21.226 0.541,-9.52 3.777,-18.844 4.984,-21.563 1.684,-3.676 3.826,-7.349 6.595,-10.608 -3.662,3.27 -6.806,6.458 -9.395,9.666 -0.572,0.701 -1.117,1.401 -1.639,2.101 -1.926,-0.785 -5.064,-1.33 -9.896,-0.347 0,0 4.618,2.091 7.307,4.124 -2.231,3.545 -3.976,7.171 -5.525,11.076 -1.449,3.69 -2.677,7.688 -3.8,11.982 -1.612,0.351 -3.517,1.023 -5.732,2.202 0,0 2.41,0.333 4.94,0.93 -0.444,1.826 -0.874,3.702 -1.299,5.628 -1.764,7.762 -3.227,16.19 -6.288,25.705 -6.88,-7.247 -10.926,-15.962 -12.956,-25.435 -1.91,-9.451 -1.578,-19.957 2.369,-29.954 3.748,-9.772 11.374,-18.553 20.676,-23.213 -3.699,0.689 -7.146,1.616 -10.332,2.894 -1.337,-1.587 -3.952,-3.582 -9.023,-4.845 0,0 3.203,3.797 4.774,6.776 -3.612,1.864 -22.94,21.829 -27.247,26.714 -2.112,-8.651 -0.949,-19.528 3.102,-27.652 z"
   id="path45"
   inkscape:connector-curvature="0" />
</g>
<g
   id="g83"
   transform="translate(-75.988532,-29)">
	<path
   style="fill:#c28b7a"
   d="m 498.397,316.098 c 0,0 -5.363,11.625 -8.746,14.268 -3.366,2.63 -10.787,7.935 -15.812,12.434 -4.61,4.127 -11.79,12.952 -7.066,29.408 4.724,16.456 13.449,45.035 13.449,45.035 h 47.365 c 0,0 1.805,-62.558 0.637,-65.453 -1.168,-2.895 -2.996,-7.923 -9.548,-11.733 -6.553,-3.809 -20.279,-23.959 -20.279,-23.959 z"
   id="path49"
   inkscape:connector-curvature="0" />
	<path
   style="fill:#c28b7a"
   d="m 528.223,351.79 c 0,0 8.163,15.321 12.593,23.157 0,0 7.454,-0.942 11.923,-5.266 4.122,-3.988 4.352,-4.198 7.095,-5.493 2.743,-1.294 2.571,-7.237 7.904,-7.999 5.333,-0.762 7.494,0.492 7.799,1.787 0.305,1.295 -4.751,0.956 -4.142,2.86 0.609,1.905 4.891,4.343 8.236,4.8 3.345,0.457 -7.438,11.928 -9.571,11.928 -2.133,0 -7.502,-4.005 -9.178,-3.548 -1.676,0.457 -14.846,17.973 -21.615,17.895 -6.927,-0.08 -14.869,-13.835 -18.475,-24.653 -3.606,-10.817 1.942,-13.15 7.431,-15.468 z"
   id="path51"
   inkscape:connector-curvature="0" />
	<path
   style="fill:#cc9281"
   d="m 515.832,294.929 c 5.006,-0.003 14.762,2.643 14.726,14.647 -0.026,8.721 -5.128,30.682 -17.658,29.342 -7.497,-0.802 -13.285,-9.66 -14.722,-17.748 -1.317,-7.41 2.628,-26.23 17.654,-26.241 z"
   id="path53"
   inkscape:connector-curvature="0" />
	<g
   id="g63">
		<path
   style="fill:#558b2f"
   d="m 545.131,330.205 0.013,-0.039 c -3.847,0.435 -5.808,-1.865 -6.534,-2.591 l -4.929,4.929 0.083,0.083 c 0.726,0.726 2.928,2.62 2.493,6.467 l 0.037,-0.011 c -0.072,3.442 1.343,7.273 4.297,10.227 l 28.608,26.636 c 0.727,0.727 1.757,0.874 2.301,0.33 l 10.844,-10.844 c 0.545,-0.545 0.398,-1.574 -0.33,-2.301 l -26.636,-28.608 c -2.957,-2.953 -6.797,-4.356 -10.247,-4.278 z"
   id="path55"
   inkscape:connector-curvature="0" />
		<path
   style="fill:#558b2f"
   d="m 529.403,318.369 -4.929,4.929 9.206,9.206 6.627,1.698 -1.698,-6.627 z"
   id="path57"
   inkscape:connector-curvature="0" />
		<path
   style="fill:#33691e"
   d="m 524.76,322.351 3.695,-3.695 c 0.454,-0.454 1.19,-0.454 1.644,0 v 0 c 0.454,0.454 0.454,1.19 0,1.644 l -3.695,3.695 c -0.454,0.454 -1.19,0.454 -1.644,0 v 0 c -0.454,-0.454 -0.454,-1.19 0,-1.644 z"
   id="path59"
   inkscape:connector-curvature="0" />
		<path
   style="fill:#33691e"
   d="m 582.312,365.422 c -3.988,-3.386 -9.64,-3.513 -11.969,-1.184 -2.328,2.328 -2.202,7.981 1.184,11.969 z"
   id="path61"
   inkscape:connector-curvature="0" />
	</g>
	<path
   style="fill:#cc9281"
   d="m 475.655,348.952 c 4.374,-2.202 12.331,1.277 19.479,12.196 8.865,13.543 12.457,21.221 12.457,21.221 0,0 0.403,-1.364 4.41,-6.494 6.615,-8.468 18.406,-19.885 18.559,-21.866 0.152,-1.981 -0.188,-5.514 -0.071,-7.34 0.198,-3.102 4.093,-7.688 7.022,-10.093 3.022,-2.482 5.401,-4.767 8.436,-0.653 3.035,4.114 2.677,7.701 1.306,9.225 -1.371,1.524 -4.343,4.098 -4.8,6.231 -0.457,2.133 -0.426,5.698 -5.666,9.798 -1.968,1.54 -6.195,13.096 -10.93,22.154 -5.213,9.972 -13.188,16.199 -19.599,16.199 -8.42,0 -21.258,-14.935 -25.57,-20.685 -4.811,-6.412 -17.188,-23.775 -5.033,-29.893 z"
   id="path65"
   inkscape:connector-curvature="0" />
	<path
   style="fill:#cc9281"
   d="m 566.904,376.08 c 0.863,1.119 3.208,2.164 5.46,1.46 2.253,-0.704 7.87,-6.602 8.01,-8.573 0.141,-1.971 -1.446,-5.175 -4.102,-3.01 -2.655,2.166 -11.133,7.835 -9.368,10.123 z"
   id="path67"
   inkscape:connector-curvature="0" />
	<path
   style="fill:#5d4037"
   d="m 510.796,409.563 c -37.796,0 -63.15,7.355 -63.15,7.355 l 58.15,21.22 57.345,-21.59 c -10e-4,10e-4 -27.774,-6.985 -52.345,-6.985 z"
   id="path69"
   inkscape:connector-curvature="0" />
	<path
   style="fill:#c28b7a"
   d="m 563.437,460.021 c -1.66,-4.313 -13.709,-6.209 -21.795,-7.041 -7.041,-0.724 -13.869,-2.951 -20.053,-6.651 -8.874,-5.31 -23.686,-13.516 -43.257,-22.035 -10.618,-4.622 -17.169,-7.961 -27.649,-7.961 -5.389,0 -11.31,5.897 -11.31,12.436 0,10.087 14.047,15.12 20.168,17.234 16.819,5.807 50.856,11.614 63.649,13.681 3.284,0.531 6.477,1.579 9.476,3.118 4.648,2.385 13.612,6.613 15.849,7.347 5.259,1.727 17.767,-2.734 14.922,-10.128 z"
   id="path71"
   inkscape:connector-curvature="0" />
	<path
   style="fill:#cc9281"
   d="m 561.062,416.335 c -10.48,-0.088 -17.186,3.339 -27.803,7.962 -26.537,11.554 -44.323,22.537 -50.421,26.5 -1.546,1.005 -3.296,1.567 -5.1,1.65 -7.319,0.336 -26.906,1.749 -29.151,7.584 -2.845,7.395 8.759,11.391 14.922,10.13 2.334,-0.477 11.422,-5.072 16.069,-7.461 2.847,-1.464 5.865,-2.468 8.983,-2.987 12.667,-2.106 47.436,-8.159 63.49,-13.703 6.121,-2.114 20.322,-7.149 20.322,-17.237 -0.001,-6.54 -4.58,-12.381 -11.311,-12.438 z"
   id="path73"
   inkscape:connector-curvature="0" />
	<path
   style="fill:#5d4037"
   d="m 525.101,294.503 c 0,0 -2.072,3.307 -0.627,6.092 1.446,2.785 6.51,7.312 5.967,11.46 3.237,-4.821 5.623,-14.947 -5.34,-17.552 z"
   id="path75"
   inkscape:connector-curvature="0" />
	<path
   style="fill:#6d4c41"
   d="m 526.227,300.941 c -4.347,2.28 -16.858,6.044 -24.48,8.164 -0.906,1.432 -2.066,7.084 -2.815,8.892 -3.219,7.759 -8.944,14.226 -16.533,17.871 v 0 c 0,0 -1.032,-29.763 19.743,-42.358 8.893,-5.392 19.588,-2.648 23.524,-0.418 3.936,2.23 2.219,6.979 0.561,7.849 z"
   id="path77"
   inkscape:connector-curvature="0" />
	<path
   style="fill:#cc9281"
   d="m 503.798,312.555 c -0.137,-2.7 -1.878,-4.805 -3.888,-4.703 -2.01,0.102 -3.529,2.373 -3.392,5.073 0.107,2.114 1.198,3.864 2.632,4.475 0.397,0.169 0.82,0.251 1.256,0.229 2.01,-0.104 3.529,-2.375 3.392,-5.074 z"
   id="path79"
   inkscape:connector-curvature="0" />
	<path
   style="fill:#6d4c41"
   d="m 506.41,306.579 c 0,0 -0.914,16.996 2.174,19.421 2.333,1.833 6.138,-2.521 9.702,-0.797 3.57,1.727 3.269,4.145 3.161,5.924 -0.108,1.779 1.453,0.717 1.817,0.425 0.583,-0.468 2.208,-2.015 2.208,-2.015 0,0 -1.371,18.378 -11.246,16.968 -9.032,-1.29 -13.74,-7.835 -15.032,-12.567 -1.147,-4.2 -1.295,-6.871 -0.043,-16.538 1.535,-2.896 2.609,-6.842 2.881,-8.78 0.566,-0.97 3.296,-2.041 4.378,-2.041 z"
   id="path81"
   inkscape:connector-curvature="0" />
</g>
<g
   id="g109"
   transform="translate(-75.988532,-29)">
	<path
   style="fill:#937155"
   d="m 208.588,189 c -9.034,94.31 -5.501,225.545 2.912,267.539 -6.247,7.364 -24,10.961 -31.437,3 -7.792,-75.98 1.618,-210.189 12.506,-279.36 z"
   id="path85"
   inkscape:connector-curvature="0" />
	<path
   style="fill:#4d9e39"
   d="m 339.429,179.07 c -7.799,-15.597 -21.946,-29.571 -39.56,-36.669 -17.536,-7.3 -38.841,-9.136 -55.201,-4.311 -16.484,4.954 -25.727,10.425 -36.509,23.544 -3.463,-13.531 -8.876,-21.443 -20.528,-30.127 -11.585,-8.7 -30.96,-10.756 -46.173,-9.693 -15.231,0.871 -29.271,6.953 -40.236,15.533 -10.88,8.757 -19.56,19.844 -23.435,33.419 9.32,-3.157 17.65,-6.154 25.568,-8.776 -1.606,-3.37 -3.216,-6.264 -3.216,-6.264 4.398,1.104 7.341,2.691 9.311,4.302 1.184,-0.368 2.364,-0.731 3.537,-1.078 4.43,-1.329 8.728,-2.45 12.927,-3.361 -0.353,-4.736 -1.166,-9.5 -1.166,-9.5 4.812,2.947 7.508,5.701 8.974,8.054 3.242,-0.493 6.432,-0.851 9.567,-1.028 9.588,-0.532 18.936,0.389 29.314,3.12 0.841,0.211 1.715,0.512 2.565,0.749 -6.746,-0.584 -13.653,-0.245 -20.515,1.007 -18.544,3.38 -36.094,13.655 -48.678,27.366 -12.764,13.67 -21.025,30.325 -24.998,47.337 -3.733,17.066 -4.031,34.922 2.905,52.082 5.167,-5.685 12.963,-15.775 22.056,-27.111 -4.042,-2.919 -8.055,-5.276 -8.055,-5.276 4.914,-0.468 8.859,-0.233 12.018,0.363 9.541,-11.756 20.216,-24.327 30.657,-34.456 2.326,-2.257 4.589,-4.394 6.791,-6.418 -4.033,-4.493 -8.465,-8.685 -8.465,-8.685 6.411,-0.624 11.019,1.02 14.312,3.452 3.406,-2.967 6.645,-5.637 9.714,-8.026 -2.892,-2.784 -5.425,-4.901 -5.425,-4.901 3.864,0.273 7.063,0.875 9.724,1.656 11.031,-8.054 19.598,-12.153 25.563,-13.101 0,0 -6.371,33.119 9.727,94.179 3.375,12.802 9.051,33.387 17.173,47.58 9.505,-9.945 15.312,-20.805 19.411,-31.94 -4.607,-3.581 -10.106,-6.81 -10.106,-6.81 5.053,-0.481 9.081,-0.219 12.282,0.414 0.025,-0.079 0.052,-0.159 0.077,-0.238 1.096,-3.685 2.004,-7.402 2.755,-11.141 -3.249,-0.872 -5.768,-1.395 -5.768,-1.395 2.346,-1.051 4.499,-1.831 6.479,-2.408 1.468,-8.708 2.004,-17.529 1.566,-26.384 -0.008,-0.177 -0.021,-0.353 -0.03,-0.53 -5.635,-0.075 -11.052,0.416 -11.052,0.416 3.87,-3.626 7.409,-5.923 10.513,-7.356 -1.226,-11.482 -4.115,-22.961 -9.018,-34.01 -3.238,-7.071 -7.359,-14.137 -12.686,-20.406 7.045,6.291 13.092,12.423 18.072,18.594 1.524,1.868 2.948,3.732 4.292,5.6 2.926,-0.655 7.371,-0.738 14.134,0.638 0,0 -5.327,2.413 -10.134,5.317 4.218,6.74 7.527,13.637 10.471,21.059 2.648,6.742 4.909,14.029 6.981,21.82 2.644,0.752 5.64,1.931 9.015,3.726 0,0 -3.551,0.49 -7.699,1.383 1.044,4.188 2.05,8.5 3.036,12.971 3.393,14.931 6.208,31.143 12.096,49.446 13.235,-13.94 21.018,-30.704 24.923,-48.926 3.675,-18.18 3.036,-38.39 -4.557,-57.619 -7.21,-18.797 -21.88,-35.688 -39.773,-44.653 7.376,1.375 14.234,3.233 20.55,5.833 0.308,0.125 0.614,0.257 0.92,0.385 2.142,-2.177 6.314,-4.69 14.402,-6.705 0,0 -4.228,5.012 -7.397,9.99 6.797,3.552 13.383,8.072 20.007,13.712 2.457,-1.199 5.454,-2.317 9.134,-3.234 0,0 -2.568,3.043 -5.201,6.742 1.205,1.156 2.397,2.39 3.583,3.688 1.522,-0.545 3.19,-1.057 5.034,-1.516 0,0 -1.311,1.555 -3.019,3.788 7.141,8.265 14.165,18.59 22.45,27.987 4.042,-16.651 1.806,-37.573 -5.986,-53.2 z"
   id="path87"
   inkscape:connector-curvature="0" />
	<g
   id="g91">
		<path
   style="fill:#61b02a"
   d="m 205.847,164.364 c -2.097,-3.634 -4.803,-7.166 -7.658,-10.418 -2.873,-3.274 -6.043,-6.292 -9.413,-9.064 -6.755,-5.521 -14.401,-10.021 -22.642,-13.025 -4.11,-1.518 -8.343,-2.748 -12.667,-3.539 -2.147,-0.487 -4.341,-0.689 -6.517,-1.028 l -3.291,-0.28 -1.647,-0.14 -1.652,-0.048 c -8.812,-0.323 -17.672,0.574 -26.325,2.431 8.597,-2.1 17.454,-3.255 26.344,-3.181 l 1.667,10e-4 1.664,0.094 3.331,0.189 c 2.206,0.279 4.435,0.422 6.622,0.853 4.405,0.678 8.741,1.804 12.971,3.233 8.483,2.823 16.443,7.202 23.542,12.679 3.543,2.75 6.892,5.764 9.954,9.058 3.067,3.316 5.892,6.753 8.336,10.723 z"
   id="path89"
   inkscape:connector-curvature="0" />
	</g>
	<g
   id="g95">
		<path
   style="fill:#61b02a"
   d="m 206.328,162.385 c 5.672,-3.506 11.548,-6.303 17.613,-8.801 6.07,-2.443 12.307,-4.469 18.673,-5.974 12.711,-2.997 26.021,-3.955 38.943,-1.802 6.447,1.093 12.751,2.939 18.771,5.454 6.027,2.527 11.621,5.94 16.919,9.703 10.425,7.814 19.167,17.652 26.31,28.452 -7.35,-10.662 -16.266,-20.298 -26.749,-27.844 -5.327,-3.63 -10.921,-6.896 -16.912,-9.272 -5.984,-2.365 -12.218,-4.06 -18.57,-5.011 -12.731,-1.87 -25.76,-0.676 -38.173,2.504 -6.216,1.597 -12.298,3.703 -18.203,6.213 -5.867,2.542 -11.673,5.463 -16.963,8.876 z"
   id="path93"
   inkscape:connector-curvature="0" />
	</g>
	<g
   id="g99">
		<path
   style="fill:#61b02a"
   d="m 206.822,166.111 c -3.944,-0.519 -8.155,-0.753 -12.264,-0.842 -4.135,-0.086 -8.279,0.016 -12.411,0.279 -8.264,0.542 -16.495,1.755 -24.518,3.802 -8.021,2.039 -15.841,4.901 -23.181,8.72 -7.344,3.804 -14.184,8.599 -20.177,14.322 -3,2.855 -5.797,5.927 -8.367,9.188 -2.545,3.28 -4.857,6.741 -6.949,10.337 -2.108,3.59 -3.882,7.37 -5.518,11.204 -1.617,3.847 -2.944,7.813 -4.142,11.818 -4.582,16.11 -5.949,33.054 -5.413,49.836 -0.949,-16.765 -0.014,-33.779 4.208,-50.168 1.109,-4.076 2.353,-8.124 3.897,-12.069 1.564,-3.933 3.274,-7.823 5.332,-11.538 2.043,-3.721 4.32,-7.32 6.845,-10.747 2.551,-3.408 5.346,-6.636 8.361,-9.652 6.022,-6.043 12.961,-11.171 20.444,-15.285 7.479,-4.13 15.477,-7.283 23.69,-9.589 8.217,-2.314 16.656,-3.772 25.15,-4.541 4.248,-0.377 8.512,-0.587 12.783,-0.605 4.294,-0.007 8.496,0.107 12.901,0.575 z"
   id="path97"
   inkscape:connector-curvature="0" />
	</g>
	<g
   id="g103">
		<path
   style="fill:#61b02a"
   d="m 209.395,162.519 c 0.767,1.674 1.413,3.239 2.041,4.868 0.655,1.608 1.218,3.237 1.797,4.862 0.601,1.618 1.115,3.26 1.636,4.9 0.516,1.641 1.073,3.269 1.512,4.93 l 1.393,4.958 c 0.476,1.649 0.826,3.33 1.245,4.992 l 1.198,5 1.011,5.038 c 2.659,13.439 4.263,27.047 4.997,40.684 0.14,3.411 0.177,6.826 0.27,10.236 0.031,1.706 0.1,3.41 0.099,5.115 l -0.126,5.115 c -0.095,3.409 -0.142,6.818 -0.278,10.222 l -0.758,10.195 -0.379,5.094 c -0.176,1.693 -0.415,3.38 -0.62,5.07 l -1.276,10.13 c -0.114,0.843 -0.196,1.69 -0.335,2.529 l -0.451,2.512 -0.901,5.023 -1.801,10.039 1.492,-10.089 0.746,-5.041 0.373,-2.52 c 0.113,-0.841 0.17,-1.69 0.257,-2.535 l 0.963,-10.142 c 0.152,-1.69 0.339,-3.377 0.463,-5.069 l 0.222,-5.087 0.444,-10.166 c 0.031,-3.391 -0.027,-6.783 -0.036,-10.172 l -0.03,-5.082 c -0.051,-1.693 -0.172,-3.384 -0.255,-5.076 -0.197,-3.382 -0.337,-6.766 -0.579,-10.141 -1.142,-13.494 -3.143,-26.9 -6.168,-40.055 l -1.146,-4.929 -1.329,-4.879 c -0.462,-1.62 -0.855,-3.261 -1.372,-4.863 l -1.514,-4.816 c -0.479,-1.614 -1.073,-3.186 -1.625,-4.772 -0.557,-1.585 -1.107,-3.172 -1.739,-4.722 -0.611,-1.559 -1.206,-3.127 -1.882,-4.648 -0.64,-1.526 -1.345,-3.081 -2.035,-4.478 z"
   id="path101"
   inkscape:connector-curvature="0" />
	</g>
	<g
   id="g107">
		<path
   style="fill:#61b02a"
   d="m 206.984,161.14 c 4.71,-0.248 9.383,0.005 14.003,0.544 4.621,0.555 9.16,1.538 13.641,2.702 8.918,2.487 17.505,6.123 25.43,10.884 7.878,4.833 15.068,10.814 21.084,17.825 6.021,7 10.842,15.027 14.117,23.626 3.314,8.585 5.209,17.665 5.817,26.783 0.634,9.124 0.102,18.262 -1.111,27.278 -2.805,17.995 -8.427,35.391 -15.609,52.015 6.799,-16.784 12,-34.276 14.37,-52.181 0.996,-8.966 1.31,-18.005 0.481,-26.952 -0.801,-8.943 -2.864,-17.762 -6.27,-26.016 -3.369,-8.269 -8.202,-15.896 -14.147,-22.494 -5.941,-6.609 -12.975,-12.189 -20.643,-16.656 -7.715,-4.395 -16.042,-7.694 -24.627,-9.878 -4.312,-1.012 -8.665,-1.852 -13.057,-2.276 -4.387,-0.409 -8.793,-0.542 -13.132,-0.214 z"
   id="path105"
   inkscape:connector-curvature="0" />
	</g>
</g>
<g
   id="g135"
   transform="translate(-75.988532,-29)">
	<path
   style="fill:#a17d5a"
   d="m 625.273,198.344 c 36.081,137.396 7.832,193.036 -2.505,229.603 1.473,7.648 25.96,12.365 31.541,5.865 17.619,-49.808 18.229,-167.067 -16.885,-242.549 z"
   id="path111"
   inkscape:connector-curvature="0" />
	<path
   style="fill:#5c9e43"
   d="m 725.228,240.161 c 2.113,-1.445 4.067,-2.552 5.862,-3.394 -5.098,-13.42 -13.483,-26.098 -25.115,-36.068 -12.046,-10.505 -28.003,-17.605 -44.153,-18.724 -5.976,-0.415 -11.904,-0.047 -17.606,1.093 0.702,-0.283 1.42,-0.623 2.118,-0.883 8.598,-3.319 16.489,-4.995 24.723,-5.453 0.567,-0.031 1.143,-0.042 1.716,-0.061 1.909,-1.733 5.188,-3.922 10.814,-6.473 0,0 -2.461,3.138 -4.255,6.5 3.99,0.16 8.11,0.567 12.379,1.188 2.143,-1.199 5.058,-2.31 9.03,-3.034 0,0 -1.649,1.72 -3.492,3.935 0.077,0.014 0.151,0.025 0.228,0.039 9.549,1.703 19.509,4.182 31.168,6.735 -4.599,-11.218 -13.062,-19.854 -23.183,-26.293 -10.176,-6.28 -22.725,-9.848 -35.82,-9.428 -31.668,1.016 -46.484,23.193 -47.468,33.392 -8.353,-6.518 -20.536,-12.018 -35.077,-14.677 -14.423,-2.561 -31.018,-0.736 -45.291,7.164 -14.358,7.735 -25.103,21.009 -30.275,35.063 -5.163,14.08 -5.08,32.15 -0.042,45.975 7.983,-11.386 14.025,-23.886 21.27,-32.29 -1.88,-1.988 -3.372,-3.403 -3.372,-3.403 2.078,0.278 3.885,0.655 5.465,1.097 5.434,-5.834 10.948,-10.595 16.776,-14.438 -3.232,-4.158 -7.774,-8.466 -7.774,-8.466 7.43,0.995 11.272,3.141 13.26,5.16 0.098,-0.053 0.193,-0.114 0.292,-0.167 5.143,-2.82 10.82,-5.059 16.984,-6.934 -14.419,9.354 -25.332,25.167 -29.697,41.897 -4.651,17.135 -3.272,34.445 1.594,49.612 5.067,15.181 13.306,28.749 25.929,39.387 3.283,-16.182 4.143,-30.288 5.618,-43.354 0.391,-3.677 0.811,-7.237 1.268,-10.705 -2.689,-0.214 -4.706,-0.267 -4.706,-0.267 1.84,-1.259 3.556,-2.254 5.155,-3.048 0.37,-2.584 0.775,-5.097 1.209,-7.562 -3.873,-0.42 -7.286,-0.508 -7.286,-0.508 3.074,-2.103 5.81,-3.486 8.208,-4.378 0.607,-2.977 1.274,-5.87 2.027,-8.666 1.892,-6.927 4.182,-13.401 7.359,-19.841 -4.69,-2.339 -10.557,-4.245 -10.557,-4.245 6.04,-1.946 10.403,-1.946 13.483,-1.23 0.825,-1.43 1.693,-2.863 2.625,-4.306 3.663,-5.741 11.721,-11.938 17.135,-17.978 -3.95,5.858 -5.925,12.184 -8.016,18.528 -1.662,5.251 -2.829,10.551 -3.552,15.851 2.472,0.976 5.26,2.488 8.342,4.791 0,0 -4.321,0.09 -8.924,0.631 -0.405,5.044 -0.429,10.073 -0.101,15.043 0.707,11.458 3.303,22.639 7.641,33.322 2.596,-0.766 5.86,-1.304 9.955,-1.37 0,0 -4.157,3.109 -7.691,6.499 4.663,9.762 10.833,19.127 20.485,27.206 5.581,-12.887 8.466,-30.997 10.128,-42.245 7.928,-53.648 -5.013,-80.823 -5.013,-80.823 5.627,0.261 13.675,4.907 24.794,12.908 1.64,-0.309 3.631,-0.68 6.063,-1.126 0,0 -1.323,1.383 -3.016,3.345 2.765,2.035 5.704,4.251 8.829,6.639 2.93,-1.301 7.081,-2.346 12.92,-2.428 0,0 -4.142,3.085 -7.677,6.456 1.537,1.186 3.109,2.403 4.728,3.657 11.156,8.644 21.722,20.789 30.778,31.693 1.562,-0.21 3.281,-0.346 5.186,-0.377 0,0 -1.427,1.068 -3.319,2.632 7.215,8.739 13.383,16.432 17.997,20.495 4.093,-14.614 2.49,-29.138 -1.849,-42.791 -3.841,-0.412 -7.214,-0.499 -7.214,-0.499 z"
   id="path113"
   inkscape:connector-curvature="0" />
	<g
   id="g117">
		<path
   style="fill:#5fad2a"
   d="m 622.321,187.879 c -1.861,-1.239 -3.939,-2.405 -5.993,-3.48 -2.068,-1.082 -4.185,-2.082 -6.338,-2.997 -4.303,-1.84 -8.738,-3.388 -13.269,-4.588 -9.058,-2.41 -18.512,-3.384 -27.887,-2.71 -4.689,0.34 -9.332,1.188 -13.888,2.366 l -3.398,0.969 -3.335,1.172 c -0.553,0.203 -1.117,0.38 -1.662,0.604 l -1.626,0.696 c -1.079,0.476 -2.182,0.903 -3.243,1.419 -8.513,4.095 -16.348,9.592 -23.317,16.026 6.797,-6.614 14.506,-12.341 22.988,-16.7 1.057,-0.549 2.158,-1.01 3.235,-1.519 l 1.626,-0.747 c 0.545,-0.241 1.11,-0.436 1.664,-0.656 l 3.346,-1.275 3.418,-1.073 c 4.589,-1.318 9.29,-2.305 14.059,-2.777 9.534,-0.94 19.229,-0.201 28.567,2.022 4.671,1.106 9.257,2.571 13.725,4.344 2.236,0.882 4.438,1.852 6.602,2.912 2.174,1.07 4.274,2.166 6.399,3.501 z"
   id="path115"
   inkscape:connector-curvature="0" />
	</g>
	<g
   id="g121">
		<path
   style="fill:#5fad2a"
   d="m 621.857,185.888 c 1.236,-1.999 2.553,-3.758 3.957,-5.527 1.397,-1.754 2.875,-3.438 4.428,-5.049 3.099,-3.227 6.459,-6.202 10.088,-8.816 7.234,-5.246 15.58,-9.019 24.349,-10.651 4.373,-0.835 8.84,-1.196 13.274,-0.967 l 1.663,0.051 1.655,0.169 c 1.101,0.124 2.208,0.206 3.303,0.366 2.177,0.409 4.375,0.695 6.505,1.301 8.591,2.11 16.742,5.686 24.331,10.122 -7.711,-4.22 -15.939,-7.546 -24.498,-9.391 -2.123,-0.54 -4.305,-0.759 -6.459,-1.103 -1.084,-0.126 -2.176,-0.175 -3.262,-0.267 l -1.63,-0.12 -1.635,-0.003 c -4.356,-0.102 -8.711,0.377 -12.945,1.312 -8.49,1.832 -16.455,5.716 -23.309,10.987 -3.437,2.627 -6.605,5.599 -9.508,8.798 -1.455,1.597 -2.835,3.262 -4.129,4.985 -1.284,1.709 -2.549,3.521 -3.575,5.294 z"
   id="path119"
   inkscape:connector-curvature="0" />
	</g>
	<g
   id="g125">
		<path
   style="fill:#5fad2a"
   d="m 623.412,189.121 c -1.654,0.176 -3.504,0.477 -5.255,0.835 -1.773,0.349 -3.541,0.761 -5.292,1.238 -3.5,0.955 -6.977,2.054 -10.333,3.449 -6.761,2.677 -13.123,6.327 -18.854,10.774 -5.72,4.461 -10.737,9.841 -14.667,15.968 -3.945,6.118 -6.77,12.952 -8.555,20.056 -1.766,7.105 -2.714,14.476 -2.609,21.866 l -0.03,2.772 c -0.007,0.924 0.098,1.846 0.141,2.769 l 0.347,5.543 c 0.135,1.847 0.454,3.677 0.672,5.517 l 0.362,2.758 c 0.124,0.919 0.22,1.843 0.424,2.75 2.55,14.638 7.039,28.917 12.453,42.798 -5.798,-13.724 -10.7,-27.895 -13.682,-42.571 -0.23,-0.908 -0.354,-1.836 -0.505,-2.76 l -0.444,-2.773 c -0.272,-1.852 -0.645,-3.692 -0.834,-5.557 l -0.509,-5.604 c -0.07,-0.935 -0.202,-1.868 -0.221,-2.806 l -0.049,-2.818 c -0.315,-7.512 0.434,-15.083 2.053,-22.47 1.638,-7.384 4.375,-14.59 8.334,-21.125 3.941,-6.542 9.07,-12.367 14.964,-17.234 5.905,-4.855 12.497,-8.879 19.514,-11.888 3.487,-1.563 7.099,-2.819 10.756,-3.927 1.83,-0.553 3.681,-1.039 5.553,-1.463 1.889,-0.436 3.712,-0.797 5.756,-1.072 z"
   id="path123"
   inkscape:connector-curvature="0" />
	</g>
	<g
   id="g129">
		<path
   style="fill:#5fad2a"
   d="m 625.585,187.233 c -0.279,1.162 -0.53,2.602 -0.743,3.943 -0.194,1.377 -0.41,2.749 -0.549,4.147 -0.341,2.778 -0.547,5.591 -0.755,8.4 -0.152,2.819 -0.342,5.636 -0.392,8.467 l -0.125,4.244 -0.021,4.251 -0.018,4.253 0.08,4.256 c 0.063,2.837 0.082,5.677 0.231,8.515 l 0.366,8.517 0.546,8.512 c 0.16,2.84 0.396,5.675 0.646,8.509 l 0.722,8.507 c 0.583,5.662 1.159,11.328 1.793,16.988 0.711,5.65 1.375,11.309 2.126,16.958 l 2.406,16.927 -3.024,-16.832 c -0.957,-5.62 -1.828,-11.256 -2.747,-16.886 -0.842,-5.641 -1.625,-11.292 -2.417,-16.944 l -1.036,-8.499 c -0.354,-2.833 -0.695,-5.667 -0.96,-8.511 l -0.86,-8.526 -0.681,-8.547 c -0.254,-2.848 -0.378,-5.707 -0.546,-8.563 l -0.237,-4.287 -0.139,-4.295 -0.136,-4.297 -0.031,-4.304 c -0.053,-2.869 0.034,-5.745 0.085,-8.621 0.108,-2.879 0.213,-5.759 0.461,-8.65 0.091,-1.443 0.263,-2.895 0.415,-4.346 0.186,-1.479 0.359,-2.86 0.688,-4.482 z"
   id="path127"
   inkscape:connector-curvature="0" />
	</g>
	<g
   id="g133">
		<path
   style="fill:#5fad2a"
   d="m 622.984,184.14 c 6.976,-0.357 13.985,-0.282 20.95,0.397 6.961,0.705 13.875,1.993 20.592,3.983 13.428,3.981 25.966,11.083 36.002,20.781 10.098,9.668 17.556,21.7 22.921,34.391 5.403,12.727 8.657,26.207 10.846,39.759 -2.598,-13.481 -6.257,-26.818 -11.99,-39.255 -5.692,-12.407 -13.395,-23.984 -23.483,-33.068 -10.035,-9.118 -22.292,-15.56 -35.316,-19 -6.518,-1.717 -13.207,-2.755 -19.935,-3.232 -6.733,-0.45 -13.504,-0.318 -20.238,0.231 z"
   id="path131"
   inkscape:connector-curvature="0" />
	</g>
</g>
</svg>