<?xml version="1.0" encoding="UTF-8" standalone="no"?>
<!-- Generator: Adobe Illustrator 22.1.0, SVG Export Plug-In . SVG Version: 6.00 Build 0)  -->

<svg
   xmlns:dc="http://purl.org/dc/elements/1.1/"
   xmlns:cc="http://creativecommons.org/ns#"
   xmlns:rdf="http://www.w3.org/1999/02/22-rdf-syntax-ns#"
   xmlns:svg="http://www.w3.org/2000/svg"
   xmlns="http://www.w3.org/2000/svg"
   xmlns:sodipodi="http://sodipodi.sourceforge.net/DTD/sodipodi-0.dtd"
   xmlns:inkscape="http://www.inkscape.org/namespaces/inkscape"
   version="1.1"
   id="Layer_1"
   x="0px"
   y="0px"
   viewBox="0 0 795 418"
   xml:space="preserve"
   sodipodi:docname="404_1.svg"
   width="795"
   height="418"
   inkscape:version="0.92.4 (5da689c313, 2019-01-14)"><metadata
   id="metadata219"><rdf:RDF><cc:Work
       rdf:about=""><dc:format>image/svg+xml</dc:format><dc:type
         rdf:resource="http://purl.org/dc/dcmitype/StillImage" /><dc:title>17_404</dc:title></cc:Work></rdf:RDF></metadata><defs
   id="defs217" /><sodipodi:namedview
   pagecolor="#ffffff"
   bordercolor="#666666"
   borderopacity="1"
   objecttolerance="10"
   gridtolerance="10"
   guidetolerance="10"
   inkscape:pageopacity="0"
   inkscape:pageshadow="2"
   inkscape:window-width="1920"
   inkscape:window-height="1017"
   id="namedview215"
   showgrid="false"
   fit-margin-top="0"
   fit-margin-left="0"
   fit-margin-right="0"
   fit-margin-bottom="0"
   inkscape:zoom="0.78666667"
   inkscape:cx="592.19642"
   inkscape:cy="207.12233"
   inkscape:window-x="-8"
   inkscape:window-y="-8"
   inkscape:window-maximized="1"
   inkscape:current-layer="Layer_1" />
<title
   id="title2">17_404</title>
<rect
   style="fill:#ffffff"
   width="800"
   height="600"
   id="rect4"
   x="-5"
   y="-241" />
<g
   id="g36"
   transform="translate(-5,-63)">
	<rect
   x="335"
   y="332"
   style="fill:#f5f5f5"
   width="30"
   height="80"
   id="rect6" />
	<rect
   x="305"
   y="332"
   style="fill:#e0e0e0"
   width="30"
   height="80"
   id="rect8" />
	<rect
   x="365"
   y="332"
   style="fill:#e0e0e0"
   width="30"
   height="80"
   id="rect10" />
	<rect
   x="245"
   y="332"
   style="fill:#e0e0e0"
   width="30"
   height="80"
   id="rect12" />
	<rect
   x="185"
   y="332"
   style="fill:#e0e0e0"
   width="30.08"
   height="80"
   id="rect14" />
	<rect
   x="395"
   y="332"
   style="fill:#f5f5f5"
   width="30"
   height="80"
   id="rect16" />
	<rect
   x="425"
   y="332"
   style="fill:#e0e0e0"
   width="30"
   height="80"
   id="rect18" />
	<rect
   x="275"
   y="332"
   style="fill:#f5f5f5"
   width="30"
   height="80"
   id="rect20" />
	<rect
   x="215"
   y="332"
   style="fill:#f5f5f5"
   width="30"
   height="80"
   id="rect22" />
	<rect
   x="155"
   y="332"
   style="fill:#f5f5f5"
   width="30"
   height="80"
   id="rect24" />
	<rect
   x="125"
   y="332"
   style="fill:#e0e0e0"
   width="30.08"
   height="80"
   id="rect26" />
	<rect
   x="95"
   y="332"
   style="fill:#f5f5f5"
   width="30"
   height="80"
   id="rect28" />
	<rect
   x="65"
   y="332"
   style="fill:#e0e0e0"
   width="30.08"
   height="80"
   id="rect30" />
	<rect
   x="35"
   y="332"
   style="fill:#f5f5f5"
   width="30"
   height="80"
   id="rect32" />
	<rect
   x="5"
   y="332"
   style="fill:#e0e0e0"
   width="30.08"
   height="80"
   id="rect34" />
</g>
<g
   id="g52"
   transform="translate(-5,-63)">
	<rect
   x="655"
   y="332"
   style="fill:#e0e0e0"
   width="30"
   height="80"
   id="rect38" />
	<rect
   x="595"
   y="332"
   style="fill:#e0e0e0"
   width="30"
   height="80"
   id="rect40" />
	<rect
   x="625"
   y="332"
   style="fill:#f5f5f5"
   width="30"
   height="80"
   id="rect42" />
	<rect
   x="715"
   y="332"
   style="fill:#e0e0e0"
   width="30"
   height="80"
   id="rect44" />
	<rect
   x="775"
   y="332"
   style="fill:#e0e0e0"
   width="25"
   height="80"
   id="rect46" />
	<rect
   x="745"
   y="332"
   style="fill:#f5f5f5"
   width="30"
   height="80"
   id="rect48" />
	<rect
   x="685"
   y="332"
   style="fill:#f5f5f5"
   width="30"
   height="80"
   id="rect50" />
</g>
<rect
   y="229"
   style="fill:#d7d7d7"
   width="460"
   height="40"
   id="rect54"
   x="-5" />
<rect
   x="585"
   y="229"
   style="fill:#d7d7d7"
   width="210"
   height="40"
   id="rect56" />
<rect
   style="fill:#ececec"
   width="800"
   height="292"
   id="rect58"
   x="-5"
   y="-63" />
<rect
   x="585"
   y="344"
   style="fill:#e0e0e0"
   width="210"
   height="15"
   id="rect60" />
<rect
   y="344"
   style="fill:#e0e0e0"
   width="459"
   height="15"
   id="rect62"
   x="-5" />
<rect
   y="167.54185"
   style="fill:#ffffff"
   width="800"
   height="178"
   id="rect64"
   x="2038.1191" />
<radialGradient
   id="SVGID_1_"
   cx="998.48932"
   cy="-408.8483"
   r="238.44"
   gradientTransform="matrix(1.34,0,0,1.29,676.04617,803.96469)"
   gradientUnits="userSpaceOnUse">
	<stop
   offset="0"
   style="stop-color:#FFFFFF;stop-opacity:0"
   id="stop66" />
	<stop
   offset="0.26"
   style="stop-color:#FFFFFF;stop-opacity:0.01"
   id="stop68" />
	<stop
   offset="0.4"
   style="stop-color:#FFFFFF;stop-opacity:0.04"
   id="stop70" />
	<stop
   offset="0.51"
   style="stop-color:#FFFFFF;stop-opacity:0.09"
   id="stop72" />
	<stop
   offset="0.6"
   style="stop-color:#FFFFFF;stop-opacity:0.17"
   id="stop74" />
	<stop
   offset="0.68"
   style="stop-color:#FFFFFF;stop-opacity:0.27"
   id="stop76" />
	<stop
   offset="0.76"
   style="stop-color:#FFFFFF;stop-opacity:0.39"
   id="stop78" />
	<stop
   offset="0.83"
   style="stop-color:#FFFFFF;stop-opacity:0.53"
   id="stop80" />
	<stop
   offset="0.9"
   style="stop-color:#FFFFFF;stop-opacity:0.7"
   id="stop82" />
	<stop
   offset="0.96"
   style="stop-color:#FFFFFF;stop-opacity:0.88"
   id="stop84" />
	<stop
   offset="1"
   style="stop-color:#FFFFFF"
   id="stop86" />
</radialGradient>
<rect
   style="fill:url(#SVGID_1_)"
   width="800"
   height="600"
   id="rect89"
   x="1615.2362"
   y="-95.555305" />
<g
   id="g107"
   transform="translate(-5,-63)">
	
		<linearGradient
   id="SVGID_2_"
   gradientUnits="userSpaceOnUse"
   x1="355"
   y1="1037"
   x2="355"
   y2="908"
   gradientTransform="matrix(1,0,0,-1,0,1100)">
		<stop
   offset="0"
   style="stop-color:#FFFFFF;stop-opacity:0"
   id="stop91" />
		<stop
   offset="1"
   style="stop-color:#FFFFFF"
   id="stop93" />
	</linearGradient>
	<path
   style="opacity:0.65;fill:url(#SVGID_2_);enable-background:new"
   d="M 449.8,63 H 260 c 0,0 57.15,129 95,129 37.85,0 95,-129 95,-129 z"
   id="path96"
   inkscape:connector-curvature="0" />
	<rect
   x="340"
   y="202"
   style="fill:#cfd8dc"
   width="30"
   height="30"
   id="rect98" />
	
		<linearGradient
   id="SVGID_3_"
   gradientUnits="userSpaceOnUse"
   x1="355"
   y1="858"
   x2="355"
   y2="678"
   gradientTransform="matrix(1,0,0,-1,0,1100)">
		<stop
   offset="0"
   style="stop-color:#FFFFFF"
   id="stop100" />
		<stop
   offset="1"
   style="stop-color:#FFFFFF;stop-opacity:0"
   id="stop102" />
	</linearGradient>
	<path
   style="opacity:0.8;fill:url(#SVGID_3_);enable-background:new"
   d="m 355,242 c -37.59,3 -95,180 -95,180 h 190 c 0,0 -57.41,-177 -95,-180 z"
   id="path105"
   inkscape:connector-curvature="0" />
</g>
<g
   id="g125"
   transform="translate(-5,-63)">
	
		<linearGradient
   id="SVGID_4_"
   gradientUnits="userSpaceOnUse"
   x1="195"
   y1="1037"
   x2="195"
   y2="908"
   gradientTransform="matrix(1,0,0,-1,0,1100)">
		<stop
   offset="0"
   style="stop-color:#FFFFFF;stop-opacity:0"
   id="stop109" />
		<stop
   offset="1"
   style="stop-color:#FFFFFF"
   id="stop111" />
	</linearGradient>
	<path
   style="opacity:0.65;fill:url(#SVGID_4_);enable-background:new"
   d="M 289.8,63 H 100 c 0,0 57.15,129 95,129 37.85,0 95,-129 95,-129 z"
   id="path114"
   inkscape:connector-curvature="0" />
	<rect
   x="180"
   y="202"
   style="fill:#cfd8dc"
   width="30"
   height="30"
   id="rect116" />
	
		<linearGradient
   id="SVGID_5_"
   gradientUnits="userSpaceOnUse"
   x1="195"
   y1="858"
   x2="195"
   y2="678"
   gradientTransform="matrix(1,0,0,-1,0,1100)">
		<stop
   offset="0"
   style="stop-color:#FFFFFF"
   id="stop118" />
		<stop
   offset="1"
   style="stop-color:#FFFFFF;stop-opacity:0"
   id="stop120" />
	</linearGradient>
	<path
   style="opacity:0.8;fill:url(#SVGID_5_);enable-background:new"
   d="m 195,242 c -37.59,3 -95,180 -95,180 h 190 c 0,0 -57.41,-177 -95,-180 z"
   id="path123"
   inkscape:connector-curvature="0" />
</g>
<g
   id="g143"
   transform="translate(-5,-63)">
	<rect
   x="460"
   y="171"
   style="fill:#b0bec5"
   width="130"
   height="251"
   id="rect127" />
	<polyline
   style="fill:none;stroke:#78909c;stroke-width:15;stroke-miterlimit:10"
   points="462.5,422 462.5,174.5 587.5,174.5    587.5,422  "
   id="polyline129" />
	<path
   style="fill:#ffffff"
   d="m 536,235.11 c 0,4.167 -0.89,7.357 -2.67,9.57 -1.78,2.213 -4.383,3.32 -7.81,3.32 -3.38,0 -6,-1.09 -7.77,-3.25 -1.77,-2.16 -2.71,-5.28 -2.75,-9.33 v -5.55 c 0,-4.22 0.9,-7.41 2.7,-9.6 1.8,-2.19 4.39,-3.27 7.78,-3.27 3.39,0 6,1.08 7.77,3.24 1.77,2.16 2.71,5.27 2.75,9.32 z m -6.17,-6.1 c 0.131,-1.884 -0.231,-3.769 -1.05,-5.47 -0.7,-1.136 -1.969,-1.794 -3.3,-1.71 -1.287,-0.084 -2.518,0.541 -3.21,1.63 -0.81,1.57 -1.189,3.326 -1.1,5.09 v 7.34 c -0.126,1.885 0.217,3.771 1,5.49 0.672,1.184 1.962,1.879 3.32,1.79 1.327,0.099 2.593,-0.569 3.26,-1.72 0.763,-1.647 1.107,-3.458 1,-5.27 V 229 Z"
   id="path131"
   inkscape:connector-curvature="0" />
	<path
   style="fill:#ffffff"
   d="M 558.49,236.12 H 562 V 241 h -3.46 v 6.55 h -6.06 V 241 h -12.83 v -3.79 l 12.72,-20 h 6.12 z m -12.81,0 h 6.75 v -10.69 l -0.39,0.68 z"
   id="path133"
   inkscape:connector-curvature="0" />
	<path
   style="fill:#ffffff"
   d="m 506,236.12 h 3.46 V 241 H 506 v 6.55 h -6.06 V 241 h -12.82 v -3.79 l 12.73,-20 H 506 Z m -12.81,0 h 6.75 v -10.69 l -0.4,0.68 z"
   id="path135"
   inkscape:connector-curvature="0" />
	<rect
   x="555"
   y="302"
   style="fill:#607d8b"
   width="15"
   height="34"
   id="rect137" />
	<rect
   x="546"
   y="319"
   style="fill:#78909c"
   width="20"
   height="4"
   id="rect139" />
	<rect
   x="558"
   y="306"
   width="9"
   height="9"
   id="rect141" />
</g>
<linearGradient
   id="SVGID_6_"
   gradientUnits="userSpaceOnUse"
   x1="289"
   y1="-486.37"
   x2="289"
   y2="-466.37"
   gradientTransform="matrix(1,0,0,-1,-5,-68.37)">
	<stop
   offset="0"
   style="stop-color:#FFFFFF"
   id="stop145" />
	<stop
   offset="1"
   style="stop-color:#E0E0E0"
   id="stop147" />
</linearGradient>
<path
   style="opacity:0.2;fill:url(#SVGID_6_);enable-background:new"
   d="m 388,398 v 0 c 0,11.046 -8.954,20 -20,20 H 200 c -11.046,0 -20,-8.954 -20,-20 z"
   id="path150"
   inkscape:connector-curvature="0" />
<g
   id="g212"
   transform="translate(-5,-63)">
	<path
   style="fill:#191919"
   d="M 329.63,300.13 339,301 c 0,0 1.06,5.63 -1.25,8.25 -2.31,2.62 -3.44,3.69 -5.75,3.75 -2.31,0.06 -5.12,-7.75 -2.37,-12.87 z"
   id="path152"
   inkscape:connector-curvature="0" />
	<path
   style="fill:#ffccbc"
   d="m 339,301 c 1.588,0.082 3.18,-0.002 4.75,-0.25 1.86,-0.19 3.35,-0.75 3.75,-0.75 1,0 0.49,1.62 -1.5,3 -1.077,0.817 -2.325,1.381 -3.65,1.65 0.529,1.159 1.14,2.279 1.83,3.35 3,3.77 7.55,3.57 6.7,4.5 -1.11,1.18 -14.08,4.4 -14.08,4.4 -2.266,-2.089 -4.335,-4.382 -6.18,-6.85 C 328.44,306.87 327,301 327,301 Z"
   id="path154"
   inkscape:connector-curvature="0" />
	<path
   style="fill:#ffab91"
   d="m 338.83,314.92 c -2,0.23 -2.76,1.34 -2,2 0.904,0.8 2.098,1.191 3.3,1.08 1.677,-0.316 3.305,-0.854 4.84,-1.6 2.165,-1.067 4.182,-2.412 6,-4 -0.14,0.03 -2.09,1.35 -12.14,2.52 z"
   id="path156"
   inkscape:connector-curvature="0" />
	<path
   style="fill:#212121"
   d="m 295,256 c 2.28,0.841 4.62,1.509 7,2 4,0.48 9.1,1.1 13,5 1.992,2.129 3.5,4.664 4.42,7.43 0.88,2.36 2.89,8.19 3.58,10.57 0.9,3.14 5.08,10.08 7,12 3,3 9,8 9,8 0,0 -2.12,-0.5 -5.56,2.81 -3,2.86 -3.63,6.19 -1.88,9.11 0,0 -10.56,-7.92 -12.56,-9.92 -2,-2 -7,-11 -7,-11 0,0 1,13 2,21 1,8 3,10 3,20 0.06,7.825 -0.63,15.637 -2.06,23.33 L 299,370 h -37 l -5,-54 -6.36,-5.68 c -1.599,-1.599 -2.538,-3.741 -2.63,-6 -0.03,-0.748 0.03,-1.497 0.18,-2.23 1.74,-8.41 7.06,-30.15 7.81,-33.13 0.49,-1.95 5.32,-4.39 9.11,-6.36 4,-2.07 7.89,-3.64 7.89,-3.64 z"
   id="path158"
   inkscape:connector-curvature="0" />
	<path
   d="m 297,449.9 v 6 c 0,2.47 -0.07,3.79 2.09,4.28 1.61,0.37 6.82,1.64 7.7,1.95 4.85,1.66 9.38,3.75 13.9,3.75 2,0 4.19,-0.11 5.94,-1.25 0,0 -0.13,-5.13 -6.81,-6.6 -8.17,-2.35 -9.62,-10.54 -9.62,-10.54 z"
   id="path160"
   inkscape:connector-curvature="0" />
	<polygon
   style="fill:#eeeeee"
   points="280,286 292,302.92 296,291 299,278 297,263 286.5,268 274,258 273,270 "
   id="polygon162" />
	<path
   style="fill:none;stroke:#212121;stroke-width:1.5;stroke-miterlimit:10"
   d="m 286.11,299.38 c 0,0 1.89,-7.75 1.89,-28.38"
   id="path164"
   inkscape:connector-curvature="0" />
	<path
   style="fill:#212121"
   d="m 314.94,356.33 1.89,42.8 c 0.14,2.27 0.19,4.53 0.16,6.8 L 315.63,453 c 0,0 -0.63,3.31 -10.41,3.31 -9.78,0 -10,-3.18 -10,-3.18 L 292.41,400.62 286.22,352.75 296,351 Z"
   id="path166"
   inkscape:connector-curvature="0" />
	<polygon
   style="fill:#191919"
   points="267.5,287.25 269.25,297.88 267,300.63 265.25,298.25 "
   id="polygon168" />
	<path
   d="m 278,459.51 c -0.15,1.86 0.09,2.22 -1.28,3.42 -0.75,0.65 -3.52,3 -4.72,4.11 -1.317,1.496 -2.8,2.838 -4.42,4 -2.814,1.81 -6.057,2.845 -9.4,3 -0.11,-0.702 -0.17,-1.41 -0.18,-2.12 0,-1.78 0.24,-4.25 1.69,-5.81 4.29,-4.6 6.89,-6 8.18,-10.15 0.779,-2.553 1.081,-5.228 0.89,-7.89 h 9.07 z"
   id="path170"
   inkscape:connector-curvature="0" />
	<path
   style="fill:#191919"
   d="m 288.24,312 -0.24,-13.3 4.07,4.19 c 0,0 -2,36 12.49,54.57 1.52,2 10.44,-1.46 10.44,-1.46 0,0 -6.81,7.69 -13.51,5.64 C 292.63,358.94 288.24,312 288.24,312 Z"
   id="path172"
   inkscape:connector-curvature="0" />
	<path
   style="fill:#212121"
   d="m 284.88,406.75 -2.22,48.5 c 0,0 0.34,5.75 -12.66,5.75 -7.25,0 -8.32,-4.25 -8.32,-4.25 l -1.63,-53 4,-60.5 29.77,7.42 z"
   id="path174"
   inkscape:connector-curvature="0" />
	<path
   style="fill:#5d4037"
   d="m 279,306 -10,1.33 -6,12.67 c 0,0 -7.67,36.33 -8.33,42.67 -0.6,5.66 -1.46,23.86 -1.64,27.64 -0.034,0.43 0.212,0.833 0.61,1 L 274,400 l -2,-76 -3,-10 z"
   id="path176"
   inkscape:connector-curvature="0" />
	<path
   style="fill:#6d4c41"
   d="m 265.5,311.5 c 0,0 4.26,31.15 3.73,46.27 -0.63,18.22 1.11,42.79 1.46,47.45 0.041,0.542 0.301,1.044 0.72,1.39 2.324,1.67 5.141,2.511 8,2.39 2.21,0.13 4.422,-0.211 6.49,-1 0.793,-0.327 1.259,-1.153 1.13,-2 -0.56,-7 -2.9,-39 -2.9,-55 0,-18 1.94,-37.75 1.94,-37.75 0,0 -2.4,-6.7 -8.25,-6.7 -5.85,0 -12.32,4.95 -12.32,4.95 z"
   id="path178"
   inkscape:connector-curvature="0" />
	<path
   style="fill:#bdbdbd"
   d="m 290.35,266.94 -1.29,-1.29 c -0.851,-0.849 -2.229,-0.849 -3.08,0 v 0 0 l -1.29,1.29 c -0.859,0.862 -0.859,2.258 0,3.12 l 1.29,1.29 c 0.862,0.859 2.258,0.859 3.12,0 l 1.29,-1.29 c 0.843,-0.876 0.825,-2.266 -0.04,-3.12 z"
   id="path180"
   inkscape:connector-curvature="0" />
	<circle
   style="fill:#212121"
   cx="287.5"
   cy="268.5"
   r="1.5"
   id="circle182" />
	<path
   style="fill:#ffffff"
   d="M 275.9,253.1 272,260 c 0,0 -1,5 3,8 5.12,3.84 7,5 7,5 1.919,-2.38 3.491,-5.019 4.67,-7.84 -3.318,-0.538 -6.388,-2.089 -8.79,-4.44 -4.24,-4 -1.98,-7.62 -1.98,-7.62 z"
   id="path184"
   inkscape:connector-curvature="0" />
	<path
   style="fill:#ffffff"
   d="m 291,258 6,1 -4,12 c -2.31,0 -4.91,-5.92 -4.91,-5.92 1.17,-1.17 0.72,-0.87 1.32,-2 0.77,-1.45 1.79,-3.46 1.59,-5.08 z"
   id="path186"
   inkscape:connector-curvature="0" />
	<path
   style="fill:#424242"
   d="m 295.38,256.13 c 0,0 6.62,5.87 8.62,13.87 l -4,3 4,3 -12,26.92 c 0,0 1.05,-3.92 2,-21.92 1,-19 -3,-23 -3,-23 z"
   id="path188"
   inkscape:connector-curvature="0" />
	<path
   style="fill:#ffccbc"
   d="m 293,229 c 1.08,0 1.23,1.85 2,4 0.65,1.82 1.54,2.75 1.66,3.87 0.12,1.12 0.22,2.14 0.34,3.26 0.12,1.12 0.38,3 0.63,4.25 0.203,1.029 0.327,2.072 0.37,3.12 0.03,1.836 -0.04,3.672 -0.21,5.5 -0.63,3.25 -6.79,5 -6.79,5 0,0 1.05,7.33 -3.95,7.33 -1.42,0 -9.49,0.31 -12.49,-7.69 C 272.2,251.36 272,253 272,253 c 0,0 2,-2 2,-9 0,-7 4.93,-15 12,-15 z"
   id="path190"
   inkscape:connector-curvature="0" />
	<path
   d="m 273,228 c 2.5,-2.5 5,-4 11,-4 9,0 10,4 10,6 0,1 -2,2 -2,2 -1.578,-0.68 -3.282,-1.02 -5,-1 -3.95,0 -5,1.25 -5,3 v 3 c 0,3 -1,3 -1,5 v 5 h -2 c 0,0 0,-5 -2.43,-5 -1.88,0 -2.57,1 -2.57,3 0.167,1.826 0.862,3.563 2,5 v 4 c 0,5 -4.52,6.5 -6.48,6.5 -1.602,-0.365 -2.682,-1.865 -2.52,-3.5 0,-4 3.51,-5.73 4.65,-6.71 0.222,-0.19 0.35,-0.468 0.35,-0.76 v -1.15 c -0.002,-0.23 -0.083,-0.453 -0.23,-0.63 -1.339,-1.711 -2.211,-3.741 -2.53,-5.89 -0.16,-0.945 -0.24,-1.902 -0.24,-2.86 0,-5 1,-8 4,-11 z"
   id="path192"
   inkscape:connector-curvature="0" />
	<path
   style="fill:#424242"
   d="M 274.57,258.13 272,260 l -3,13 4,3 -2,5 c 0,0 11,11.59 21,21.92 0,0 -17.76,-28.12 -17.43,-44.79 z"
   id="path194"
   inkscape:connector-curvature="0" />
	<path
   style="fill:none;stroke:#000000;stroke-width:1.5;stroke-miterlimit:10"
   d="m 302.57,290 c 2.673,-0.142 5.308,-0.698 7.81,-1.65"
   id="path196"
   inkscape:connector-curvature="0" />
	<path
   style="fill:none;stroke:#000000;stroke-width:1.5;stroke-miterlimit:10"
   d="m 304,326.5 c 3.554,-0.132 6.971,-1.401 9.75,-3.62"
   id="path198"
   inkscape:connector-curvature="0" />
	<path
   style="fill:#795548"
   d="m 279.68,310.59 c 4.42,6.81 0.75,34.59 3.93,40.34 0,0 10.39,-0.61 10.39,-3.93 -0.059,-1.387 -0.399,-2.748 -1,-4 l 1,-2 c -6.52,-9.5 -3.47,-24.91 -14.32,-30.41 z"
   id="path200"
   inkscape:connector-curvature="0" />
	<path
   style="fill:#8d6e63"
   d="m 299,341.38 c -0.56,-5.42 -4.08,-11.9 -7,-19.8 -2.13,-5.8 -6.48,-13.82 -11,-18.58 -1.64,-1.72 -5,-4 -8,-4 -2,0 -4,-1 -7,-1 -8,0 -12.71,6.64 -13.66,10.32 C 248.78,322.15 246,342 246,342 c 0,0 -7,4 -7,7 0,3 1.86,8.1 4.09,9.61 2.23,1.51 1.45,-0.44 3.58,0.83 3.484,1.839 7.393,2.723 11.33,2.56 4.075,-0.093 8.115,-0.767 12,-2 l -3,-8 4,-2.12 c 0,0 -2,-21.07 -2,-34.13 0,-4.2 3.63,-10.62 9.6,-6.34 0.438,0.298 0.806,0.687 1.08,1.14 10.85,5.5 6.8,22.91 13.32,32.41 2.47,0.04 6,-0.46 6,-1.58 z"
   id="path202"
   inkscape:connector-curvature="0" />
	<path
   style="fill:#ffffff"
   d="M 278,314.25 V 306 c 2.5,1.63 6.13,1 10,1 -0.83,3.37 -1,16 -1,16 l -6.1,-0.36 z"
   id="path204"
   inkscape:connector-curvature="0" />
	<path
   style="fill:#ffccbc"
   d="m 281,311.93 c 0.66,0.6 2.81,2.23 2.81,2.23 l 1.32,1.33 c 0.753,0.758 1.046,1.858 0.77,2.89 l -0.89,3.46 c -0.257,0.92 -0.936,1.663 -1.83,2 l -2.31,0.91 c -0.654,0.261 -1.378,0.289 -2.05,0.08 l -4.94,-1.51 c 0,0 -2.88,-0.72 -2.88,-5.24 0,-4.52 2.6,-7.11 5.11,-7.11 2.96,0.03 3.98,0.13 4.89,0.96 z"
   id="path206"
   inkscape:connector-curvature="0" />
	<path
   style="fill:#86665a"
   d="m 260,305 c 0,0 -3.46,1 -6.25,13.41 -2.33,10.37 -2.75,27.08 -2.75,27.08 v 3.15 c -0.092,0.488 0.032,0.991 0.34,1.38 l 0.81,0.81 c 0.197,0.193 0.514,0.19 0.707,-0.007 0.092,-0.094 0.144,-0.221 0.143,-0.353 v -3.59 c 0,0 0.13,-17.39 2.25,-28.49 C 257.53,306.46 260,305 260,305 Z"
   id="path208"
   inkscape:connector-curvature="0" />
	<path
   style="fill:#86665a"
   d="m 266,303 c 0,0 -5.52,3.57 -6.65,17.08 -1.52,18.22 -4.38,20.79 -3,21.48 1.38,0.69 3.36,1.26 4.33,-4 0.73,-4 0.42,-8 0.87,-17.46 0.31,-6.81 1.6,-12.33 4.45,-17.1 z"
   id="path210"
   inkscape:connector-curvature="0" />
</g>
</svg>