<?xml version="1.0" encoding="utf-8"?>
<!-- Generator: Adobe Illustrator 22.0.1, SVG Export Plug-In . SVG Version: 6.00 Build 0)  -->
<svg version="1.1" id="Layer_14" xmlns="http://www.w3.org/2000/svg" xmlns:xlink="http://www.w3.org/1999/xlink" x="0px" y="0px"
	 viewBox="0 0 800 600" style="enable-background:new 0 0 800 600;" xml:space="preserve">
<style type="text/css">
	.st0{display:none;fill:url(#SVGID_1_);}
	.st1{display:none;fill:#FFFFFF;}
	.st2{display:none;fill:#F5F5F5;}
	.st3{display:none;fill:#E8E8E8;}
	.st4{display:none;}
	.st5{display:inline;fill:#E8E8E8;}
	.st6{display:inline;fill:#FAFAFA;}
	.st7{display:none;fill:url(#SVGID_2_);}
	.st8{fill:#E0E0E0;}
	.st9{fill:#BDBDBD;}
	.st10{fill:#A8A7A7;}
	.st11{fill:#EEEEEE;}
	.st12{display:none;opacity:0.2;fill:url(#SVGID_3_);enable-background:new    ;}
	.st13{fill:#212121;}
	.st14{fill:#FAD6B7;}
	.st15{fill:#FFCCBC;}
	.st16{fill:#1A3463;}
	.st17{fill:#FBC02D;}
	.st18{fill:#1D3B70;}
	.st19{fill:#1F4172;}
	.st20{fill:#22477D;}
	.st21{fill:#285394;}
	.st22{fill:#254E8A;}
	.st23{fill:#A31919;}
	.st24{fill:#D32F2F;}
	.st25{fill:#F5F5F5;}
	.st26{fill:#B71C1C;}
	.st27{fill:#424242;}
	.st28{fill:#78909C;}
	.st29{fill:#90A4AE;}
	.st30{fill:#B0BEC5;}
	.st31{fill:#616161;}
	.st32{fill:#CFD8DC;}
	.st33{fill:#ECEFF1;}
</style>
<g>
	<g>
		
			<radialGradient id="SVGID_1_" cx="957.5767" cy="-873.9274" r="238.4447" gradientTransform="matrix(1.339 0 0 1.2858 -884.2282 1495.7031)" gradientUnits="userSpaceOnUse">
			<stop  offset="3.100000e-03" style="stop-color:#FFFFFF;stop-opacity:0"/>
			<stop  offset="0.9506" style="stop-color:#FFFFFF;stop-opacity:0.8553"/>
			<stop  offset="1" style="stop-color:#FFFFFF"/>
		</radialGradient>
		<rect class="st0" width="800" height="600"/>
		<rect class="st1" width="800" height="600"/>
		<rect x="80" y="56" class="st2" width="640" height="373"/>
		<polygon class="st3" points="217.4,255.4 217.4,233.8 155.4,233.8 155.4,429 247.6,429 247.6,255.4 		"/>
		<polygon class="st3" points="398,396 398,307 382,307 382,251 371,251 371,211 356,211 346,131 335,211 321,211 321,251 310,251 
			310,307 294,307 294,397 280,397 280,429 412,429 412,396 		"/>
		<g class="st4">
			<polygon class="st5" points="590,300 590,253 555.1,239 521,253 521,300 507,300 507,429 604,429 604,300 			"/>
		</g>
		<g class="st4">
			<polygon class="st6" points="720,219.9 720,279.9 383.2,56.8 383.8,56 472.5,56 			"/>
		</g>
		<g class="st4">
			<polygon class="st6" points="720,302.4 347.2,56 310.9,56 720,326.4 			"/>
		</g>
		<g class="st4">
			<polygon class="st6" points="446.6,429 392.2,429 80,222.4 80,186.5 			"/>
		</g>
		<g class="st4">
			<polygon class="st6" points="358.8,429 322.5,429 80,268.9 80,245 			"/>
		</g>
		<rect x="279.5" y="50.3" class="st1" width="21" height="384.4"/>
		<rect x="499.5" y="50.3" class="st1" width="21" height="384.4"/>
		
			<radialGradient id="SVGID_2_" cx="957.2966" cy="-873.9274" r="238.4447" gradientTransform="matrix(1.339 0 0 1.2858 -884.2282 1495.7031)" gradientUnits="userSpaceOnUse">
			<stop  offset="3.100000e-03" style="stop-color:#FFFFFF;stop-opacity:0"/>
			<stop  offset="0.8167" style="stop-color:#FFFFFF;stop-opacity:0.7344"/>
			<stop  offset="0.9506" style="stop-color:#FFFFFF;stop-opacity:0.8553"/>
			<stop  offset="1" style="stop-color:#FFFFFF"/>
		</radialGradient>
		<rect x="-0.4" class="st7" width="800" height="600"/>
		<g>
			<path class="st8" d="M551.5,381.2l-0.4-6.9c-0.2-3.5,2.7-6.4,6.2-6.2l111.1,5.5L646,388.4l-50.7-1.9L551.5,381.2"/>
			<path class="st9" d="M555.6,455.6l-4.2-77.6c-0.2-3.5,2.7-6.4,6.2-6.2l102.4,5.1L555.6,455.6z"/>
			<g>
				<path class="st10" d="M675.2,481h-122c-3.3,0-5.9-2.6-5.9-5.9v-27.6c0-3.3,2.6-5.9,5.9-5.9h116.1c3.1,0,5.6,2.4,5.9,5.4
					l5.9,28.1C681.1,478.4,678.5,481,675.2,481z M555.1,473.1h117.6l-5.1-23.6H555.1V473.1z"/>
			</g>
			<path class="st8" d="M669.3,398.1l-40.9-13.5l23.4-43.7c3.8-7,11.1-11.4,19.1-11.4h11.8L669.3,398.1z"/>
			<path class="st11" d="M531.8,387.5l-0.4-6.9c-0.2-3.5,2.7-6.4,6.2-6.2l111.1,5.5l-22.4,14.9l-50.7-1.9L531.8,387.5"/>
			<path class="st9" d="M692.8,333.9l-14.2,109.7c-0.6,4.6-4.3,8.2-8.9,8.5L542,462.8c-3.3,0.3-6.2-2.2-6.4-5.6l-3.9-71.6
				c-0.2-3.5,2.7-6.4,6.2-6.2l102.4,5.1l23.4-43.7c3.8-7,11.1-11.4,19.1-11.4h6.2C691.3,329.4,693.1,331.5,692.8,333.9z"/>
		</g>
		<g>
			<path class="st8" d="M254.5,381.2l0.4-6.9c0.2-3.5-2.7-6.4-6.2-6.2l-111.1,5.5l22.4,14.9l50.7-1.9L254.5,381.2"/>
			<path class="st9" d="M250.4,455.6l4.2-77.6c0.2-3.5-2.7-6.4-6.2-6.2L146,376.9L250.4,455.6z"/>
			<g>
				<path class="st10" d="M124.9,475.1l5.9-28.1c0.3-3,2.8-5.4,5.9-5.4h116.1c3.3,0,5.9,2.6,5.9,5.9v27.6c0,3.3-2.6,5.9-5.9,5.9
					h-122C127.5,481,124.9,478.4,124.9,475.1z M250.9,449.5H138.3l-5.1,23.6h117.6L250.9,449.5L250.9,449.5z"/>
			</g>
			<path class="st8" d="M136.7,398.1l40.9-13.5l-23.4-43.7c-3.8-7-11.1-11.4-19.1-11.4h-11.8L136.7,398.1z"/>
			<path class="st11" d="M274.2,387.5l0.4-6.9c0.2-3.5-2.7-6.4-6.2-6.2l-111.1,5.5l22.4,14.9l50.7-1.9L274.2,387.5"/>
			<path class="st9" d="M113.2,333.9l14.2,109.7c0.6,4.6,4.3,8.2,8.9,8.5L264,462.8c3.3,0.3,6.2-2.2,6.4-5.6l3.9-71.6
				c0.2-3.5-2.7-6.4-6.2-6.2l-102.4,5.1l-23.4-43.7c-3.8-7-11.1-11.4-19.1-11.4H117C114.7,329.4,112.9,331.5,113.2,333.9z"/>
		</g>
		
			<linearGradient id="SVGID_3_" gradientUnits="userSpaceOnUse" x1="397" y1="620.3665" x2="397" y2="600.3665" gradientTransform="matrix(1 0 0 1 0 -119.3665)">
			<stop  offset="0" style="stop-color:#FFFFFF"/>
			<stop  offset="1" style="stop-color:#E0E0E0"/>
		</linearGradient>
		<path class="st12" d="M711,481L711,481c0,11-9,20-20,20H103c-11.1,0-20-9-20-20l0,0H711z"/>
		<g>
			<path class="st13" d="M296,482.4c-1.3-0.8-3.7-2.3-4.1-3c-0.7-1.4-0.1-3.9-0.1-6.7s0-4.7,0-4.7l10.6,0.2c0,0.6-0.2,2.4-0.2,4.3
				c0,2.5,2.8,5.8,5.2,7.5c1.3,1,4.3,4.3,3.7,8.7c0,0-3.9,0.4-7.2-0.9C300.7,486.5,296,482.4,296,482.4z"/>
			<path class="st13" d="M461.9,478.9c-0.1,0.8-0.9,1.4-2.1,2.2c-0.7,0.4-2.7,2-4.9,3.5c-1.2,0.8-3.1,1.7-4.8,2.2
				c-5.3,1.6-7.1,0.5-7.1,0.5c-0.1-3,2.2-6.4,3.5-7.3c4.2-3.1,6.9-4.2,7.7-6.8c0.6-2.1,2.3-2.9,2.1-5.1l2-0.7l3,5
				C461.3,472.5,462.2,475.4,461.9,478.9z"/>
			<path class="st14" d="M444.6,405.4c-1.8-7.1-0.5-11.2,0.4-18.4l3.7-28.1l-24.3-7.3c0,0,1.2,30.3,2.8,42.7c0.4,3.3,0.6,6.6,0.7,10
				c0.1,8.1,4,33.7,7.2,60.4c0.2,1.9,0.7,5.2-0.4,6.8c-1.5,2.2-5.1,3-9.8,4.2c-6.5,2.4-5.4,5.2-5.4,5.2s10.9-0.4,19.9-0.1
				c3.5,0.1,3.4-3.7,3.4-3.7l-0.4-7.3c-0.1-2.1,0-4.2,0.3-6.2C444.6,450.7,448.8,421.6,444.6,405.4z"/>
			<path class="st13" d="M430.4,477.2c-2.7,0-0.5-3-5.1-1.7c-1.8,0.5-3.6,1.4-4.6,2.3c-1.8,1.7-1.5,3.3-1.5,3.3s12.7,0,20.4,0
				c3.4,0,3.3-1,3.3-2.1c0.1-1.9,0-4.3,0-4.3S432.7,477.2,430.4,477.2z"/>
			<path class="st15" d="M353.2,310.7c0,0,8.4-1.4,11.5-2.9c3.1-1.6,4.1,1,4.9,1.5s11,0.9,10.6,3.4s-2.4,6.5-4.5,7.8
				s-22.5-3.3-22.5-3.3V310.7z"/>
			<path class="st15" d="M372.6,309.7c-0.3,0-1.3,0.2-5.2,1.5c-2.2,0.8-0.6-1.8,1-3.3c0.6,0.5,0.9,1.1,1.3,1.3
				C369.9,309.4,371.1,309.5,372.6,309.7z"/>
			<path class="st16" d="M321.6,245.4l11.3,15c0,0,12.5,37.2,6.6,97.5c-0.1,1.2-1.1,2.1-2.3,2.1c-2.2,0-4.9-0.4-6.1-1.8
				c-14-16.7-13.1-103.3-13.1-103.3L321.6,245.4z"/>
			<path class="st8" d="M320.4,251.7c0,0,16.3,12.9,16.6,59.9c0.1,10.5-1.5,17.5-1.5,17.5s-7.8,3.5-13.1,0s-4.3-22.4-4.3-22.4
				l-14.3-56.1L320.4,251.7z"/>
			<path class="st17" d="M322,248.7l1.4,1.7c0.8,1,1.2,2.4,0.9,3.7l0,0c0,0,17,23.6,12,70.3c-0.1,0.6-0.8,4.7-0.8,4.7
				s-2.7-3.7-3.4-5.3c4.2-42-10.2-68.9-10.2-68.9l-1.9-0.8L322,248.7z"/>
			<path class="st15" d="M331.3,237.5c-1.1,2-3.8,4.6-7.9,6.9c-0.8,0.5-1.2,2.7-1.4,4.3c-0.1,1.1-0.9,1.9-0.9,1.9h-17.3
				c0,0,2.9-1.8,4.8-6.2c1.1-2.5,0.6-5.4-1.1-7.5c-2.1-2.8-4.8-7.5-4.8-18.3c0-12.3,8.9-16.5,16.5-16.5c10.6,0,15.6,7.2,15.6,20.7
				C334.8,227.5,333.9,232.4,331.3,237.5z"/>
			<path class="st13" d="M300.7,218.6c0-12.3,7.3-18.6,18.5-18.6c5.4,0,11.2,2,15.3,5c3.4,2.5,2.9,7.8-1,9.6l-6.8,3.1
				c0,0-2.4,1.2-2.4,4.1c-0.1,2-1.5,2.5-2.4,2.9c-0.9-3.9-2.4-4.7-3.6-4.7c-0.7,0-1.5,0.1-2.2,0.7c-0.9,0.8-1.2,2.2-1.2,3.6
				c0,1.6,1.1,4.7,1.9,5.7c0.7,0.9,0.7,2.2-0.2,3c-2.6,2.5-9.6,6.5-9.6,6.5C307.7,234.6,300.7,232.7,300.7,218.6z"/>
			<polygon class="st11" points="309.1,241.1 322,248.7 319.7,257.6 306,247.2 			"/>
			<path class="st13" d="M336.7,474.6c-10.3-2.2-9.6-7.4-9.6-7.4l-9.1-0.3l-0.5,10.6c0,0-0.5,3.5,1.6,3.5h23.6c0,0,0.1-0.6,0-1.2
				C342.5,478.3,341.3,475.7,336.7,474.6z"/>
			<path class="st18" d="M336.7,338.5c0,0-0.7,30.6-0.7,68.4c0,26.4-4.1,65.3-4.1,65.3h-15c0,0-3.1-35.3-0.4-56
				c0,0-0.6-37.9-1.6-47.2C313.9,359.7,320,330.7,336.7,338.5z"/>
			<path class="st19" d="M327.9,337.3c-0.7,26.6-8.1,60.1-10.8,71c-2.7,11-12.9,65.4-12.9,65.4s-0.5,2.5-5.3,2.9
				c-5.4,0.4-9.8-2.9-9.8-2.9c0-31.6,5.7-60,7.4-66.6c-1.1-26.1-0.8-52.5-0.8-52.5l14-24L327.9,337.3z"/>
			<path class="st18" d="M320.7,327.2c0,0,7.9,3.5,15,0.9c1.3,4.1,1,10.4,1,10.4s-11.7,3.2-20.6,0S320.7,327.2,320.7,327.2z"/>
			<path class="st20" d="M306.9,245.4c0,0-10.7,14.6-14.3,20.5c-7.3,12.1,2.5,39.5,2.7,50.2c0,17.5-1.9,43.2-1.9,43.2l37.2,2.6
				c2.1,0.2,3.9-1.4,4-3.5c0.5-10,2.5-33.3,3.1-49.8c0.3-8.4-7.9-30.4-12.8-39.3C318.4,257.5,306.9,245.4,306.9,245.4z"/>
			<path class="st21" d="M306.9,245.4c0,0-1.8,2.5-4.2,5.9c2.3,2.7,4.6,6.3,4.6,6.3l6.7,0.5l-2.6,6.8c0,0,6.7,8.6,9,14
				c1.9,4.6,16.6,32.8,16.6,32.8c2.1-12.2-6-34.2-10.9-43.1C319.6,256.7,306.9,245.4,306.9,245.4z"/>
			<path class="st22" d="M302,265.3c-4.5,1.8-9.3,8.5-2.4,19.3c4.5,7,11.9,21,18.5,29.2c5.7,7.1,33.7,6.4,39.8,6.4l-0.2-11
				l-24.3-7.6c0,0-3.6-9.1-10.7-23.1C316.8,266.9,310.1,262,302,265.3z"/>
			<path class="st14" d="M386.5,316.5c0,0-4.2,4-10.1,3.4c2.6-3.1,3.8-7.3,3.8-7.3c0.2-1.7-4.3-2.4-7.5-2.9c0,0,0,0-0.1,0
				c-0.3,0-1.3,0.2-5.2,1.5c-2.2,0.8-0.6-1.8,1-3.3c0.5-0.5,1-0.8,1.4-0.9c2.9-0.8,7.7,1.1,10,2.1c0.9,0.4,1.8,0.7,2.8,0.8l2.8,0.5
				L386.5,316.5z"/>
			<path class="st14" d="M367.1,317.9c0,0-1.1,1.9-0.4,2.4c0.8,0.5,7.3,1.3,7.9,1.1c0.7-0.2,1.3-2,0.4-2.5
				C374.2,318.4,368.8,317,367.1,317.9z"/>
			<path class="st14" d="M442.4,375.6c0,0,7.5,25.7,7.1,28.9c-2.8,15.3,4.4,60,4.1,63.9c-0.4,6.2-1.4,7.3-4.9,10
				c0.3-0.3,1-1.5,2.6-0.6c1.7,1,0.8,3.3,1.9,3c5.8-1.7,8.1-7.4,8-8.3c-0.4-4.4,8.3-50.1,3.4-68.9c2.7-15.1,2.7-24.5,2.7-24.5
				L442.4,375.6z"/>
			<path class="st13" d="M450.5,204.2l-1.3,52.9h14.4c0,0,4.4-13.2,4.3-28.2c0-9.9-1.6-26.8-11.1-26.8
				C452,202.1,450.5,204.2,450.5,204.2z"/>
			<ellipse class="st14" cx="456.7" cy="230.5" rx="3.6" ry="4.4"/>
			<path class="st14" d="M459.2,221c0,6.8-4.8,22.7-13.8,22.7c-9.6,0-13.7-15.9-13.7-22.7s6.1-12.3,13.7-12.3S459.2,214.2,459.2,221
				z"/>
			<g>
				<path class="st14" d="M459.7,251.2c0,0-5.7,20.1-13.1,21.2c-7.4-1.1-13.1-21.2-13.1-21.2c9,0.7,6.8-12.5,6.8-12.5h12.6
					C452.9,238.7,449.7,247.5,459.7,251.2z"/>
			</g>
			<path class="st13" d="M446,203.7c-9.6,0-14.3,7.5-14.3,15c0,8,2,12.5,2,12.5c0-1.8-2.6-11.4,2.4-13.8c8.8-3.9,13.8,13,24.3,13
				c0,0,1.2-3.5,1.2-11.8C461.5,215,459.1,203.7,446,203.7z"/>
			<path class="st23" d="M419.8,308.3c-1.2,2.6-7.6,6.4-13.6,8.2c-11.5,3.5-19.1,3-19.1,3l-1.8-9.1c0,0,20.3-8.5,21.4-8.6
				c0.8-4,1.7-6.5,3.2-14.3c3.2-16.4,4.9-27.4,10.4-30.1c4.7-2.3,14.2-6.3,14.2-6.3S426,295,419.8,308.3z"/>
			<path class="st24" d="M430.8,313.7c0,0-5.8,6.9-9.8,20.7c-0.6,12.8-0.2,48.1,5.7,71.1h38c2.6-18.4,6.2-40.7,5.8-52.8
				c-1-28.9-8.1-39-8.1-39L430.8,313.7L430.8,313.7z"/>
			<path class="st25" d="M466.7,290.7c0,12-9.7,23-9.7,23h-31.8c0,0,0.7-9.7,0.6-22.3c0.8-13.6-1-26.1-2.7-35.1
				c4.7-2.2,10.4-3.9,10.4-3.9c4.7-1.8,3.5-2.1,5.7-3.9c0,0,0.5,11.8,4.3,11.8s10.9-12.7,10.9-12.7c1.5,1.7,0.7,1.9,5.4,3.7
				c0,0,5.6,2.8,10.3,5C468.3,262.2,466.7,277.2,466.7,290.7z"/>
			<path class="st26" d="M439.1,248.5c-5.7,11.6-11.8,21.5-11.8,25.4c0,2.5,3.9,17.7,5.9,21.8c0.6,5.6-1.5,19.7-3,30
				c-1,6.9-5,13-10.9,16.6l0,0c0,0,3.8-23.9,3.5-33.7c-0.1-3.3-3.7-19.2-3.8-22.3c0.2-7.3,1.2-9,1.3-28.7
				C431.4,251.7,438,249.6,439.1,248.5z"/>
			<path class="st24" d="M439.1,248.5c-5.7,14.1-8.4,28.3-8.4,32.2c0,2.5,2.1,11,2.5,15c0,0-7.1-7.1-7.9-14.3
				c-0.7-6.6,0.1-19.2,0.1-19.2l6.5-5l-2.7-3.1C433,252.2,435,249.7,439.1,248.5z"/>
			<path class="st27" d="M492.7,345.3h2.3c0.8,0,1.4,0.6,1.4,1.4v9.6h-3.7L492.7,345.3L492.7,345.3z"/>
			<path class="st27" d="M475,345.3h2.3v10.9h-3.7v-9.6C473.6,346,474.2,345.3,475,345.3z"/>
			<rect x="472.5" y="352.2" class="st28" width="5.9" height="3.2"/>
			<rect x="491.6" y="352.2" class="st28" width="5.9" height="3.2"/>
			<path class="st27" d="M474.9,345.3H495c0.7,0,1.3,0.6,1.3,1.3v2.2h-22.8v-2.2C473.6,345.9,474.2,345.3,474.9,345.3z"/>
			<path class="st14" d="M480.3,341.5c0,0-1.4,6.4-0.4,9.7c0.7,2.6,6.3,0.2,8.7-0.9c0.7-0.3,1.2-1,1.2-1.8c0.2-2.1,0.2-6.2-1.8-8.5
				C485.2,336.9,480.3,341.5,480.3,341.5z"/>
			<path class="st26" d="M478.5,341.5c0,0-0.8-19.8-2.3-28.1c-1.1-6.3-5.8-17.6-8.6-27.9c-4.2-15.5-7.9-23.6-7.9-23.6
				s8.3-6.3,13.1-4.3c5.2,2.2,8.4,15.1,12,30.6c3.6,15.7,3.6,15.7,4.3,22.5c0.7,7,1.4,30.4,1.4,30.4L478.5,341.5z"/>
			<path class="st26" d="M465.9,308c4.2,17.6,6.4,34.6,6.4,34.6l-7-1.9c-9.1-2.4-15.8-10.1-17.1-19.4c-1.2-9.1-2.5-19.5-2.3-23.6
				c2.4-5.9,8.9-33.3,8.9-33.3s2.5-14.8,5-13.1c0,0,8.4,4.1,13.1,6.3c-4.3,5-4.1,17.8-4.9,29.3C467.9,289.8,466.2,301.2,465.9,308z"
				/>
			<path class="st24" d="M445.8,297.7c0.2-5.5,4.2-17,8.5-50.1c1.4,0.6,6.3,3.4,9.3,6.4l-6.2,1.6l6.2,5
				C463.6,260.6,459.7,273.7,445.8,297.7z"/>
			<path class="st28" d="M453.1,405.4h5.2v-50.7h-5.2c-2.2,0-4,1.8-4,4v42.7C449.1,403.6,450.9,405.4,453.1,405.4z"/>
			<path class="st27" d="M449.1,361.4h9.9v-6.7h-7c-1.6,0-2.9,1.3-2.9,2.9V361.4L449.1,361.4z"/>
			<path class="st29" d="M459.8,405.4h-3c-1.7,0-3.1-1.4-3.1-3.1v-44.5c0-1.7,1.4-3.1,3.1-3.1h3c-2,0-3.7,1.6-3.7,3.7v43.4
				C456.2,403.8,457.8,405.4,459.8,405.4z"/>
			<path class="st29" d="M457.8,405.4h-3c-0.1,0-0.1,0-0.2,0h3C457.7,405.4,457.8,405.4,457.8,405.4z"/>
			<path class="st28" d="M467.8,354.7v50.7h-8.1c-2-0.1-3.5-1.7-3.5-3.7v-43.4c0-2,1.6-3.7,3.7-3.7L467.8,354.7L467.8,354.7z"/>
			<path class="st27" d="M464.9,354.7v6.7h-8.7v-3c0-2,1.6-3.7,3.7-3.7H464.9z"/>
			<path class="st30" d="M461.6,402.3v-40.9l1.5-2.9c0-1.6,0.3-2.5,1.9-2.5l2.8-1.2h41.5c1.7,0,3.1,1.4,3.1,3.1v44.5
				c0,1.7-1.4,3.1-3.1,3.1h-44.7C462.9,405.4,461.6,404,461.6,402.3z"/>
			<path class="st31" d="M461.6,361.4v-3.8c0-1.6,1.3-2.9,2.9-2.9h3.3v6.7L461.6,361.4L461.6,361.4z"/>
			<path class="st31" d="M512.4,361.4v-3.6c0-1.7-1.4-3.1-3.1-3.1h-3.1v6.7H512.4L512.4,361.4L512.4,361.4z"/>
			<rect x="464.7" y="357.8" class="st32" width="44.7" height="44.5"/>
			<path class="st33" d="M468.6,375.2L468.6,375.2c0-0.9,0.7-1.6,1.6-1.6h33.6c0.9,0,1.6,0.7,1.6,1.6l0,0c0,0.9-0.7,1.6-1.6,1.6
				h-33.6C469.3,376.8,468.6,376.1,468.6,375.2z"/>
			<path class="st33" d="M468.6,385L468.6,385c0-0.9,0.7-1.6,1.6-1.6h33.6c0.9,0,1.6,0.7,1.6,1.6l0,0c0,0.9-0.7,1.6-1.6,1.6h-33.6
				C469.3,386.5,468.6,385.8,468.6,385z"/>
		</g>
	</g>
</g>
</svg>
